<mxfile host="app.diagrams.net" modified="2024-05-23T00:25:11.540Z" agent="Mozilla/5.0 (Macintosh; Intel Mac OS X 10_15_7) AppleWebKit/537.36 (KHTML, like Gecko) Chrome/124.0.0.0 Safari/537.36" etag="XmsPVU0WpzIZ1Ffzilih" version="24.4.6" type="device">
  <diagram id="23iRSUPoRavnBvh4doch" name="Page-1">
    <mxGraphModel dx="1046" dy="672" grid="1" gridSize="10" guides="1" tooltips="1" connect="1" arrows="1" fold="1" page="1" pageScale="1" pageWidth="827" pageHeight="1169" math="0" shadow="0">
      <root>
        <mxCell id="0" />
        <mxCell id="1" parent="0" />
        <mxCell id="9vagJ5xhhECEFdIfXfnk-19" value="" style="rounded=0;whiteSpace=wrap;html=1;fillColor=#f5f5f5;fontColor=#333333;strokeColor=#666666;" parent="1" vertex="1">
          <mxGeometry x="80" y="160" width="480" height="280" as="geometry" />
        </mxCell>
        <mxCell id="9vagJ5xhhECEFdIfXfnk-3" style="edgeStyle=orthogonalEdgeStyle;rounded=0;orthogonalLoop=1;jettySize=auto;html=1;" parent="1" edge="1">
          <mxGeometry relative="1" as="geometry">
            <mxPoint x="232.5" y="250" as="sourcePoint" />
            <mxPoint x="402.5" y="250" as="targetPoint" />
          </mxGeometry>
        </mxCell>
        <mxCell id="9vagJ5xhhECEFdIfXfnk-1" value="" style="rounded=1;whiteSpace=wrap;html=1;fillColor=#fff2cc;strokeColor=#d6b656;" parent="1" vertex="1">
          <mxGeometry x="102.5" y="200" width="130" height="190" as="geometry" />
        </mxCell>
        <mxCell id="9vagJ5xhhECEFdIfXfnk-4" style="edgeStyle=orthogonalEdgeStyle;rounded=0;orthogonalLoop=1;jettySize=auto;html=1;entryX=1;entryY=0.5;entryDx=0;entryDy=0;" parent="1" edge="1">
          <mxGeometry relative="1" as="geometry">
            <mxPoint x="402.5" y="350" as="sourcePoint" />
            <mxPoint x="232.5" y="350" as="targetPoint" />
          </mxGeometry>
        </mxCell>
        <mxCell id="9vagJ5xhhECEFdIfXfnk-2" value="" style="rounded=1;whiteSpace=wrap;html=1;fillColor=#d5e8d4;strokeColor=#82b366;" parent="1" vertex="1">
          <mxGeometry x="402.5" y="200" width="130" height="190" as="geometry" />
        </mxCell>
        <mxCell id="9vagJ5xhhECEFdIfXfnk-6" value="Product" style="ellipse;whiteSpace=wrap;html=1;" parent="1" vertex="1">
          <mxGeometry x="122.5" y="220" width="60" height="40" as="geometry" />
        </mxCell>
        <mxCell id="9vagJ5xhhECEFdIfXfnk-7" value="Sales" style="ellipse;whiteSpace=wrap;html=1;" parent="1" vertex="1">
          <mxGeometry x="167.5" y="260" width="60" height="40" as="geometry" />
        </mxCell>
        <mxCell id="9vagJ5xhhECEFdIfXfnk-8" value="Customer Service" style="ellipse;whiteSpace=wrap;html=1;" parent="1" vertex="1">
          <mxGeometry x="122.5" y="310" width="75" height="50" as="geometry" />
        </mxCell>
        <mxCell id="9vagJ5xhhECEFdIfXfnk-10" value="Order Service" style="rounded=0;whiteSpace=wrap;html=1;" parent="1" vertex="1">
          <mxGeometry x="420" y="230" width="95" height="40" as="geometry" />
        </mxCell>
        <mxCell id="9vagJ5xhhECEFdIfXfnk-11" value="Product Service" style="rounded=0;whiteSpace=wrap;html=1;" parent="1" vertex="1">
          <mxGeometry x="420" y="280" width="95" height="40" as="geometry" />
        </mxCell>
        <mxCell id="9vagJ5xhhECEFdIfXfnk-12" value="User Service&amp;nbsp;" style="rounded=0;whiteSpace=wrap;html=1;" parent="1" vertex="1">
          <mxGeometry x="420" y="330" width="95" height="40" as="geometry" />
        </mxCell>
        <mxCell id="9vagJ5xhhECEFdIfXfnk-14" value="Business Domain&lt;div&gt;Problem Space&lt;br&gt;&lt;/div&gt;" style="text;html=1;align=center;verticalAlign=middle;whiteSpace=wrap;rounded=0;fontSize=14;" parent="1" vertex="1">
          <mxGeometry x="104.5" y="400" width="125" height="30" as="geometry" />
        </mxCell>
        <mxCell id="9vagJ5xhhECEFdIfXfnk-15" value="Software&lt;div&gt;Solution Space&lt;/div&gt;" style="text;html=1;align=center;verticalAlign=middle;whiteSpace=wrap;rounded=0;fontSize=14;" parent="1" vertex="1">
          <mxGeometry x="414.5" y="400" width="100" height="30" as="geometry" />
        </mxCell>
        <mxCell id="9vagJ5xhhECEFdIfXfnk-16" value="support" style="text;html=1;align=center;verticalAlign=middle;whiteSpace=wrap;rounded=0;fontSize=14;" parent="1" vertex="1">
          <mxGeometry x="272.5" y="318" width="100" height="30" as="geometry" />
        </mxCell>
        <mxCell id="9vagJ5xhhECEFdIfXfnk-17" value="analyze" style="text;html=1;align=center;verticalAlign=middle;whiteSpace=wrap;rounded=0;fontSize=14;" parent="1" vertex="1">
          <mxGeometry x="272.5" y="220" width="100" height="30" as="geometry" />
        </mxCell>
        <mxCell id="9vagJ5xhhECEFdIfXfnk-25" value="" style="rounded=0;whiteSpace=wrap;html=1;fillColor=#f5f5f5;fontColor=#333333;strokeColor=#666666;" parent="1" vertex="1">
          <mxGeometry x="580" y="160" width="480" height="280" as="geometry" />
        </mxCell>
        <mxCell id="9vagJ5xhhECEFdIfXfnk-27" value="① Domain-Driven Design" style="text;html=1;align=center;verticalAlign=middle;whiteSpace=wrap;rounded=0;fontSize=14;fontStyle=1" parent="1" vertex="1">
          <mxGeometry x="230" y="160" width="180" height="30" as="geometry" />
        </mxCell>
        <mxCell id="9vagJ5xhhECEFdIfXfnk-28" value="② Use Models to Express Business Entities" style="text;html=1;align=center;verticalAlign=middle;whiteSpace=wrap;rounded=0;fontSize=14;fontStyle=1" parent="1" vertex="1">
          <mxGeometry x="670" y="160" width="300" height="30" as="geometry" />
        </mxCell>
        <mxCell id="9vagJ5xhhECEFdIfXfnk-36" style="edgeStyle=orthogonalEdgeStyle;rounded=0;orthogonalLoop=1;jettySize=auto;html=1;entryX=0;entryY=0.5;entryDx=0;entryDy=0;endArrow=none;endFill=0;startArrow=diamondThin;startFill=1;" parent="1" source="9vagJ5xhhECEFdIfXfnk-29" target="9vagJ5xhhECEFdIfXfnk-35" edge="1">
          <mxGeometry relative="1" as="geometry">
            <Array as="points">
              <mxPoint x="940" y="363" />
            </Array>
          </mxGeometry>
        </mxCell>
        <mxCell id="9vagJ5xhhECEFdIfXfnk-37" value="1" style="edgeLabel;html=1;align=center;verticalAlign=middle;resizable=0;points=[];labelBackgroundColor=#F5F5F5;" parent="9vagJ5xhhECEFdIfXfnk-36" vertex="1" connectable="0">
          <mxGeometry x="-0.4561" y="-1" relative="1" as="geometry">
            <mxPoint as="offset" />
          </mxGeometry>
        </mxCell>
        <mxCell id="9vagJ5xhhECEFdIfXfnk-38" value="N" style="edgeLabel;html=1;align=center;verticalAlign=middle;resizable=0;points=[];labelBackgroundColor=#F5F5F5;" parent="9vagJ5xhhECEFdIfXfnk-36" vertex="1" connectable="0">
          <mxGeometry x="0.6842" y="3" relative="1" as="geometry">
            <mxPoint y="1" as="offset" />
          </mxGeometry>
        </mxCell>
        <mxCell id="9vagJ5xhhECEFdIfXfnk-39" style="edgeStyle=orthogonalEdgeStyle;rounded=0;orthogonalLoop=1;jettySize=auto;html=1;entryX=0.5;entryY=1;entryDx=0;entryDy=0;dashed=1;" parent="1" source="9vagJ5xhhECEFdIfXfnk-29" target="9vagJ5xhhECEFdIfXfnk-33" edge="1">
          <mxGeometry relative="1" as="geometry" />
        </mxCell>
        <mxCell id="9vagJ5xhhECEFdIfXfnk-29" value="Order" style="rounded=1;whiteSpace=wrap;html=1;fillColor=#dae8fc;strokeColor=#6c8ebf;" parent="1" vertex="1">
          <mxGeometry x="910" y="296" width="80" height="30" as="geometry" />
        </mxCell>
        <mxCell id="9vagJ5xhhECEFdIfXfnk-31" style="edgeStyle=orthogonalEdgeStyle;rounded=0;orthogonalLoop=1;jettySize=auto;html=1;" parent="1" source="9vagJ5xhhECEFdIfXfnk-30" target="9vagJ5xhhECEFdIfXfnk-29" edge="1">
          <mxGeometry relative="1" as="geometry" />
        </mxCell>
        <mxCell id="9vagJ5xhhECEFdIfXfnk-30" value="" style="shape=image;verticalLabelPosition=bottom;labelBackgroundColor=default;verticalAlign=top;aspect=fixed;imageAspect=0;image=https://rupeezy.in/blogs/wp-content/uploads/2019/08/order.png;" parent="1" vertex="1">
          <mxGeometry x="800" y="282" width="54.93" height="58" as="geometry" />
        </mxCell>
        <mxCell id="9vagJ5xhhECEFdIfXfnk-34" style="edgeStyle=orthogonalEdgeStyle;rounded=0;orthogonalLoop=1;jettySize=auto;html=1;" parent="1" source="9vagJ5xhhECEFdIfXfnk-32" target="9vagJ5xhhECEFdIfXfnk-33" edge="1">
          <mxGeometry relative="1" as="geometry" />
        </mxCell>
        <mxCell id="9vagJ5xhhECEFdIfXfnk-32" value="" style="shape=image;verticalLabelPosition=bottom;labelBackgroundColor=default;verticalAlign=top;aspect=fixed;imageAspect=0;image=https://domf5oio6qrcr.cloudfront.net/medialibrary/8371/bigstock-Hamburger-And-French-Fries-263887.jpg;" parent="1" vertex="1">
          <mxGeometry x="802" y="220" width="53.33" height="40" as="geometry" />
        </mxCell>
        <mxCell id="9vagJ5xhhECEFdIfXfnk-33" value="Product" style="rounded=1;whiteSpace=wrap;html=1;fillColor=#dae8fc;strokeColor=#6c8ebf;" parent="1" vertex="1">
          <mxGeometry x="910" y="225" width="80" height="30" as="geometry" />
        </mxCell>
        <mxCell id="9vagJ5xhhECEFdIfXfnk-35" value="OrderItem" style="rounded=1;whiteSpace=wrap;html=1;fillColor=#dae8fc;strokeColor=#6c8ebf;" parent="1" vertex="1">
          <mxGeometry x="960" y="348" width="80" height="30" as="geometry" />
        </mxCell>
        <mxCell id="9vagJ5xhhECEFdIfXfnk-40" value="" style="shape=image;verticalLabelPosition=bottom;labelBackgroundColor=default;verticalAlign=top;aspect=fixed;imageAspect=0;image=https://blogger.googleusercontent.com/img/b/R29vZ2xl/AVvXsEjn80sKWhS2xxwpZte1hCrjBOLWbS4TLz_WBw3mWX01DE0hrEqL-oq_POZTVObNKt2_ehCbD8vPeMjHQ5SD9d2T2vcOCeuTXaRzTZrm3N1oaUW5XqwATKcAlGA4Wf7QnvLcwXFwYuH5VKld/s226/wisdomchart.png;" parent="1" vertex="1">
          <mxGeometry x="600" y="250" width="138.5" height="80.89" as="geometry" />
        </mxCell>
        <mxCell id="9vagJ5xhhECEFdIfXfnk-41" value="Model Thinking" style="text;html=1;align=center;verticalAlign=middle;whiteSpace=wrap;rounded=0;fontSize=14;" parent="1" vertex="1">
          <mxGeometry x="628.5" y="378" width="100" height="30" as="geometry" />
        </mxCell>
        <mxCell id="9vagJ5xhhECEFdIfXfnk-42" value="Model in Code" style="text;html=1;align=center;verticalAlign=middle;whiteSpace=wrap;rounded=0;fontSize=14;" parent="1" vertex="1">
          <mxGeometry x="840" y="378" width="100" height="30" as="geometry" />
        </mxCell>
        <mxCell id="9vagJ5xhhECEFdIfXfnk-43" value="" style="rounded=0;whiteSpace=wrap;html=1;fillColor=#f5f5f5;fontColor=#333333;strokeColor=#666666;" parent="1" vertex="1">
          <mxGeometry x="80" y="460" width="480" height="280" as="geometry" />
        </mxCell>
        <mxCell id="9vagJ5xhhECEFdIfXfnk-58" value="③&amp;nbsp;Identify the Boundaries of the Model" style="text;html=1;align=center;verticalAlign=middle;whiteSpace=wrap;rounded=0;fontSize=14;fontStyle=1" parent="1" vertex="1">
          <mxGeometry x="200" y="460" width="270" height="30" as="geometry" />
        </mxCell>
        <mxCell id="9vagJ5xhhECEFdIfXfnk-59" value="Product" style="rounded=1;whiteSpace=wrap;html=1;fillColor=#dae8fc;strokeColor=#6c8ebf;" parent="1" vertex="1">
          <mxGeometry x="316.5" y="650" width="60" height="30" as="geometry" />
        </mxCell>
        <mxCell id="9vagJ5xhhECEFdIfXfnk-60" value="Order" style="rounded=1;whiteSpace=wrap;html=1;fillColor=#dae8fc;strokeColor=#6c8ebf;" parent="1" vertex="1">
          <mxGeometry x="442.5" y="630" width="60" height="30" as="geometry" />
        </mxCell>
        <mxCell id="9vagJ5xhhECEFdIfXfnk-62" value="OrderItem" style="rounded=1;whiteSpace=wrap;html=1;fillColor=#dae8fc;strokeColor=#6c8ebf;" parent="1" vertex="1">
          <mxGeometry x="482.5" y="650" width="60" height="30" as="geometry" />
        </mxCell>
        <mxCell id="9vagJ5xhhECEFdIfXfnk-63" value="User" style="rounded=1;whiteSpace=wrap;html=1;fillColor=#dae8fc;strokeColor=#6c8ebf;" parent="1" vertex="1">
          <mxGeometry x="417" y="535" width="60" height="30" as="geometry" />
        </mxCell>
        <mxCell id="9vagJ5xhhECEFdIfXfnk-64" value="Payment" style="rounded=1;whiteSpace=wrap;html=1;fillColor=#dae8fc;strokeColor=#6c8ebf;" parent="1" vertex="1">
          <mxGeometry x="492.5" y="630" width="60" height="30" as="geometry" />
        </mxCell>
        <mxCell id="9vagJ5xhhECEFdIfXfnk-65" value="Brand" style="rounded=1;whiteSpace=wrap;html=1;fillColor=#dae8fc;strokeColor=#6c8ebf;" parent="1" vertex="1">
          <mxGeometry x="292.5" y="630" width="60" height="30" as="geometry" />
        </mxCell>
        <mxCell id="9vagJ5xhhECEFdIfXfnk-68" value="" style="ellipse;whiteSpace=wrap;html=1;fillColor=none;dashed=1;" parent="1" vertex="1">
          <mxGeometry x="387" y="505" width="120" height="75" as="geometry" />
        </mxCell>
        <mxCell id="9vagJ5xhhECEFdIfXfnk-74" style="edgeStyle=orthogonalEdgeStyle;rounded=0;orthogonalLoop=1;jettySize=auto;html=1;entryX=0;entryY=0.5;entryDx=0;entryDy=0;" parent="1" source="9vagJ5xhhECEFdIfXfnk-69" target="9vagJ5xhhECEFdIfXfnk-68" edge="1">
          <mxGeometry relative="1" as="geometry" />
        </mxCell>
        <mxCell id="9vagJ5xhhECEFdIfXfnk-69" value="" style="ellipse;whiteSpace=wrap;html=1;fillColor=none;dashed=1;" parent="1" vertex="1">
          <mxGeometry x="275" y="610" width="120" height="70" as="geometry" />
        </mxCell>
        <mxCell id="9vagJ5xhhECEFdIfXfnk-70" value="" style="ellipse;whiteSpace=wrap;html=1;fillColor=none;dashed=1;" parent="1" vertex="1">
          <mxGeometry x="432.5" y="605" width="127.5" height="85" as="geometry" />
        </mxCell>
        <mxCell id="9vagJ5xhhECEFdIfXfnk-76" style="edgeStyle=orthogonalEdgeStyle;rounded=0;orthogonalLoop=1;jettySize=auto;html=1;entryX=1;entryY=0.5;entryDx=0;entryDy=0;" parent="1" source="9vagJ5xhhECEFdIfXfnk-70" target="9vagJ5xhhECEFdIfXfnk-68" edge="1">
          <mxGeometry relative="1" as="geometry">
            <Array as="points">
              <mxPoint x="530" y="543" />
            </Array>
          </mxGeometry>
        </mxCell>
        <mxCell id="9vagJ5xhhECEFdIfXfnk-85" style="edgeStyle=orthogonalEdgeStyle;rounded=0;orthogonalLoop=1;jettySize=auto;html=1;entryX=0.5;entryY=1;entryDx=0;entryDy=0;" parent="1" source="9vagJ5xhhECEFdIfXfnk-70" target="9vagJ5xhhECEFdIfXfnk-69" edge="1">
          <mxGeometry relative="1" as="geometry">
            <Array as="points">
              <mxPoint x="496" y="700" />
              <mxPoint x="335" y="700" />
            </Array>
          </mxGeometry>
        </mxCell>
        <mxCell id="9vagJ5xhhECEFdIfXfnk-71" value="User Context" style="text;html=1;align=center;verticalAlign=middle;whiteSpace=wrap;rounded=0;fontSize=10;" parent="1" vertex="1">
          <mxGeometry x="402.5" y="505" width="90" height="30" as="geometry" />
        </mxCell>
        <mxCell id="9vagJ5xhhECEFdIfXfnk-72" value="Product Context" style="text;html=1;align=center;verticalAlign=middle;whiteSpace=wrap;rounded=0;fontSize=10;" parent="1" vertex="1">
          <mxGeometry x="290" y="610" width="90" height="30" as="geometry" />
        </mxCell>
        <mxCell id="9vagJ5xhhECEFdIfXfnk-73" value="Order Context" style="text;html=1;align=center;verticalAlign=middle;whiteSpace=wrap;rounded=0;fontSize=10;" parent="1" vertex="1">
          <mxGeometry x="447.5" y="605" width="90" height="30" as="geometry" />
        </mxCell>
        <mxCell id="9vagJ5xhhECEFdIfXfnk-77" value="Order" style="rounded=1;whiteSpace=wrap;html=1;fillColor=#dae8fc;strokeColor=#6c8ebf;" parent="1" vertex="1">
          <mxGeometry x="97.5" y="555" width="60" height="30" as="geometry" />
        </mxCell>
        <mxCell id="9vagJ5xhhECEFdIfXfnk-78" value="OrderItem" style="rounded=1;whiteSpace=wrap;html=1;fillColor=#dae8fc;strokeColor=#6c8ebf;" parent="1" vertex="1">
          <mxGeometry x="137.5" y="575" width="60" height="30" as="geometry" />
        </mxCell>
        <mxCell id="9vagJ5xhhECEFdIfXfnk-79" value="Payment" style="rounded=1;whiteSpace=wrap;html=1;fillColor=#dae8fc;strokeColor=#6c8ebf;" parent="1" vertex="1">
          <mxGeometry x="167.5" y="555" width="60" height="30" as="geometry" />
        </mxCell>
        <mxCell id="9vagJ5xhhECEFdIfXfnk-80" value="Product" style="rounded=1;whiteSpace=wrap;html=1;fillColor=#dae8fc;strokeColor=#6c8ebf;" parent="1" vertex="1">
          <mxGeometry x="137.5" y="630" width="60" height="30" as="geometry" />
        </mxCell>
        <mxCell id="9vagJ5xhhECEFdIfXfnk-81" value="Brand" style="rounded=1;whiteSpace=wrap;html=1;fillColor=#dae8fc;strokeColor=#6c8ebf;" parent="1" vertex="1">
          <mxGeometry x="98.5" y="595" width="60" height="30" as="geometry" />
        </mxCell>
        <mxCell id="9vagJ5xhhECEFdIfXfnk-83" value="User" style="rounded=1;whiteSpace=wrap;html=1;fillColor=#dae8fc;strokeColor=#6c8ebf;" parent="1" vertex="1">
          <mxGeometry x="130" y="525" width="60" height="30" as="geometry" />
        </mxCell>
        <mxCell id="9vagJ5xhhECEFdIfXfnk-87" value="" style="shape=flexArrow;endArrow=classic;html=1;rounded=0;" parent="1" edge="1">
          <mxGeometry width="50" height="50" relative="1" as="geometry">
            <mxPoint x="212.5" y="599.58" as="sourcePoint" />
            <mxPoint x="292.5" y="599.58" as="targetPoint" />
          </mxGeometry>
        </mxCell>
        <mxCell id="9vagJ5xhhECEFdIfXfnk-88" value="" style="rounded=0;whiteSpace=wrap;html=1;fillColor=#f5f5f5;fontColor=#333333;strokeColor=#666666;" parent="1" vertex="1">
          <mxGeometry x="580" y="462" width="480" height="280" as="geometry" />
        </mxCell>
        <mxCell id="9vagJ5xhhECEFdIfXfnk-89" value="④ Identify the Aggregation" style="text;html=1;align=center;verticalAlign=middle;whiteSpace=wrap;rounded=0;fontSize=14;fontStyle=1" parent="1" vertex="1">
          <mxGeometry x="704.25" y="462" width="200" height="30" as="geometry" />
        </mxCell>
        <mxCell id="9vagJ5xhhECEFdIfXfnk-114" style="edgeStyle=orthogonalEdgeStyle;rounded=0;orthogonalLoop=1;jettySize=auto;html=1;entryX=0;entryY=0.5;entryDx=0;entryDy=0;endArrow=none;endFill=0;" parent="1" source="9vagJ5xhhECEFdIfXfnk-105" target="9vagJ5xhhECEFdIfXfnk-110" edge="1">
          <mxGeometry relative="1" as="geometry">
            <Array as="points">
              <mxPoint x="630" y="520" />
            </Array>
          </mxGeometry>
        </mxCell>
        <mxCell id="9vagJ5xhhECEFdIfXfnk-115" style="edgeStyle=orthogonalEdgeStyle;rounded=0;orthogonalLoop=1;jettySize=auto;html=1;endArrow=none;endFill=0;" parent="1" source="9vagJ5xhhECEFdIfXfnk-105" target="9vagJ5xhhECEFdIfXfnk-106" edge="1">
          <mxGeometry relative="1" as="geometry" />
        </mxCell>
        <mxCell id="9vagJ5xhhECEFdIfXfnk-116" style="edgeStyle=orthogonalEdgeStyle;rounded=0;orthogonalLoop=1;jettySize=auto;html=1;entryX=0.5;entryY=0;entryDx=0;entryDy=0;endArrow=none;endFill=0;" parent="1" source="9vagJ5xhhECEFdIfXfnk-105" target="9vagJ5xhhECEFdIfXfnk-108" edge="1">
          <mxGeometry relative="1" as="geometry">
            <Array as="points">
              <mxPoint x="620" y="590" />
              <mxPoint x="620" y="590" />
            </Array>
          </mxGeometry>
        </mxCell>
        <mxCell id="9vagJ5xhhECEFdIfXfnk-105" value="Order" style="rounded=1;whiteSpace=wrap;html=1;fillColor=#dae8fc;strokeColor=#6c8ebf;" parent="1" vertex="1">
          <mxGeometry x="598.5" y="545" width="60" height="30" as="geometry" />
        </mxCell>
        <mxCell id="9vagJ5xhhECEFdIfXfnk-106" value="OrderLine" style="rounded=1;whiteSpace=wrap;html=1;fillColor=#dae8fc;strokeColor=#6c8ebf;" parent="1" vertex="1">
          <mxGeometry x="690" y="565" width="60" height="30" as="geometry" />
        </mxCell>
        <mxCell id="9vagJ5xhhECEFdIfXfnk-121" style="edgeStyle=orthogonalEdgeStyle;rounded=0;orthogonalLoop=1;jettySize=auto;html=1;endArrow=none;endFill=0;" parent="1" source="9vagJ5xhhECEFdIfXfnk-107" target="9vagJ5xhhECEFdIfXfnk-105" edge="1">
          <mxGeometry relative="1" as="geometry">
            <Array as="points">
              <mxPoint x="720" y="600" />
              <mxPoint x="629" y="600" />
            </Array>
          </mxGeometry>
        </mxCell>
        <mxCell id="9vagJ5xhhECEFdIfXfnk-107" value="Payment" style="rounded=1;whiteSpace=wrap;html=1;fillColor=#dae8fc;strokeColor=#6c8ebf;" parent="1" vertex="1">
          <mxGeometry x="690" y="610" width="60" height="30" as="geometry" />
        </mxCell>
        <mxCell id="9vagJ5xhhECEFdIfXfnk-117" style="edgeStyle=orthogonalEdgeStyle;rounded=0;orthogonalLoop=1;jettySize=auto;html=1;entryX=0;entryY=0.5;entryDx=0;entryDy=0;endArrow=none;endFill=0;" parent="1" source="9vagJ5xhhECEFdIfXfnk-108" target="9vagJ5xhhECEFdIfXfnk-109" edge="1">
          <mxGeometry relative="1" as="geometry" />
        </mxCell>
        <mxCell id="9vagJ5xhhECEFdIfXfnk-108" value="Product" style="rounded=1;whiteSpace=wrap;html=1;fillColor=#dae8fc;strokeColor=#6c8ebf;" parent="1" vertex="1">
          <mxGeometry x="590" y="605" width="60" height="30" as="geometry" />
        </mxCell>
        <mxCell id="9vagJ5xhhECEFdIfXfnk-109" value="Brand" style="rounded=1;whiteSpace=wrap;html=1;fillColor=#dae8fc;strokeColor=#6c8ebf;" parent="1" vertex="1">
          <mxGeometry x="639.25" y="650" width="60" height="30" as="geometry" />
        </mxCell>
        <mxCell id="9vagJ5xhhECEFdIfXfnk-110" value="User" style="rounded=1;whiteSpace=wrap;html=1;fillColor=#dae8fc;strokeColor=#6c8ebf;" parent="1" vertex="1">
          <mxGeometry x="670" y="505" width="60" height="30" as="geometry" />
        </mxCell>
        <mxCell id="9vagJ5xhhECEFdIfXfnk-119" value="" style="shape=flexArrow;endArrow=classic;html=1;rounded=0;" parent="1" edge="1">
          <mxGeometry width="50" height="50" relative="1" as="geometry">
            <mxPoint x="774.93" y="595" as="sourcePoint" />
            <mxPoint x="854.93" y="595" as="targetPoint" />
          </mxGeometry>
        </mxCell>
        <mxCell id="9vagJ5xhhECEFdIfXfnk-123" value="Product" style="rounded=1;whiteSpace=wrap;html=1;fillColor=#dae8fc;strokeColor=#6c8ebf;" parent="1" vertex="1">
          <mxGeometry x="990" y="505" width="60" height="30" as="geometry" />
        </mxCell>
        <mxCell id="9vagJ5xhhECEFdIfXfnk-124" value="Brand" style="rounded=1;whiteSpace=wrap;html=1;fillColor=#dae8fc;strokeColor=#6c8ebf;" parent="1" vertex="1">
          <mxGeometry x="920" y="505" width="60" height="30" as="geometry" />
        </mxCell>
        <mxCell id="9vagJ5xhhECEFdIfXfnk-132" style="edgeStyle=orthogonalEdgeStyle;rounded=0;orthogonalLoop=1;jettySize=auto;html=1;dashed=1;" parent="1" source="9vagJ5xhhECEFdIfXfnk-125" target="9vagJ5xhhECEFdIfXfnk-128" edge="1">
          <mxGeometry relative="1" as="geometry" />
        </mxCell>
        <mxCell id="9vagJ5xhhECEFdIfXfnk-125" value="Order" style="rounded=1;whiteSpace=wrap;html=1;fillColor=#dae8fc;strokeColor=#6c8ebf;" parent="1" vertex="1">
          <mxGeometry x="900" y="580" width="60" height="30" as="geometry" />
        </mxCell>
        <mxCell id="9vagJ5xhhECEFdIfXfnk-135" style="edgeStyle=orthogonalEdgeStyle;rounded=0;orthogonalLoop=1;jettySize=auto;html=1;dashed=1;" parent="1" source="9vagJ5xhhECEFdIfXfnk-127" target="9vagJ5xhhECEFdIfXfnk-125" edge="1">
          <mxGeometry relative="1" as="geometry" />
        </mxCell>
        <mxCell id="9vagJ5xhhECEFdIfXfnk-127" value="Payment" style="rounded=1;whiteSpace=wrap;html=1;fillColor=#dae8fc;strokeColor=#6c8ebf;" parent="1" vertex="1">
          <mxGeometry x="900" y="650" width="60" height="30" as="geometry" />
        </mxCell>
        <mxCell id="9vagJ5xhhECEFdIfXfnk-128" value="User" style="rounded=1;whiteSpace=wrap;html=1;fillColor=#dae8fc;strokeColor=#6c8ebf;" parent="1" vertex="1">
          <mxGeometry x="850" y="505" width="60" height="30" as="geometry" />
        </mxCell>
        <mxCell id="9vagJ5xhhECEFdIfXfnk-131" style="edgeStyle=orthogonalEdgeStyle;rounded=0;orthogonalLoop=1;jettySize=auto;html=1;endArrow=diamondThin;endFill=1;" parent="1" source="9vagJ5xhhECEFdIfXfnk-129" target="9vagJ5xhhECEFdIfXfnk-125" edge="1">
          <mxGeometry relative="1" as="geometry" />
        </mxCell>
        <mxCell id="9vagJ5xhhECEFdIfXfnk-136" value="" style="rounded=1;whiteSpace=wrap;html=1;strokeColor=#d6b656;fillColor=none;" parent="1" vertex="1">
          <mxGeometry x="894" y="565" width="160" height="60" as="geometry" />
        </mxCell>
        <mxCell id="9vagJ5xhhECEFdIfXfnk-133" style="edgeStyle=orthogonalEdgeStyle;rounded=0;orthogonalLoop=1;jettySize=auto;html=1;dashed=1;" parent="1" source="9vagJ5xhhECEFdIfXfnk-129" target="9vagJ5xhhECEFdIfXfnk-123" edge="1">
          <mxGeometry relative="1" as="geometry" />
        </mxCell>
        <mxCell id="9vagJ5xhhECEFdIfXfnk-134" style="edgeStyle=orthogonalEdgeStyle;rounded=0;orthogonalLoop=1;jettySize=auto;html=1;dashed=1;" parent="1" source="9vagJ5xhhECEFdIfXfnk-129" target="9vagJ5xhhECEFdIfXfnk-124" edge="1">
          <mxGeometry relative="1" as="geometry">
            <Array as="points">
              <mxPoint x="1010" y="570" />
              <mxPoint x="960" y="570" />
            </Array>
          </mxGeometry>
        </mxCell>
        <mxCell id="9vagJ5xhhECEFdIfXfnk-129" value="OrderItem" style="rounded=1;whiteSpace=wrap;html=1;fillColor=#d5e8d4;strokeColor=#82b366;" parent="1" vertex="1">
          <mxGeometry x="990" y="580" width="60" height="30" as="geometry" />
        </mxCell>
        <mxCell id="9vagJ5xhhECEFdIfXfnk-138" value="1.&amp;nbsp;Use aggregates to ensure business consistency.&lt;div&gt;2. Object decoupling.&lt;br&gt;&lt;/div&gt;" style="text;html=1;whiteSpace=wrap;overflow=hidden;rounded=0;" parent="1" vertex="1">
          <mxGeometry x="730" y="700" width="295.75" height="58" as="geometry" />
        </mxCell>
        <mxCell id="9vagJ5xhhECEFdIfXfnk-139" value="" style="rounded=0;whiteSpace=wrap;html=1;fillColor=#f5f5f5;fontColor=#333333;strokeColor=#666666;" parent="1" vertex="1">
          <mxGeometry x="80" y="760" width="480" height="280" as="geometry" />
        </mxCell>
        <mxCell id="9vagJ5xhhECEFdIfXfnk-140" value="⑤ Distinguish between entities and value objects" style="text;html=1;align=center;verticalAlign=middle;whiteSpace=wrap;rounded=0;fontSize=14;fontStyle=1" parent="1" vertex="1">
          <mxGeometry x="156.25" y="759" width="357.5" height="30" as="geometry" />
        </mxCell>
        <mxCell id="9vagJ5xhhECEFdIfXfnk-169" value="Order" style="swimlane;fontStyle=1;align=center;verticalAlign=middle;childLayout=stackLayout;horizontal=1;startSize=29;horizontalStack=0;resizeParent=1;resizeParentMax=0;resizeLast=0;collapsible=0;marginBottom=0;html=1;whiteSpace=wrap;" parent="1" vertex="1">
          <mxGeometry x="104.5" y="790" width="140" height="129" as="geometry" />
        </mxCell>
        <mxCell id="9vagJ5xhhECEFdIfXfnk-170" value="&amp;lt;&amp;lt;aggregate root&amp;gt;&amp;gt;" style="text;html=1;strokeColor=none;fillColor=none;align=center;verticalAlign=middle;spacingLeft=4;spacingRight=4;overflow=hidden;rotatable=0;points=[[0,0.5],[1,0.5]];portConstraint=eastwest;whiteSpace=wrap;" parent="9vagJ5xhhECEFdIfXfnk-169" vertex="1">
          <mxGeometry y="29" width="140" height="25" as="geometry" />
        </mxCell>
        <mxCell id="9vagJ5xhhECEFdIfXfnk-171" value="id" style="text;html=1;strokeColor=none;fillColor=none;align=left;verticalAlign=middle;spacingLeft=4;spacingRight=4;overflow=hidden;rotatable=0;points=[[0,0.5],[1,0.5]];portConstraint=eastwest;whiteSpace=wrap;" parent="9vagJ5xhhECEFdIfXfnk-169" vertex="1">
          <mxGeometry y="54" width="140" height="25" as="geometry" />
        </mxCell>
        <mxCell id="9vagJ5xhhECEFdIfXfnk-173" value="shipping_address" style="text;html=1;strokeColor=none;fillColor=none;align=left;verticalAlign=middle;spacingLeft=4;spacingRight=4;overflow=hidden;rotatable=0;points=[[0,0.5],[1,0.5]];portConstraint=eastwest;whiteSpace=wrap;" parent="9vagJ5xhhECEFdIfXfnk-169" vertex="1">
          <mxGeometry y="79" width="140" height="25" as="geometry" />
        </mxCell>
        <mxCell id="9vagJ5xhhECEFdIfXfnk-172" value="lines" style="text;html=1;strokeColor=none;fillColor=none;align=left;verticalAlign=middle;spacingLeft=4;spacingRight=4;overflow=hidden;rotatable=0;points=[[0,0.5],[1,0.5]];portConstraint=eastwest;whiteSpace=wrap;" parent="9vagJ5xhhECEFdIfXfnk-169" vertex="1">
          <mxGeometry y="104" width="140" height="25" as="geometry" />
        </mxCell>
        <mxCell id="9vagJ5xhhECEFdIfXfnk-179" style="edgeStyle=orthogonalEdgeStyle;rounded=0;orthogonalLoop=1;jettySize=auto;html=1;entryX=1;entryY=0.5;entryDx=0;entryDy=0;endArrow=diamondThin;endFill=1;" parent="1" source="9vagJ5xhhECEFdIfXfnk-174" target="9vagJ5xhhECEFdIfXfnk-171" edge="1">
          <mxGeometry relative="1" as="geometry" />
        </mxCell>
        <mxCell id="9vagJ5xhhECEFdIfXfnk-174" value="OrderLine" style="swimlane;fontStyle=1;align=center;verticalAlign=middle;childLayout=stackLayout;horizontal=1;startSize=29;horizontalStack=0;resizeParent=1;resizeParentMax=0;resizeLast=0;collapsible=0;marginBottom=0;html=1;whiteSpace=wrap;" parent="1" vertex="1">
          <mxGeometry x="330" y="792" width="140" height="129" as="geometry" />
        </mxCell>
        <mxCell id="9vagJ5xhhECEFdIfXfnk-175" value="&amp;lt;&amp;lt;entity&amp;gt;&amp;gt;" style="text;html=1;strokeColor=none;fillColor=none;align=center;verticalAlign=middle;spacingLeft=4;spacingRight=4;overflow=hidden;rotatable=0;points=[[0,0.5],[1,0.5]];portConstraint=eastwest;whiteSpace=wrap;" parent="9vagJ5xhhECEFdIfXfnk-174" vertex="1">
          <mxGeometry y="29" width="140" height="25" as="geometry" />
        </mxCell>
        <mxCell id="9vagJ5xhhECEFdIfXfnk-176" value="id" style="text;html=1;strokeColor=none;fillColor=none;align=left;verticalAlign=middle;spacingLeft=4;spacingRight=4;overflow=hidden;rotatable=0;points=[[0,0.5],[1,0.5]];portConstraint=eastwest;whiteSpace=wrap;" parent="9vagJ5xhhECEFdIfXfnk-174" vertex="1">
          <mxGeometry y="54" width="140" height="25" as="geometry" />
        </mxCell>
        <mxCell id="9vagJ5xhhECEFdIfXfnk-177" value="price" style="text;html=1;strokeColor=none;fillColor=none;align=left;verticalAlign=middle;spacingLeft=4;spacingRight=4;overflow=hidden;rotatable=0;points=[[0,0.5],[1,0.5]];portConstraint=eastwest;whiteSpace=wrap;" parent="9vagJ5xhhECEFdIfXfnk-174" vertex="1">
          <mxGeometry y="79" width="140" height="25" as="geometry" />
        </mxCell>
        <mxCell id="9vagJ5xhhECEFdIfXfnk-178" value="product_id" style="text;html=1;strokeColor=none;fillColor=none;align=left;verticalAlign=middle;spacingLeft=4;spacingRight=4;overflow=hidden;rotatable=0;points=[[0,0.5],[1,0.5]];portConstraint=eastwest;whiteSpace=wrap;" parent="9vagJ5xhhECEFdIfXfnk-174" vertex="1">
          <mxGeometry y="104" width="140" height="25" as="geometry" />
        </mxCell>
        <mxCell id="9vagJ5xhhECEFdIfXfnk-180" value="Address" style="swimlane;fontStyle=1;align=center;verticalAlign=middle;childLayout=stackLayout;horizontal=1;startSize=29;horizontalStack=0;resizeParent=1;resizeParentMax=0;resizeLast=0;collapsible=0;marginBottom=0;html=1;whiteSpace=wrap;" parent="1" vertex="1">
          <mxGeometry x="210" y="932" width="107.12" height="104" as="geometry" />
        </mxCell>
        <mxCell id="9vagJ5xhhECEFdIfXfnk-181" value="&amp;lt;&amp;lt;value object&amp;gt;&amp;gt;" style="text;html=1;strokeColor=none;fillColor=none;align=left;verticalAlign=middle;spacingLeft=4;spacingRight=4;overflow=hidden;rotatable=0;points=[[0,0.5],[1,0.5]];portConstraint=eastwest;whiteSpace=wrap;" parent="9vagJ5xhhECEFdIfXfnk-180" vertex="1">
          <mxGeometry y="29" width="107.12" height="25" as="geometry" />
        </mxCell>
        <mxCell id="9vagJ5xhhECEFdIfXfnk-183" value="region" style="text;html=1;strokeColor=none;fillColor=none;align=left;verticalAlign=middle;spacingLeft=4;spacingRight=4;overflow=hidden;rotatable=0;points=[[0,0.5],[1,0.5]];portConstraint=eastwest;whiteSpace=wrap;" parent="9vagJ5xhhECEFdIfXfnk-180" vertex="1">
          <mxGeometry y="54" width="107.12" height="25" as="geometry" />
        </mxCell>
        <mxCell id="9vagJ5xhhECEFdIfXfnk-184" value="province" style="text;html=1;strokeColor=none;fillColor=none;align=left;verticalAlign=middle;spacingLeft=4;spacingRight=4;overflow=hidden;rotatable=0;points=[[0,0.5],[1,0.5]];portConstraint=eastwest;whiteSpace=wrap;" parent="9vagJ5xhhECEFdIfXfnk-180" vertex="1">
          <mxGeometry y="79" width="107.12" height="25" as="geometry" />
        </mxCell>
        <mxCell id="9vagJ5xhhECEFdIfXfnk-185" style="edgeStyle=orthogonalEdgeStyle;rounded=0;orthogonalLoop=1;jettySize=auto;html=1;exitX=1;exitY=0.5;exitDx=0;exitDy=0;" parent="1" source="9vagJ5xhhECEFdIfXfnk-173" target="9vagJ5xhhECEFdIfXfnk-180" edge="1">
          <mxGeometry relative="1" as="geometry" />
        </mxCell>
        <mxCell id="9vagJ5xhhECEFdIfXfnk-186" value="1. A&lt;span style=&quot;&quot;&gt;ggregate Root: Lead of Objects.&lt;/span&gt;&lt;div&gt;&lt;span style=&quot;&quot;&gt;2. Entity: Normal Object with ID.&lt;/span&gt;&lt;/div&gt;&lt;div style=&quot;&quot;&gt;3. Value Object: Object without ID.&lt;/div&gt;" style="text;html=1;whiteSpace=wrap;overflow=hidden;rounded=0;align=left;" parent="1" vertex="1">
          <mxGeometry x="345" y="955" width="192.5" height="58" as="geometry" />
        </mxCell>
        <mxCell id="9vagJ5xhhECEFdIfXfnk-187" value="" style="rounded=0;whiteSpace=wrap;html=1;fillColor=#f5f5f5;fontColor=#333333;strokeColor=#666666;" parent="1" vertex="1">
          <mxGeometry x="580" y="760" width="480" height="280" as="geometry" />
        </mxCell>
        <mxCell id="9vagJ5xhhECEFdIfXfnk-188" value="⑥ Manipulate Models" style="text;html=1;align=center;verticalAlign=middle;whiteSpace=wrap;rounded=0;fontSize=14;fontStyle=1" parent="1" vertex="1">
          <mxGeometry x="681.25" y="762" width="237.5" height="30" as="geometry" />
        </mxCell>
        <mxCell id="9vagJ5xhhECEFdIfXfnk-223" value="Order" style="rounded=1;whiteSpace=wrap;html=1;fillColor=#dae8fc;strokeColor=#6c8ebf;" parent="1" vertex="1">
          <mxGeometry x="906" y="864" width="60" height="30" as="geometry" />
        </mxCell>
        <mxCell id="9vagJ5xhhECEFdIfXfnk-226" value="" style="rounded=1;whiteSpace=wrap;html=1;strokeColor=#d6b656;fillColor=none;" parent="1" vertex="1">
          <mxGeometry x="880" y="859" width="160" height="60" as="geometry" />
        </mxCell>
        <mxCell id="9vagJ5xhhECEFdIfXfnk-224" value="OrderItem" style="rounded=1;whiteSpace=wrap;html=1;fillColor=#dae8fc;strokeColor=#6c8ebf;" parent="1" vertex="1">
          <mxGeometry x="946" y="884" width="60" height="30" as="geometry" />
        </mxCell>
        <mxCell id="9vagJ5xhhECEFdIfXfnk-232" style="rounded=0;orthogonalLoop=1;jettySize=auto;html=1;entryX=0;entryY=0.25;entryDx=0;entryDy=0;" parent="1" source="9vagJ5xhhECEFdIfXfnk-229" target="9vagJ5xhhECEFdIfXfnk-226" edge="1">
          <mxGeometry relative="1" as="geometry" />
        </mxCell>
        <mxCell id="9vagJ5xhhECEFdIfXfnk-229" value="Factory" style="ellipse;whiteSpace=wrap;html=1;fontStyle=1" parent="1" vertex="1">
          <mxGeometry x="620" y="803" width="91.5" height="61" as="geometry" />
        </mxCell>
        <mxCell id="9vagJ5xhhECEFdIfXfnk-233" style="rounded=0;orthogonalLoop=1;jettySize=auto;html=1;entryX=0;entryY=0.5;entryDx=0;entryDy=0;" parent="1" source="9vagJ5xhhECEFdIfXfnk-230" target="9vagJ5xhhECEFdIfXfnk-226" edge="1">
          <mxGeometry relative="1" as="geometry" />
        </mxCell>
        <mxCell id="9vagJ5xhhECEFdIfXfnk-230" value="Service" style="ellipse;whiteSpace=wrap;html=1;fontStyle=1" parent="1" vertex="1">
          <mxGeometry x="620" y="880" width="91.5" height="61" as="geometry" />
        </mxCell>
        <mxCell id="9vagJ5xhhECEFdIfXfnk-234" style="rounded=0;orthogonalLoop=1;jettySize=auto;html=1;entryX=0;entryY=0.75;entryDx=0;entryDy=0;" parent="1" source="9vagJ5xhhECEFdIfXfnk-231" target="9vagJ5xhhECEFdIfXfnk-226" edge="1">
          <mxGeometry relative="1" as="geometry" />
        </mxCell>
        <mxCell id="9vagJ5xhhECEFdIfXfnk-231" value="&lt;span style=&quot;font-weight: 700;&quot;&gt;&lt;font style=&quot;font-size: 12px;&quot;&gt;Repository&lt;/font&gt;&lt;/span&gt;" style="ellipse;whiteSpace=wrap;html=1;" parent="1" vertex="1">
          <mxGeometry x="620" y="960" width="91.5" height="61" as="geometry" />
        </mxCell>
        <mxCell id="9vagJ5xhhECEFdIfXfnk-235" value="Create Object" style="text;html=1;whiteSpace=wrap;overflow=hidden;rounded=0;" parent="1" vertex="1">
          <mxGeometry x="750" y="821.5" width="91.34" height="24" as="geometry" />
        </mxCell>
        <mxCell id="9vagJ5xhhECEFdIfXfnk-236" value="Process Business Flow" style="text;html=1;whiteSpace=wrap;overflow=hidden;rounded=0;" parent="1" vertex="1">
          <mxGeometry x="722.5" y="870" width="131.5" height="24" as="geometry" />
        </mxCell>
        <mxCell id="9vagJ5xhhECEFdIfXfnk-237" value="Persistence Object" style="text;html=1;whiteSpace=wrap;overflow=hidden;rounded=0;" parent="1" vertex="1">
          <mxGeometry x="738.5" y="960" width="131.5" height="24" as="geometry" />
        </mxCell>
        <mxCell id="9vagJ5xhhECEFdIfXfnk-238" value="" style="rounded=0;whiteSpace=wrap;html=1;fillColor=#f5f5f5;fontColor=#333333;strokeColor=#666666;" parent="1" vertex="1">
          <mxGeometry x="82.5" y="1070" width="480" height="280" as="geometry" />
        </mxCell>
        <mxCell id="9vagJ5xhhECEFdIfXfnk-239" value="⑦ Layering the architecture" style="text;html=1;align=center;verticalAlign=middle;whiteSpace=wrap;rounded=0;fontSize=14;fontStyle=1" parent="1" vertex="1">
          <mxGeometry x="246.5" y="1070" width="200" height="30" as="geometry" />
        </mxCell>
        <mxCell id="9vagJ5xhhECEFdIfXfnk-260" value="Admin" style="shape=umlActor;verticalLabelPosition=bottom;verticalAlign=top;html=1;outlineConnect=0;" parent="1" vertex="1">
          <mxGeometry x="127.5" y="1128" width="30" height="60" as="geometry" />
        </mxCell>
        <mxCell id="9vagJ5xhhECEFdIfXfnk-261" value="User" style="shape=umlActor;verticalLabelPosition=bottom;verticalAlign=top;html=1;outlineConnect=0;" parent="1" vertex="1">
          <mxGeometry x="122.5" y="1238" width="30" height="60" as="geometry" />
        </mxCell>
        <mxCell id="2" style="edgeStyle=orthogonalEdgeStyle;rounded=0;orthogonalLoop=1;jettySize=auto;html=1;fontSize=12;" parent="1" source="9vagJ5xhhECEFdIfXfnk-262" target="9vagJ5xhhECEFdIfXfnk-270" edge="1">
          <mxGeometry relative="1" as="geometry" />
        </mxCell>
        <mxCell id="9vagJ5xhhECEFdIfXfnk-262" value="JSP" style="rounded=0;whiteSpace=wrap;html=1;" parent="1" vertex="1">
          <mxGeometry x="197.5" y="1128" width="43" height="60" as="geometry" />
        </mxCell>
        <mxCell id="6" style="edgeStyle=none;rounded=0;orthogonalLoop=1;jettySize=auto;html=1;fontSize=12;" parent="1" source="9vagJ5xhhECEFdIfXfnk-263" target="9vagJ5xhhECEFdIfXfnk-271" edge="1">
          <mxGeometry relative="1" as="geometry" />
        </mxCell>
        <mxCell id="9vagJ5xhhECEFdIfXfnk-263" value="REST API&amp;nbsp;" style="rounded=0;whiteSpace=wrap;html=1;" parent="1" vertex="1">
          <mxGeometry x="197.5" y="1218" width="43" height="60" as="geometry" />
        </mxCell>
        <mxCell id="7" style="edgeStyle=none;rounded=0;orthogonalLoop=1;jettySize=auto;html=1;fontSize=12;" parent="1" source="9vagJ5xhhECEFdIfXfnk-265" target="9vagJ5xhhECEFdIfXfnk-271" edge="1">
          <mxGeometry relative="1" as="geometry" />
        </mxCell>
        <mxCell id="9vagJ5xhhECEFdIfXfnk-265" value="Web&lt;div&gt;Socket&lt;/div&gt;" style="rounded=0;whiteSpace=wrap;html=1;" parent="1" vertex="1">
          <mxGeometry x="197.5" y="1288" width="43" height="50" as="geometry" />
        </mxCell>
        <mxCell id="9vagJ5xhhECEFdIfXfnk-266" value="Presentation" style="text;html=1;align=center;verticalAlign=middle;whiteSpace=wrap;rounded=0;fontSize=14;fontStyle=1" parent="1" vertex="1">
          <mxGeometry x="176.25" y="1100" width="85.5" height="30" as="geometry" />
        </mxCell>
        <mxCell id="9vagJ5xhhECEFdIfXfnk-267" value="Application" style="text;html=1;align=center;verticalAlign=middle;whiteSpace=wrap;rounded=0;fontSize=14;fontStyle=1" parent="1" vertex="1">
          <mxGeometry x="272.5" y="1100" width="85.5" height="30" as="geometry" />
        </mxCell>
        <mxCell id="9vagJ5xhhECEFdIfXfnk-268" value="Domain" style="text;html=1;align=center;verticalAlign=middle;whiteSpace=wrap;rounded=0;fontSize=14;fontStyle=1" parent="1" vertex="1">
          <mxGeometry x="371" y="1100" width="85.5" height="30" as="geometry" />
        </mxCell>
        <mxCell id="9vagJ5xhhECEFdIfXfnk-269" value="Infrastucture" style="text;html=1;align=center;verticalAlign=middle;whiteSpace=wrap;rounded=0;fontSize=14;fontStyle=1" parent="1" vertex="1">
          <mxGeometry x="473.5" y="1100" width="85.5" height="30" as="geometry" />
        </mxCell>
        <mxCell id="3" style="rounded=0;orthogonalLoop=1;jettySize=auto;html=1;entryX=0;entryY=0.25;entryDx=0;entryDy=0;fontSize=12;" parent="1" source="9vagJ5xhhECEFdIfXfnk-270" target="9vagJ5xhhECEFdIfXfnk-273" edge="1">
          <mxGeometry relative="1" as="geometry" />
        </mxCell>
        <mxCell id="4" style="edgeStyle=none;rounded=0;orthogonalLoop=1;jettySize=auto;html=1;entryX=0;entryY=0.5;entryDx=0;entryDy=0;fontSize=12;" parent="1" source="9vagJ5xhhECEFdIfXfnk-270" target="9vagJ5xhhECEFdIfXfnk-276" edge="1">
          <mxGeometry relative="1" as="geometry" />
        </mxCell>
        <mxCell id="9vagJ5xhhECEFdIfXfnk-270" value="Admin&lt;div&gt;console&lt;/div&gt;" style="rounded=0;whiteSpace=wrap;html=1;" parent="1" vertex="1">
          <mxGeometry x="270" y="1128" width="80" height="60" as="geometry" />
        </mxCell>
        <mxCell id="8" style="edgeStyle=none;rounded=0;orthogonalLoop=1;jettySize=auto;html=1;entryX=0;entryY=0.75;entryDx=0;entryDy=0;fontSize=12;" parent="1" source="9vagJ5xhhECEFdIfXfnk-271" target="9vagJ5xhhECEFdIfXfnk-276" edge="1">
          <mxGeometry relative="1" as="geometry" />
        </mxCell>
        <mxCell id="9" style="edgeStyle=none;rounded=0;orthogonalLoop=1;jettySize=auto;html=1;entryX=0;entryY=0.5;entryDx=0;entryDy=0;fontSize=12;" parent="1" source="9vagJ5xhhECEFdIfXfnk-271" target="9vagJ5xhhECEFdIfXfnk-278" edge="1">
          <mxGeometry relative="1" as="geometry" />
        </mxCell>
        <mxCell id="9vagJ5xhhECEFdIfXfnk-271" value="Mall&lt;div&gt;App&lt;/div&gt;" style="rounded=0;whiteSpace=wrap;html=1;" parent="1" vertex="1">
          <mxGeometry x="270" y="1218" width="80" height="120" as="geometry" />
        </mxCell>
        <mxCell id="9vagJ5xhhECEFdIfXfnk-273" value="User&lt;div&gt;Service&lt;/div&gt;" style="rounded=0;whiteSpace=wrap;html=1;" parent="1" vertex="1">
          <mxGeometry x="381" y="1128" width="65" height="40" as="geometry" />
        </mxCell>
        <mxCell id="9vagJ5xhhECEFdIfXfnk-276" value="Product Service" style="rounded=0;whiteSpace=wrap;html=1;" parent="1" vertex="1">
          <mxGeometry x="381" y="1178" width="65" height="40" as="geometry" />
        </mxCell>
        <mxCell id="9vagJ5xhhECEFdIfXfnk-277" value="Order Service" style="rounded=0;whiteSpace=wrap;html=1;" parent="1" vertex="1">
          <mxGeometry x="381" y="1228" width="65" height="40" as="geometry" />
        </mxCell>
        <mxCell id="9vagJ5xhhECEFdIfXfnk-278" value="Payment Service" style="rounded=0;whiteSpace=wrap;html=1;" parent="1" vertex="1">
          <mxGeometry x="382.5" y="1278" width="65" height="40" as="geometry" />
        </mxCell>
        <mxCell id="9vagJ5xhhECEFdIfXfnk-282" value="……" style="rounded=0;whiteSpace=wrap;html=1;" parent="1" vertex="1">
          <mxGeometry x="382.5" y="1325" width="65" height="20" as="geometry" />
        </mxCell>
        <mxCell id="9vagJ5xhhECEFdIfXfnk-288" value="" style="rounded=0;whiteSpace=wrap;html=1;fillColor=#f5f5f5;fontColor=#333333;strokeColor=#666666;movable=0;resizable=0;rotatable=0;deletable=0;editable=0;locked=1;connectable=0;" parent="1" vertex="1">
          <mxGeometry x="580" y="1070" width="480" height="280" as="geometry" />
        </mxCell>
        <mxCell id="9vagJ5xhhECEFdIfXfnk-289" value="⑧ Working with Models" style="text;html=1;align=center;verticalAlign=middle;whiteSpace=wrap;rounded=0;fontSize=14;fontStyle=1" parent="1" vertex="1">
          <mxGeometry x="657.59" y="1070" width="287.5" height="30" as="geometry" />
        </mxCell>
        <mxCell id="17" value="DB Client" style="rounded=0;whiteSpace=wrap;html=1;" parent="1" vertex="1">
          <mxGeometry x="482.5" y="1130" width="67.5" height="60" as="geometry" />
        </mxCell>
        <mxCell id="18" value="Redis Client" style="rounded=0;whiteSpace=wrap;html=1;" parent="1" vertex="1">
          <mxGeometry x="482.5" y="1203" width="67.5" height="60" as="geometry" />
        </mxCell>
        <mxCell id="19" value="S3 Client" style="rounded=0;whiteSpace=wrap;html=1;" parent="1" vertex="1">
          <mxGeometry x="482.5" y="1278" width="67.5" height="60" as="geometry" />
        </mxCell>
        <mxCell id="20" style="edgeStyle=orthogonalEdgeStyle;rounded=0;orthogonalLoop=1;jettySize=auto;html=1;fontSize=12;" parent="1" edge="1">
          <mxGeometry relative="1" as="geometry">
            <mxPoint x="449.7499999999999" y="1233" as="sourcePoint" />
            <mxPoint x="479.25" y="1233" as="targetPoint" />
          </mxGeometry>
        </mxCell>
        <mxCell id="29" value="Order" style="rounded=1;whiteSpace=wrap;html=1;fillColor=#dae8fc;strokeColor=#6c8ebf;" parent="1" vertex="1">
          <mxGeometry x="626" y="1206" width="60" height="30" as="geometry" />
        </mxCell>
        <mxCell id="30" value="" style="rounded=1;whiteSpace=wrap;html=1;strokeColor=#d6b656;fillColor=none;" parent="1" vertex="1">
          <mxGeometry x="600" y="1143" width="160" height="50" as="geometry" />
        </mxCell>
        <mxCell id="31" value="OrderItem" style="rounded=1;whiteSpace=wrap;html=1;fillColor=#dae8fc;strokeColor=#6c8ebf;" parent="1" vertex="1">
          <mxGeometry x="666" y="1226" width="60" height="30" as="geometry" />
        </mxCell>
        <mxCell id="45" value="Product" style="rounded=1;whiteSpace=wrap;html=1;fillColor=#dae8fc;strokeColor=#6c8ebf;" parent="1" vertex="1">
          <mxGeometry x="666" y="1153" width="60" height="30" as="geometry" />
        </mxCell>
        <mxCell id="dXWTu-7YxBk32f4qg5hx-62" value="" style="rounded=1;whiteSpace=wrap;html=1;strokeColor=#d6b656;fillColor=none;" vertex="1" parent="1">
          <mxGeometry x="600" y="1202" width="160" height="61" as="geometry" />
        </mxCell>
        <mxCell id="dXWTu-7YxBk32f4qg5hx-64" value="" style="shape=image;verticalLabelPosition=bottom;labelBackgroundColor=default;verticalAlign=top;aspect=fixed;imageAspect=0;image=data:image/png,iVBORw0KGgoAAAANSUhEUgAAAgAAAAIACAYAAAD0eNT6AAAAAXNSR0IArs4c6QAAAERlWElmTU0AKgAAAAgAAYdpAAQAAAABAAAAGgAAAAAAA6ABAAMAAAABAAEAAKACAAQAAAABAAACAKADAAQAAAABAAACAAAAAAAL+LWFAABAAElEQVR4Ae29CdAmVZnni1LsFJtVlKxVJauAtgpK0doyCG40aNMjgiC2YSMqggrDtB034nrtmIi5PePS03N7sLXVidFWG3szAsXpAaGxVQqEdmFTBKooVgFlK0DWvv+/vK/11sf35ZtvPpl58mT+noj/l/ll5jnPc37nnMzz5rrJJhgEIAABCEAAAhCAAAQgAAEIQAACEIAABCAAAQhAAAIQgAAEIAABCEAAAhCAAAQgAAEIQAACEIAABCAAAQhAAAIQgAAEIAABCEAAAhCAAAQgAAEIQAACXSHwnJYCWSY/R0irpP2lldJSaRtpcwmDQCoCj8vxw9I90hrpemm1dIl0t4RBoCsEvL/eYaTtJ6ae31LydNPR8s003Vby8q2k8b52vm20eiPzNs/daMkmmzyt/x+Ys8z/rpeekO6XnpK8zbhPPar5X0nzbePl3tZy2vHU8/8mYS0QaHIAsJPiP0k6RXpFC2XBBQTqJOCd0BXSF6WvSL+UMAjUSWCJMttZ8tTyD6Xx/Hid148P+ttpfgg2OTDwINy6d0I/17wH7F42nmoWm5VAEwOAXRXEOdJpkkedGARyJ7BeBfiM9HHpztwLQ/yNE/BZTe8Hd5N2l3aR9pC8zP+P122heSxOwGcT7hjpVk3dRz31stul2yQve1zCJgjUOQBYpHzfL/0nafGED2Yh0BcCj6ggH5P+s8TOpC+1Wq0cPrXuA/kLpAOlA0bz/n+5tKmEdYvAfQrnZuk66drRvP+/UfJZh8FZXQOAfUTuPOmlgyNIgYdI4CoV+gTppiEWfmBl9i92H+BfLB0k7SvtJfkeJqw/BHyZwf35BsmDgx9L10g+g9Bbq2MA8GbR+YI0lOtTvW0MFGwmAv7F4Ptbzp8pFRt3lYBvfPMB3hof7F+k+R0lbLgEfNZgPBi4WvOWBwi9OGMQHQCcKhB/KXG6SxCwwRF4UiV+j/T5wZU87wJ7f+Vf9a+UDhtpb00xCJQl8DNteNlI39XUgwI/KZGVRQYAPvh/RorkkRUsgoXAPAT8tID7AoOAeeB0ZJHPTo4P9L+t+UMlzlh2pHJ6EsaDKocfH/6e5IGB572s01b14O3T/n8v8cu/09VLcC0R8JmA46Svt+QPN8UE/Nz7q6XXSUdJPq0/97l2LcIg0BiBp5Sz7yG4UPo/0r9IflqhU1ZlAOAb/q6UGEF3qioJJjEBXxN8mXRz4jiG6t533v+e9LvS70i+Sx+DQFcI+KVI35a+IX1NulVKbrMOADZTxJdLL00eOQFAoHsEPDD2qWafEcCaJ7CfXLxF8tmXg5t3hwcI1ELAlw39JNE/SD6T7icPsrA/UpQOHsGANjB/Gzgri56cb5A7KvTTpO9IvumKdgiD3NuAbyD8sOS3PrZqs5wB2FWReaSyTasR4gwCeRF4SOH6WfG78gq789EeoQjPlI6RfCYSg0DfCDyuAp0v/YX0z1LjNsuNMecoGg7+jVcJDjInsFjxn515GboSvm/me7f0Y+liyaf6OfgLAtZLApurVP9eukT6keSnixq9l6XsGYCdFMg6iQGAIGAQmEJgvdbvKfklItjsBLzT82n+P5b8Hn0MAkMlcIcK/qfSZ6TH6oZQ9gzASXLMwb9u+uTXVwLbqmAn9rVwDZbLjxWfLvmVrH8ucfAXBGzQBHZV6f+7dKP0XqnWR+/LngG4Qo5fLtVh1yiTz0oXSWulhyUMAqkIeGC7QvLz4j7ldpBUh61WJn4iACtHYJU2+5T0knKbD24rP1lyv/Sg5DNLnvp+E0/H8voHJN8c6XnfHDd3Oj4r5f2urznPNftxvvOZH/2e7wC0hZZvLfl4ssM8U//Q3F5yWufhbTydlC+d7Tha5vWLJOzZBK7SIg+SfUwOW5kBwDJ5uVMqs21RQG5sZ0l/KbmBYhDoGgHvoN4nfULy9biIeefrvnNPJJMBpPUA7JOSB19lz0j2BYsP1rdLPs1r3TvSz0fTX4ymbkO/lIZkO6mwS6UlE/Jd8uP//cvY2l3yQGJI5uOnj6P/UXokUvAyB3WfyvxKxInS+uD/RuniYD4kh0AbBI6Ukwuk6CDgBOXx1TYCztSHz7aYzwszjb8o7F9p5VppzUie90H+Vuku6TYptPNWeuwZAltrsof0fMkDAg8MVkgrR/L8llLfzGfTvY+5rsmC/Tdl7l8zEZ3eZIDkDYEGCJypPCNt3mn9yxabn8DJWuwDYJRxyvQ+jf6vkn8gfVR6u+QPDPkAhHWHgH/ouk5cN6dIH5X+RvqBlHsbXK8yeBDQmH1TOUc62dVK71OrGARyIuA26xF2pO1/I6cCtxirfxA8FWQbqZdZ0/pA73s6Pi19QHqdtFwqcwZVm2EdJuA6XCG9Xvqg5Dq+XHKdz9pOUm3vvvQeqRG7UblGCmaoGARyJOB7ViJt/4YcC91wzP8hyDRSH2XS+jr8BdJ/lt4q7SfxA0YQBmau8/0lt4H/V3KbcNso04ZSbOP7Ary/qt2ihT6g9ojIEALtEPA16khn5gbAjevp9/Svd1QRpnWm9XX6y6Q/l06S9pYwCBQR2EcrffnKbcZnhR6T6myTkbx8JuBYqVaLFnDbWqMhMwi0R2CxXEU6pA8w2DME/Ev6finCM5r2Cfm/UvpT6ShpKwmDQISA29CrpA9LF0qPStF2GknvR0Jr/dEdCcZpMQjkTID2H689X2f9nhRlWSW97+P4r9JrpC0lDAJNEvCA4EjpY9K1UpU2G03zbfmtzaLB1BYIGUEgAQHafxz67yuLKMey6f0r/39L75WWSxgEUhJYIefvk/5Jctss246j271ZvmqxaCC1BEEmEEhEgPYfB3+dsohyLEr/pPL36Vd/OOh5EgaBLhJYoqBOky6S3GaL2nR0nc981WLRQGoJgkwgkIgA7T8G/iVKHmW4UPrblLev56+QMAjkRMDvJfB9AzdLC7Xv6PIX1QEkGkQdMZAHBFIRoP3HyH9UyaMM56b3/QS+23lorw5WkbGeEfDjhj5dv1qa286j/3+kDlbRIOqIgTwgkIoA7T9G/mIljzIcp79ceflmPgwCfSTgmwevkMbtPTq9tA5I0SDqiIE8IJCKAO0/Rv4nSh5l6McH3yPxiz9WF6TuPgG3cd80WMcjs3fUUdxo560jBvKAQCoCtP8YeX9aNsLQ10hrfa45VhxSQ6AVAn7h0E+lSN+Z+h6SRa0UJebEACLmZ5AjNnT/EXakhUAdLwKL9mFqAQK5EaijzW9RR6EjI5DowdPx4z/GoI42MOQ8Ure/3NlH+Tn9A9LpEpcAcm8NxD+NgG8KPENym6+j70zzN3V9NIipDqZsgP9YQ5iCl9VTCKRuf1PC6/zqKL/J9N9XaV/X+RITIASqEXi9kvlV1ZNtPjpfLZKJVKkDwH+sQUxUJbMVCKRufxVC7lSSKL/50vtOab9d0L+WMAjkTMCX4d8i1X3gH/ebMJtxRlWn0QCq+h2nw3+UwLDTj9tR1emw6cUGr9OY+y5nvwho5dAhU/7sCOymiP0ioFukae08sj4MJuLcaaOG/1gDifIfevrU7S93/lF+ZdL7M6h+34Df/79z7sCIv7cElqlkfsTvEslttkzbjm4jNwtbmTsNHUDEyvgoyh//RXSmr4vyn+6h31ukbn+5043ym7X83rH+s/Q16ZvSTRIGgVQE9pbjN0q/Jx0utX3ZqnD/X7hSwdqiHbiMj2c8zf8X//NzKbs0yr+sn75ul7r95c41yi9afj9LfYHkLwR+R3pEwiDQFIFtlPGrpDdIR0v7SimtcP9fuHIUdbQDl/FRBAj/RXSmr4vyn+6h31ukbn+5043yq7P8/gLbjyR/je270rclP26FQaAqga2V8GXSK6WjpN+Rann+XvnUYYX7/8KVI+/RDlzGR1FB8V9EZ/q6KP/pHvq9Rer2lzvdKL8my+/vs3tA4G8MWH664AapyzErPCwRAe9L/Yv+0Am9WPObSV21wv1/4cpRiaKdoYyPInj4L6IzfV2U/3QP/d4idfvLnW6UX9vlv08OPRD4oeTBwY8lX0bw2QNsOAT8eN5+0m9JPsi/RHqFtKOUkxXu/wtXjkoZ7cBlfBQBxX8Rnenrovyne+j3FqnbX+50o/y6UH6/U/1ayQOC6yR/4MhaK/mmQyxfAr4pb6Xkg/0LpQMkH/QPlLp0Kl/hVLLC/X/hypG7aAcu46OoZPgvojN9XZT/dA/93iJ1+8udbpRfl8v/mILzJQOfIbBulNaMdLumDA4EoQPmg/zu0gpppeQP7fiAb/mU/uZSX61w/1+4ckQk2oHL+CiCj/8iOtPXRflP99DvLVK3v9zpRvnlWv7HFfg6aY20dqTbNL1jJM8/KGFxAtspCx/gdx1pD02XSytH2lPTLl+nV3iNWeH+v3DlKKRoBy7jo6j0+C+iM31dlP90D/3eInX7y51ulF/u5S+K/2GtvFW6U/IZg3tHukdTy///YjT1/NPSEMwffVoy0vNG050nlnmdD/jPl3yw96N32PwECvf/hStH+UU7cBkf84f+zFL8F9GZvi7Kf7qHfm+Ruv3lTjfKL/fy1xW/Od4/ks8czJXXPSA9JPnsw3rJTznMnXr9k5LNaearH98IOZ/NdwOc9y87jDb2r+xtpYWmPtW+WNpechr/cp+Ul4/Xsd8SjBqskGPhypHz+RrILHGV8TFLfmwLgTYJ0P5jtKP8Yt5JDYFhEyg8/vJ97WE3DkoPAQhAAAIDJcAAYKAVT7EhkAmBdypOv6QHg8CQCKxWYd/ZdIELTw+MnEdP4ZXx0XQ5yR8CVQnQ/quSeyZdXfz8jLa/9vcuydeZMQj0jYDfN/G30p9JPxgVrq7+M8pu40mZg3OjAWwcDv9BoHMEaP+xKqmbn28ae7t0knSYxFlMQcCyJeAnO74nfVn6kjT30dC6+49cbDAGABtYMAeB+Qg02gHnc9izZU3y8+NgR0vHS6+XfPc5BoGuE/BB/zLJv/YtvxtiIWuy/2zCAGAh7CyHwDMEGu2AA4DcFj8/J36cdKx0uMRlAkHAOkPAj19eKp0vfU26WypjjfYfBgBlqoBthkyg0Q44ALAp+PnVry+R/HlW69WSn0HHINAWAb8G+ofSRSN9W1O/n2FWa7T/MACYtTrYfmgEGu2AA4DZBX5++czh0qukVdIhEm+PEwSsNgJ+4dKVku/e/47kX/teFrVG+w8DgGj1kL7vBBrtgH2Hp/J1kd8ixXWQ5JsIPSDw9933lcrsD7UZNnACbtP++JMfT/UB39fzr5Ga+PhTo/2nTINvNABBwyDQZQK0/1jt5MLPZwk8CDhQOljyZ2F9GWGJhA2XgO/K/5nkz0BfJfmz0H5E7xdSG9Zo/2EA0EYV4iNnAo12wJzBlIw9Z37eP66QfLZgP8kDBMvz/hAN1h8Cd6oo/lXvg/0No3n/ql8jpbRG+w8DgJRVi+8cCDTaAXMAEIyxr/z8PoLxgGAvzS+f0J6a30LCukPgMYWyTrpFWjua3qypD/bW3OfvtagT1mj/YQDQiTomiA4TaLQDdrjcdYU2RH7er+4irZQ8GPDZAn+21tPdJa/bTdpKwuIEHlUWt0v+FX+bdJc0/syyD/prJa+LtkVl0bpFYy48xheuHBW10QBax4lDCMxGgPY/G6+5W8NvLpEN/++gWb+/4HnzaOlome9BmFzf95cd+VE5X1+f1L3635pcNp738/T3S321RvsPA4C+NhvKVReBRjtgXUF2OB/41Vs5vvTgAYGnfpRxa2nHifnFmt9+tNzrPb+t5IGD5XnbeJnfmeC8xja5zXjZeLpeM0+M/9H0Aenp0TKvs4238Xae98H5EelhyafZHxrNe9l9E/Ne54O812MbCDTaf9oYAGwoCnMQGB6BMn2sz1Qa3YH1GRxlg4AINNp/+JAGbQwCEIAABCAwQAIMAAZY6RQZAhCAAAQgwACANgABCEAAAhAYIAEGAAOsdIoMAQhAAAIQYABAG4AABCAAAQgMkAADgAFWOkWGAAQgAAEIMACgDUAAAhCAAAQGSIABwAArnSJDAAIQgAAEGADQBiAAAQhAAAIDJMAAYICVTpEhAAEIQAACDABoAxCAAAQgAIEBEmAAMMBKp8gQgAAEIAABBgC0AQhAAAIQgMAACTAAGGClU2QIQAACEIAAAwDaAAQg0GUCB3U5OGKDQIMEXtRg3qWz9veIIyrtiA0h0EECkbZP2ti+w/xulzqxI+xg2ySk/hJ4sYp2hxTdh4QJJQ8gXAIygEB1AtH2T/r4TuxRVd+HpE2rVyMpIZAFAbfxs6VfSXXsO8KFjgYRDoAMIJCQQLT9k76eHZk5XicdLz0nYXvANQSaInCUMv6hVOc+IxxrNJhwAGQAgYQEou2f9PXu0Mzz+9Lbpc0TtgtcQ6AOAlsok1Okq6Qm9hWFMZYZSTuoiJXxEcmftBBokkC0/TcZ29DzvksAPiN9Qbpp6DAof1YE9la075BOk5Y1GHnh8bdw5Sio6A6wjI8Gy0/WEAgRiLb/kHMSlyLgOlotfUk6T7pXwiDQNQJLFdAJ0snSqpaCKzz+Fq4cBRjdAZbx0RIL3EBgZgLR9j+zQxKECDyl1L6O+nXpq5LvG8AgkIrAC+T4WOkY6XBpM6lNKzz+Fq4cRRndAZbx0SYQfEFgFgLR9j+LL7atn8D1yvKfpG9Jl0oPSRgEmiKwnTL2gf5I6Q3SflJKKzz+Fq4cRR3dAZbxkRIQviFQRCDa/ovyZl27BJ6Uuyuk8WDA8wwI2q2DvnlbrAIdKo0P+i/X/KIOFbLw+Fu4clSI6A6wjI8O8SIUCGxEINr+N8qMfzpFwJcLrpG+J1020o2aYhBYiIBv3jtspFdqeqDU5fdTFB5/C1eqYLboDrCMj2c88RcC3SMQbf/dKxERFRF4UCuvlvxYlnWt5EHCYxI2HAI+qC+XfIA/eCT/0veNfDlZ4fG3cOWolNEdYBkfOQEl1mERiLb/YdHqZ2kfVbE8CPANhb6nYDxdo3mfRcDyJeAD/UrpAOmFI/mgb20l5W6Fx9/ClaOSR3eAZXzkDpn4+0sg2v77S4aS+XWtP5F+Kt0k3TyS52+Tnpaw9AR8kN9d8h35Y+2l+f1H8st4+mqFx9/ClSMi0R1gGR99hU+58icQbf/5E6AEVQg8rkRrJQ8KPPWHXdaNpv7A0a0SNyAKQg3mG/H2kHaTdpX2HE1XaOoDvqdDfWtk4fG3cKWg2aI7wDI+nvHEXwh0j0C0/XevRETUFQIeAHggcKf0c8kvMLLumef/ob3cyNfal0xomeYnl/n/XSQf+D0AwOYnUHj8LVw5yi+6AyzjY/7QWQqB9ASi7T99CYigLwTuV0F8k+IDE5r83+t9WeKR0dT3Llhe9rDksxLrpSckm29s9LZzzXk+NWehH22b70C7tZaPT6H7JTfbjv738i0lX0e3PD9etoPmt5+Qn50f/+95r8fqIVB4/C1cOfIf3QGW8VFU1Kj/oryHsG7o/FOXP+o/9zZK/829Bok/ZwKF+5/n5lwyYocABCAAAQhAoBoBBgDVuJEKAhBoh8A75ebydlzhBQKdIbBakbyz6WgKTw+MnEdP4ZXxUVTOqP+ivIewbuj8U5c/6j/3Nhrtv2N+LxSI90rvknydGYNA3wj4Xo2/lf5M+sGocHX1n1F2G0/GnWvjpRv/12gAG7ua97+o/3kzHdDCMnVchCN3/qnLH/VfVDc5rIu2n7n8fJPY26WTpMMkzmIKApYtAb8rwq+i/rLkz1n7BsxJq7v/TOa9ydzOtdHK0T+NBjCfwznLov7nZDe4f8vUcRGU3PmnLn/Uf1Hd5LAu2n6K+PkxsaOl46XXS21/alUuMQjMTMAH/csk/9q3/I6IhazJ/sMAYCHqPVpetAMtU8xoAyzjo8ltUpc/6r9JNm3kHW0/ZfntrMIcJx0rHS5xmUAQsM4Q8DsfLpXOl74m3S2VsUb7T5nO1WgAJQhE/Zdw0etNytRxEYDc+acuf9R/Ud3ksC7afqrw21RgXiIdNdKrNR3qm+BUdCwBAb9H4YfSRSN9W1O/h2FWa7T/lOlcjQZQgkbUfwkXvd6kTB0XAcidf+ryR/0X1U0O66Ltpw5+foHN4dKrpFXSIdI2EgaBugj4BUtXSr57/zvSpZKXRa3R/lOmczUaQAk6Uf8lXPR6kzJ1XAQgd/6pyx/1X1Q3OayLtp8m+PmtdgdJvonQA4JDpX2lJnwpW6xnBNymfyr58VQf8H09/xpp7tsTtShsjfafMg2+0QBK4In6L+Gi15uUqeMiALnzT13+qP+iuslhXbT9tMXPZwk8CDhQOlg6QPJlhCUSNlwCviv/Z5I/AX2VdK3kR/R+IbVhjfafMp2r0QBKEIz6L+Gi15uUqeMiALnzT13+qP+iuslhXbT9pORn3yskny3YT/IAwfL88yWsPwTuVFH8q94H+xtG8/5Vv0ZKaY32nzKdq9EASpCN+i/hoteblKnjIgC5809d/qj/orrJYV20/XSVn99HMB4Q7KX55RPy52i3kLDuEHhMoayTbpHWjqY3a+qDvTX3+Xst6oQ12n/KdK5GAyiBOOq/hIteb1KmjosA5M4/dfmj/ovqJod10faTIz/HvIu0UvJgwGcL/NlaT3eXvM7frvdX8rA4AX/x8HbJv+Jvk+6Sxp9Z9kF/reR10baoLFq3aMyF/adw5aiojQZQAmfUfwkXvd6kTB0XAcidf+ryR/0X1U0O66Ltp8/8dlAF+v0Fz5tHS0fLfA/C5Pq+v+zIj8r5+vqk7tX/1uSy8byfp79f6qs12n/KdK5GAyhRa1H/JVz0epMydVwEIHf+qcsf9V9UNzmsi7afofObW8e+9OABgad+lHFraceJ+cWa33603Os9v63kgYPledt4md+Z4LzGNrnNeNl4ul4zT4z/0fQB6enRMq+zjbfxdp73wfkR6WHJp9kfGs172X0T817ng7zXYxsINNp/ynSuRgPYUE7mOkogdf0P3X9Hm0XpsFLXX+lA2RACHSTQaP/hQxodrHFCggAEIAABCDRNgAFA04TJHwIQgAAEINBBAgwAOlgphAQBCEAAAhBomgADgKYJkz8EIAABCECggwQYAHSwUggJAhCAAAQg0DQBBgBNEyZ/CEAAAhCAQAcJMADoYKUQEgQgAAEIQKBpAgwAmiZM/hCAAAQgAIEOEmAA0MFKISQIQAACEIBA0wQYADRNmPwhAAEIQAACHSTAAKCDlUJIEIAABCAAgaYJMABomjD5QwACEIAABDpIgAFAByuFkCAAAQhAAAJNE2AA0DRh8ocABCAAAQh0kAADgA5WCiFBAAK/IXDQb+aYgcCwCLyo6eI+p4SDRr9H3IL/Ei4a3aQM46IA4F9EZ/q63PlPL2G3t4i23ztUvDdIV3e7mEQHgVoJvFi5/W9pl2Cuhfs/zgAE6ZIcAhBolMCuyv0K6UPSpo16InMIpCfgNn625DYfPfjXUhqP4COKBhHx3YW0qcuf2n/qOkhd/qj/3NPXWf/XCcbxUuGvmtyBEf9gCRylkv9QqrPPhGFGg4kGEPWfOn3q8qf2D/9oDeSdvon6/76QvF3aPG80RA+BTbYQg1Okq6Qm+koh4jIjaQcVsTI+ivKP+i/Ku411qcuf2n8bjIt8pC5/1H9R2XJY12T/vUsAPiN9QbopBxjECIERgb01fYd0mrRstKyJSeH+p3DlKJpoBy7jo6jgUf9FebexLnX5U/tvg3GRj9Tlj/ovKlsO69rov/axWvqSdJ50r4RBoGsEliqgE6STpVUtBVe4/ylcOQow2oHL+ChiEfVflHcb61KXP7X/NhgX+Uhd/qj/orLlsK7t/vuUoPg66telr0q+bwCDQCoCL5DjY6VjpMOlzaQ2rXD/U7hyFGW0A5fxUQQk6r8o7zbWpS5/av9tMC7ykbr8Uf9FZcthXer+e70g/ZP0LelS6SEJg0BTBLZTxj7QHyn58dX9pJRWuP8pXDmKOtqBy/goAhT1X5R3G+tSlz+1/zYYF/lIXf6o/6Ky5bCuS/33SQHz41XjwYDnGRDk0Iq6G+NihXaoND7ov1zzizoUbuH+p3DlqBDRDlzGRxGvqP+ivNtYl7r8qf23wbjIR+ryR/0XlS2HdV3uv75ccI30PemykW7UFIPAQgR8895hI71S0wOlLr+fonD/U7hSBbNFO3AZH894mv9v1P/8uba3NHX5U/tvj/T8nlKXP+p//lLlszS3/vug0Pqtg34sy7pW8iDhMQkbDgEf1JdLPsAfPJJ/6ftGvpyscP9TuHJUymgHLuOjCGjUf1HebaxLXf7U/ttgXOQjdfmj/ovKlsO63PuvGT8qeRDgGwp9T8F4ukbzPouA5UvAB/qV0gHSC0fyQd/aSsrdCvc/hStHJY924DI+iiBH/Rfl3ca61OVP7b8NxkU+Upc/6r+obDmsy73/FjH+lVb+RPqpdJN080iev016WsLSE/BBfnfJd+SPtZfm9x/JL+PpqxXufwpXjohEO3AZH0Xwo/6L8m5jXeryp/bfBuMiH6nLH/VfVLYc1uXef6syflwJ10oeFHjqjxqtG01v1/RWiRsQBaEG8414e0i7Sf52xJ6j6QpNfcD3dKhvjSzc/xSuFDRbtAOX8fGMp/n/Rv3Pn2t7S1OXP7X/9kjP7yl1+aP+5y9VPktz779NkvYAwAOBO6WfS36BkXXPPP8P7eVGvta+ZELLND+5zP/vIvnA7wEANj+Bwv1P4cpRftEOXMbH/KE/szTqvyjvNtalLn9q/20wLvKRuvxR/0Vly2Fd7v23S4zvVzC+SfGBCU3+7/W+LPHIaOp7Fywve1jyWYn10hOSzTc2etu55jyfmrPQj7bNd6DdWsvHp9D9kpttR/97+ZaSr6Nbnh8v20Hz20/Iz86P//e812P1ECjc/xSuHPmPduAyPuopKrlAoH4CtP8Y0yi/mHdSQ2DYBAqPv88dNhtKDwEIQAACEBgmAQYAw6x3Sg2BXAi8U4FenkuwxAmBmgisVj7vrCmvBbMpPD0wShU9hVfGx4IBsgICiQnQ/mMVUBe/FyqM90rvknydGYNA3wj4Xo2/lf5M+sGocHX1n1F2G0/KHJwbDWDjcPgPAp0jQPuPVUnd/HyT2Nulk6TDJM5iCgKWLQG/K8Kvov6y5M9Z+wbMSau7/0zmvQkDgI1w8A8EnkWg0Q74LG/9W9AkPz8mdrR0vPR6qe1PrcolBoGZCfigf5nkX/uW3xGxkDXZfxgALESd5RAYEWi0Aw6Aclv8dhbL46RjpcMlLhMIAtYZAn7nw6XS+dLXpLulMtZo/+EMQJkqYJshE2i0Aw4AbAp+m4rrS6SjRnq1pkN9E5yKjiUg4Pco/FC6aKRva+r3MMxqjfafMgMAvywi0nl8zY5XXs5a7WzfBQJ+8cnca3KzxOW+4xegDNka3YGVBOt6PFx6lbRKOkTaRsIgUBcBv2DpSsl3739H8q99L4tao/2nzADgXpXgeYFSHKi0/noWBoHcCBykgK8OBO2+49eXDtka3YFVBOu32rlufROhBwSHSvtKZfaH2gwbOAG36Z9KfjzVB3xfz79Gmvv2RC0KW6P9xx1hmt2nDSIDgNcqPQOAaZRZ30UCbrsRc9/BukfgSYXk07PWp0bh+SzBi0by5YPxvM9gYsMl4DOAP5b8Q+BHo3kf7B+SsrcyI95vqpRvCJTUsNyhmhgdBcIiKQQKCfg6sjv+AYVbFa+8QKt/t3iT3q9t9BdMw/S8f1wh+WzBfpLPElief76E9YfAnSqKf9X/TLphNO9j1xoppTXaf8qcATCUyADAned90l+kpIhvCMxI4P3aPnLwtzv3HSxfAt75+gBgnT+nGD4zMB4Q7KX55RPy52i3kLDuEHhMoayTbpHWjqY3a+qDvRW510fJ87QyZwBOUNH+Jlg83/3o53W/FcyH5BBog8BRcuJf79Hnyt+qPP62jYA77MMH0YiV2UdF8m8irWPeRVopeTDgswV7jKa7a+p1/nb9VhIWJ/Cosrhd8q/426S7pFtH//ugv3Y0H22LyqZ1i8Zc2H8KV46KurOmBlpm2yI6HgScI50rcTmgiBTrUhHwaX//8v+4FD34P608lkn3SkO2RndgmYPdQfF7/+p7rObKN4962ZI566LtUtl12nyc+MUcuQ9Zc5f7fz9Pf7/UV2u0/5Q9qK8W3UNrInyt8vmcdKG0VlovYRBIRWBbOV4hvU76Qyl62l9Z/Nq+p7+vHM0PedLoDmyAYH3pwQMDT7eRtpZ2nJhfrPntR8u93vNu4x44WJ63jZd50Dt5o+PkNr/ecOKP99VPTPz/gOY90PWy8X58vM14mQ/Oj0gPSz7N/tBo3st8k6yXe97r7pW8HttAoNH+U+YeAIfyRamuAcCByuuTzhSDQI8JuM9gEKibgA+Ug7xeXTdI8it/Wn8nwfK1FI8oMQhAoJiAf8Usl3gMcJNNGv0FU1wNrIVA9gQa7T/PLYnnl9ru0yW3ZTMIDJ3AuQLAwX/orYDyQ6DjBMreA+Bi+M5VPy4xvobkZRgEILAxAZ+e3UfyzUkYZwBoAxCIEOjEGQAXwI9Y/EmkJKSFwAAIfERl5OA/gIqmiBDIncAsZwBcVt8hepl0sP/BIACBjQhcof98579fNYs9Q6DRXzBAhkDPCTTaf2YdAJj1XtJVkh8vwSAAgWcI+HGnl0lrALIRgUZ3YBt54h8I9I9Ao/2n7E2Ak1hv0j+nSPzKmaTC/JAJuC+cLHHwH3IroOwQyIxAlQGAi3i+9B4pOjpxXhgEcibgPnCqdEHOhSB2CEBgeASqDgBM6vPSOyW/8QmDwBAJ+JXWp0n/a4iFp8wQgEDeBKrcAzC3xMdowV9L3BMwlwz/95mAr/n7tD+//ItrOXqWsI59VHGErIVAdwk02n/q6lwvEL/zpEO6y5HIIFAbAd/tf6K0prYc+5tRozuw/mKjZBD4NYFG+0/kEsBk/dysfw6TPiTxnupJMsz3iYA/XPLHkh/14+Dfp5qlLBAYIIG6zgBMovMnUM+R3ivx1sBJMsznSsDv9v+U9AmJl/zMVouN/oKZLRS2hkB2BBrtP00MAMaE/YnKt0l+ZNBfEmzSl7LHIFArAXc8v/TKX/Xz5S3e7S8IFazRHViFeEgCgZwINNp/2jooLxXxI6RV0v6S7xlYIvnb1ZtLGARSEXhcjv0L398i96Ws66XV0iWSl2ExAtEdmL+rcGMsBFJDIEsCeyvqnwUjb+sYHwyT5AsR8A40ooXyZTkE2iCwXk4i7Xet0nsQgEFgSAT2U2FvkSJ9xz9ssMwJRBqA02IQSEnAbw6NtmEPIt4n8WsmZU3iuw0CbuOnS77hONpvOHPWRo017CPaCBoOj+whUEjgn7U22obH6f9Veb2x0BsrIZAvgd9V6D+Qxu09Or0kXxREPiYQbQTjfJhCIAWB/0dOo214bvrvKc+3Sv46KQaBnAm4DZ8g+Ybjue08+r8/TY5lTiDaCDIvPuFnTsA3/kbb8ELpb1fe/7e0PHNGhD88AitUZB+g3YYXat/R5a9Q3ljmBKKNIPPiE34PCPjz4dF2PC39lfLxQWnnHvCiCP0k4Efj3yFdKD0tTWvTkfW+lMA9M4KQu0UagdNiEEhNwK9Njrbjsun9aebvSB+WXihhEEhJYKWce2Dqg74fOS7bjqPbvUW+sB4QiDaEHiCgCJkT8CvH/0WKtuUq6a+T349LR0vbShgEmiTgd9v4Zj6/NdTvFKnSZqNpLpXfUq/55xSBSHXc3BgiRh1H6JG2LgJ7KaMfSikPwj474A85fUvyTvJyyY8YYhCoSsAH/EOlw6UjpZdLi6RU5vb8W9LNqQLAb70EoqPBeqMhNwhUJ+A795+Som26rvQeEHhQ8j+kUyS/eQ2DQBEBtxG3lXMltx23obraYzQf963jpdLGr8PSqJJt6EYRMeo4Qo+0dRPwR8I+VXemNeb3gPK6RvKNi9a10tWSr99iwyGwqYq6XDpQOnikV2i6s9RV89d4/3yW4Dg4zEIrzbYMANJwx2tzBHxT1CelUtcpmwujdM6PaEsPCjwY+Inka7vXSWsl/+rC8iXgA/1KyTeMjuWD/kHSVlIO5jZ4lvT/zRosA4BZibW/PQOA9pnjsXkCvy8Xfy3lspOdj8hjWugBgXWT5OuuY92meQYHgtAB80F+d8kfoRtrL837w3TWFlKu5sHpydLXqhSAAUAVau2mYQDQLm+8tUfgxXL1Zcm/uPpmvmRwi+QBwRrpDmndaOqXv9wq8bEWQajBtlMePsBbu0p7jqYrNPUBf7nUx6/O+qzUSZIvUVUyBgCVsLWaiAFAq7hx1jIBnwH4r5I/gPLcln2nducBgAcCd0o/l+4d6Z55/ve6IdlSFXbJhJZpfnKZ//fBfg8p5ZMlct+6PS2P/0P6I+lXEe8MACL02knLAKAdznhJS+BQufdO7eC0YXTa+/2KzjcpPjiazp33+kcn5IODTxH7UsV66QnJgw7fuW57WPKZirnmfH2QmTQPzrafXDCa9y/rbUbzizT1Y3HjZT61vrW0peSB3lg7aN55jeVf8J4fT70em5+Ab0z1YPmK+VeztG8EPACIqG88KE9/Cfgg825pnRRp86SFX9/agPuE+4b7CDYgAtGGPCBUFLUnBPzL8QzJN9JF2z/pYZhzG3AfcF/I+UZFhY9VJRBtvFX9kg4CqQn4VPLx0mop2g9ID8Oc2sAP1eZPk3zZpDHjHoDG0NaWsRttxKjjCD3SdoXAv1Mgp0p+fLDRnaLyxyCQgoDv2fgH6a+kf5YaNw4OjSMOO2AAEEZIBj0i4BvE3iadIq2S2IcJApYtAe/fL5e+IH1Ful9qzeg8raGu7IgBQGV0JOw5geUqny8RvFU6RGJ/JghY5wl4n+67+b860i2pIqbDpCJf3i8DgPKs2HK4BJaq6P9OOko6VtpFwiDQFQK/UCAXSxdJF0i+uS+5MQBIXgVTA2AAMBURG0BgIwJ+VOqlkgcD1uHSZhIGgbYI+DXQvpHPB3zrUsnvYeiUMQDoVHXMGwwDgHmxsBACpQnsqC0Pk3zPgKd+6dBiCYNAXQT8giVfy79M8lMrnt4nddoYAHS6en4dHAOA7tcREeZFwB+HOUD6bWk8MNhX8+wPBQGbSsD75Buk8YHeB/trpew+/kSDV6113BgAdLyCCK8XBHxGwIMAf5jIgwNPXy75nfPYcAn4tcg3StdJV0k+0PvUfi++zcAAQDXZcWMA0PEKIrxeE9hdpXvRSPtourfk6W4S1h8Ct6soPtD/bKSrNbU6cbOe4mjEGAA0grXWTBkA1IqTzCBQC4Gtlct4QDAeFPgb8/46nQcNW0hYdwj4o0c+mPvriz7Qjw/24/mHtWxwxgCg+1XOAKD7dUSEEJhLwI8heiDgAYG1fPT/rpr6soLXj7+ip1ksQMAH7zuln0t3SD7IrxtNxwf9u/R/dF+qLPplDAC6X5/RRksdd7+OiXCYBDwAeL7kAcHOkgcHnvpth5PyUwzj//3J3D6bP3V8/0i+i348P57erWU+yHvqA74P/I9IWAUCHBwqQGs5CQOAloHjDgIdJuB3HEwOCObOe1CxpeRLFL4Msa20meSbHBdJ20vjPLz/XylFbI0Sex/lg/XTkm+ae1LyY3F+7n299Jjkg/Sjkn+tjw/mno4P8uOp88BaItDWAMAj3CMkP4e7v+RGt1RyY91cwiCQioCvDXqndI/kndn1kh/vuUTyrwwMAn0m4IN3xNo6hkRiJO0CBJqsvJ3k8yTpFOkVC/hnMQS6SsA7xiukL0pfkX4pYRDoGwEGAH2r0cTl8XWsT0o+9ePGhWCQexvw6cxPSL5xC4NAnwhE+2afWFCWAAFfX/qg5Js4oo2K9DDsYhvwpYKPSly2EgSsFwSi/awXEIZaiLouAfh52POklw4VJOUeFAG/EewE6aZBlZrC9pGABwARq+sYEomBtBUJ+G7QqL1ZGVwpcfCPkiR9LgQOVqAeBBybS8DECQEIQGAugegA4A+U4d9JfX82dS43/ofA9kLwj9K7QQEBCEAgRwKR0zenqsCfkSJ55MiMmCEwScCnUN0XPj+5kHkIZEKASwCZVFQTYVY9ePu0/99LmzYRFHlCIDMCfvHJcdLXM4ubcCHAAGDAbaDKAGBv8fL1T077D7jhUPRnEfCjgodINzxrDQsg0F0CDAC6WzeNRzbrPQB+peRXJQ7+jVcNDjIjsFjxfklalFnchAsBCAyUwKwDgLPEibv9B9pYKPZUAj4DcObUrdgAAhCAQAcIzHIJwG/48+lNv78fgwAE5ifgSwH7Sv78KAaBrhPgEkDXa6jB+GY5A3CO4uDg32BlkHUvCPhSwNm9KAmFgAAEek2g7BkAf9hnncQAoNfNgcLVRGC98tlTuq+m/MgGAk0R4AxAU2QzyLfsGYCTVBYO/hlUKCF2goC/wX5iJyIhCAhAAAJBAv4sqkeKdehq5fNB6UCJQYUgYEkJuA26LbpNum3W0cadx2USBoGuE4i2966Xj/iCBJYp/dNStKE8pjxOl8qeddCmGARaJeAXW50hua1G27v7zFIJg0CXCUTbeZfLRmw1EPCpzGgj8Q71NTXEQhYQaIPAkXJSxyDgrW0Eiw8IBAhE9+0B1yRNTaDMr/FVNQTp9wdcXEM+ZAGBNgh8S0781EvU6ug70RhIDwEIQKAygW8qZWSU6OuqfDOgMn4SJiLgNnuNFGn730gUO24hUJZApH07LZYxgTJnAPYJlu+zSv9UMA+SQ6BtAm6znws6jfadoHuSQwACEFiYQJkBwA4LJy+15sJSW7ERBLpHINp2d+xekYgIAhCAwDMEyrwIyDdDbR4A5jej+cUoGARyI+C2+2AgaPedLQPpSQqBpglET+OXOYY0XQbyr0igTOXRQCrCJVkvCND+e1GNFGIBArTvBcAMYXGZSwBD4EAZIQABCEAAAoMiwABgUNVNYSEAAQhAAALPEGAAQEuAAAQgAAEIDJAAA4ABVjpFhgAEIAABCDAAoA1AAAIQgAAEBkiAAcAAK50iQwACEIAABBgA0AYgAAEIQAACAySwKIMyp35Odej+M2gihAgBCEAAArMS4AzArMTYHgIQgED+BPzj77gaivEm5cFxpAaQXc3Cv4AjipYr4jv6692xD91/tP5yT5+6/nPnR/zdIrCVwvkjaZ0Ubdvj9Dcor9OlbSSsZwTGlVx1GsVR1e84Hf6jBIadftyOqk6HTY/Sd4nAyQqmzgP/3D5xq/I/tksFJpY4gbmVPOv/0Qhm9Td3e/xHCQw7/dz2NOv/w6ZH6btAYImC+Jo0a9utuv158rWsCwUnhjiBqo1gnC4awTifqlP8RwkMO33VdjdON2x6lD41gVcogDukcXtsa3qbfP5W6sLjP04g2mCiEeA/1nmj/IeePnX7Gzp/yl+dwFFK6s9ZR9tw1fQPyffR1cMnZRcIVK38cbpoGcb5VJ3iP0pg2OmrtrtxumHTo/SpCLxBjh+Xxu0w1dQxvDkVBPzGCUQbTjQC/Mc6cZT/0NOnbn9D50/5ZydwiJL413e07daV/hHF4ksRWMcIPKdEPG4EESvjoyh//BfRmb4uyn+6h35vkbr99ZsupaubgG/4+7G0S90ZB/O7XekPlTzFOkKAFzh0pCIIAwIQgEANBD6rPLp28HexdpO+IPGDxDQysuhpoGhR8R87lRflP/T0qdvf0PlT/vIE/Jx/tL02nd4xYh0hUGY05gYRsTI+ivLHfxGd6eui/Kd76PcWqdtfv+lSuroI+A1/P5H2rCvDhvL5ufJ9oXRfQ/mT7QwEuAQwAyw2hQAEINBRAmcqrq4f/I3OLwj6D57B0hMo8+sw9S8g/MfaSZk6jnnod+rU7a/fdCldHQQ2VSY3ScvryKyFPO6RDw9WftWCL1wUEOAMQAEcVkEAAhDIgICfs8/l4G+cS6W3eAZLS6DMr0N+AaWtI7ynJRBt/2mjxzsEZiNwjTb3kwQXSWsl2wrJbxU8VTpIqsO+o0x+p46MyKNZAt4BRtRsdOQOgWYJRNo+aWP7Dvi1x+8xdSN/0rforLAvNZwhedto3TyhPBZLWMcJRCu648UjPAgUEoi2f9LHDxYwbJahD+ivKewFG688Uv/WMQjw64qxhASKRnsJw8I1BCAAAQi0ROAs+bl4Bl/f0rbnzLD9Qpu+eqEVLG+HAPcAtMMZL/kS8K9PDAJ9JeBr/i+RnpqxgL4c8CPpwBnTTW5+of553eQC5tslwBmAdnnjDQIQgECXCPyVgpn14O/4neZzngnY8kBaktZAgAFADRDJAgIQgECmBHy3f1XzL/iI7RxJTNo4AS4BxBmSQ78JcAmg3/U79NL5Tvz1FSE47YMV0zqZnwTYPJCepEECnAEIAiQ5BCAAgYwJlPkRuFDxImkXypPlLRJgANAibFxBAAIQ6BiBPQLxRL898HDAN0lrIMAAoAaIZAEBCEAgUwKvDcQdvYPfXwbEEhJgAJAQPq4hAAEIJCbg1/v6kb5ZzWn+cNZEc7ZfN+d//m2ZAAOAloHjDgIQgECHCPjd/u+rEM/7leaACukmk3x/8h/m2yfAAKB95niEAAQg0CUCn1AwR84QkD8M9PEZtl9o028vtILl7RBgANAOZ7xAAAIQ6CoBP4p3gXSmVHQ5wOs+MNp2M00j9qQSfzeSAWnjBMo8xhF9DrqMj3hJyAECzRCItv9moiJXCDRD4Fpl6zf8+SU/ayXbCsk3/Pmaf/S0v7L4tf2L/vItgBGMVJMyB2d2gKlqB799IFCmj/WhnJQhHYHj5Pof0rmv5PlkpfpypZQkqo1AmZ0TA4DacJPRAAmU6WMDxEKRayTgU/M3SitqzLPJrO5R5n7/gD8pjCUkwD0ACeHjGgIQgEANBJ5SHufWkE9bWXxajjj4t0W7wE+ZXyecASgAyCoITCFQpo9NyYLVEJhKYEtt8RNp+dQt027gl//sL92fNgy8mwBnAGgHEIAABPIn8CsV4f/KoBhnK0YO/h2pqDK/TjgD0JHKIowsCZTpY1kWjKA7SeAfFdXvdTKyTTb5luLyOwSwjhAos3NiANCRyiKMLAmU6WNZFoygO0ngeYrqx9KuHYvuNsVzqHRHx+IadDhcAhh09VN4CECgZwR+ofK8SVrfoXI9olh+X+Lg36FKcSgMADpWIYQDAQhAIEjgKqV/i/REMJ86kj+uTE6UeO9/HTRrzoMBQM1AyQ4CEIBABwj8k2J4o/Rgwlh8FuLN0vkJY8B1AYEy1ye5B6AAIKsgMIVAmT42JQtWQ6AygUOU8mvSbpVzqJbQ1/yPlq6ulpxUbRDgDEAblPEBAQhAIA2BK+X2tyQPAtqyv5GjgyUO/m0Rr+iHAUBFcCSDAAQgkAkB3xjo7wX4/fvrGozZeR8jvU26u0E/ZF0TgTKnJ7kEUBNsshkkgTJ9bJBgKHQSAn5j4BmSP/27Z00R3KB8/kz6guQ7/rFMCJTZOTEAyKQyCbOTBMr0sU4GTlC9JuAPCPlxwehXBH2T39elpyUsMwJldk4MADKrVMLtFIEyfaxTARPMoAhE9++074yby6IWYqeBtAAZF40RiO4gGwuMjCEAAQhECHATYIQeaSEAAQhAAAKZEmAAkGnFETYEIAABCEAgQoABQIQeaSEAAQhAAAKZEmAAkGnFETYEIAABCEAgQoABQIQeaSEAAQhAAAKZEmAAkGnFETYEIAABCEAgQoABQIQeaSEAAQhAAAKZEmAAkGnFETYEIAABCEAgQoABQIQeaSEAAQhAAAKZEmAAkGnFETYEIAABCEAgQoABQIQeaSEAAQhAAAKZEmAAkGnFETYEIAABCEAgQoABQIQeaSEAAQhAAAKZEmAAkGnFETYEIAABCEAgQoABQIQeaSEAAQhAAAKZEliUQdzR77E/J1jGqP+ge5IHCUTrP+ie5BCAAAS6SYAzAN2sF6KCAAQgAAEINEqAAUCjeMkcAhCAAAQg0E0CDAC6WS9EBQEIQAACEGiUAAOARvGSOQQgAAEIQKCbBBgAdLNeiAoCEIAABCDQKAEGAI3iJXMIQAACEIBANwkwAOhmvRAVBCAAAQhAoFECDAAaxUvmEIAABCAAgW4SYADQzXohKghAAAIQgECjBBgANIqXzCEAAQhAAALdJMAAoJv1QlQQgAAEIACBRgkwAGgUL5lDAAIQgAAEukmAAUA364WoIAABCEAAAo0SYADQKF4yhwAEIAABCHSTAAOAbtYLUUEAAhCAAAQaJbCo0dzryTz199xT+6+HIrlAoL8ElqloR0irpP2lldJSaRtpcwlrjsC/NZd1L3J+XKV4WLpHWiNdL62WLpHulpJamYNbtILL+EgKAecQKCBA+y+Ak3DVTvJ9knSK9IqEceAaAlUIeL9yhfRF6SvSL6XWrczBmR1g69WCww4RoP13qDIUyq7SOdJpkn/hYxDIncB6FeAz0selO7tWGO8AI+paeYgHArMQiLT96OBhljj7vq0vV35QelCK1gnpYdjFNuBLBR+VWrtsxRkA0cYgUEAgehAv08cK3LNKBPaRzpNeCg0IDIDAVSrjCdJNTZeVpwCaJkz+EIBAhMCblfhKiYN/hCJpcyJwsIL1IODYpoNmANA0YfKHAASqEvgDJfw7abuqGZAOApkS2F5x/6P07ibjZwDQJF3yhgAEqhI4VQn/p5TDo8pVy0g6CBQR2FQrPy29q2ijyLoy1ye5BhohTNrcCdD+269Bn/b/e8k7QAwCQyfwpAAcJ329bhAMAOomSn59I8AAoN0a3VvufP2T0/7tcsdbtwk8pPAOkW6oM0wuAdRJk7wgAIEIgc2U+KsSB/8IRdL2kcBiFepLUq2XxBgA9LGpUCYI5EngLIXN3f551h1RN0/AZwDOrNMNlwDqpElefSTAJYB2atVv+PPpTd7u1w5vvORJwJcC9pXuqiN8zgDUQZE8IACBKIFzlAEH/yhF0vedgC8FnF1XITkDUBdJ8ukrAc4ANF+z/rDPOokBQPOs8ZA/gfUqwp7SfdGicAYgSpD0EIBAlMBJyoCDf5Qi6YdCYFsV9MQ6CpvDGYDoL7A6OJFHvgTKtPGi0kXbX9R/UWx9WefPor68psJco3w+K10krZX8gRUMAqkIeGC7QjpKOlU6SKrDViuTw+rIaFoe3gFGNC3/aesjvkkbq7s+8JvWvqatjzKYlv/Q1y8TgKelKOfHlMfpEmc1BQHrJAG/2OoMyW012t7dZ5ZKIaOzhPCRGAIQCBI4QumjZ0keVx5vlM6VvGPEINBFAk8pqL+QjpbcZiPmPuO+EzIGACF8JIYABIIEVgXTO7nfH3BxDfmQBQTaIPAtOfFTL1EL9x0GANEqID0EIBAhsF8ksdL6mr8/mIJBICcCPlt1bTDgaN/helmwAkgOAQjECOwTS/7rG/58ahWDQE4E3GY/Fww42ncYAAQrgOQQgECMwA6x5JtcGExPcgikIhBtuztGAy9z843vVoxYGR9F+Uf9F+XNuv4TSN3+ov77XkO+I3rzQCH9ZrT1gfQkhUAqAm67Dwacu+9sGUhf6u7b6AE4ugOM+o/wIW3+BFK3v6j//GuguATR/g3fYr6s7TaBpO2fmwC73TiIDgIQgAAEINAIAQYAjWAlUwhAAAIQgEC3CTAA6Hb9EB0EIAABCECgEQIMABrBSqYQgAAEIACBbhNgANDt+iE6CEAAAhCAQCMEGAA0gpVMIQABCEAAAt0mwACg2/VDdBCAAAQgAIFGCCxqJNd6M+U533p5khsEILCBQNLnsBXG0P1vqAnmWifAGYDWkeMQAhCAAAQgkJ4AA4D0dUAEEIAABCAAgdYJMABoHTkOIQABCEAAAukJMABIXwdEAAEIQAACEGidAAOA1pHjEAIQgAAEIJCeAAOA9HVABBCAAAQgAIHWCTAAaB05DiEAAQhAAALpCZQZADweDHNxMD3JIZCKwHZBx48F05Mc+CVs2gAAFTVJREFUAhCAQGMEygwAHgp63yOYnuQQSEVgz6DjaN8Juic5BCAAgYUJlBkA3Ldw8lJrXltqKzaCQPcIRNtutO90jwgRQQACvSFQZgBwY7C0pyr9psE8SA6Btgm4zbrtRuxnkcSkhQAEINAkgTIDgJ8GAzhI6d8XzIPkEGibwPvl8ICg02jfCbonOQQgAIEYgROU3B+siMg3Qx0ZC4PUEGiNwFHy5JtfI23eaY9vLeJ8HUUZR0uO/1g7j/IfevrU7W8q/521xdNSNFAPAs6UuBwgCFgnCbhtfkCq4+D/lPJZ0slSdiuo6H4lWhr8x/btUf5DT5+6/ZXiv1pbRQMdp79GeZ0l+dLAthIGgZQE3AbdFs+WrpXG7TQ6/a7ywqYTiHKe7qF4C/zH2nwxXdZOI5C0/S2aFt1o/Rc1PbTkttM2O1AbfHLaRqyHQOYE3Gew7hN4TuIQh+4/Mf5huy/b+HYSpnXSNsPGRekhUIqAn/9fLvEY4HRc/gUUsbL7sIgP0kKgKQJJ23+ZpwBc8F9Kn26KAPlCoGcEzlV5OPj3rFIpDgT6RmCW0fMuKvwNEtft+9YKKE+dBB5UZvtId9eZaY/zSvoLqMdcKVoeBJK2/7JnAIzyTulP8mBKlBBIRuAj8szBPxl+HEMAAmUJzHIGwHluJl0mHex/MAhAYCMCV+i/V0pPbrSUf4oIJP0FVBQY6yDQAoGk7X/WAYB57CVdJW3vfzAIQODXBO7X35dJa+AxE4GkO8CZImVjCNRPIGn7n+USwLjoN2nmFIlfOWMiTIdOwH3hZImD/9BbAuWHQEYEqgwAXLzzpfdI0dGL88IgkDMB9wF/NOiCnAtB7BCAwPAIVB0AmNTnpXdKT0gYBIZIwK/7PU36X0MsPGWGAATyJlDlHoC5JT5GC/5a4p6AuWT4v88EfM3fp/355R+r5ehZxDr2YbESkBoC1Qkkbf91dZ4XqPznSYdU50BKCGRDwHf7nyitySbi7gaadAfYXSxENhACSdt/5BLAZP3crH8Okz4k+UUoGAT6SOBhFeqPJT/qx8G/jzVMmSAwIAJ1nQGYRLZM/5wjvVfirYGTZJjPlYDf7f8p6RMSL/mptxaT/gKqtyjkBoGZCSRt/00MAMYEdtTM2yQ/MugvCTbpS9ljEKiVgDumX3rlr/r58hbv9heEBizpDrCB8pAlBGYhkLT9t3VQXioiR0irpP0l3zOwRFosbS5hEEhF4HE59i/8eyVfyrpeWi1dInkZ1iyBpDvAZotG7hCYSiBp+29rADCVAhssSCBpA1kwKlZAoB4C0fZdTxTkAoE8CYSO4XXdBJgnOqKGAAQgAAEIDJQAA4CBVjzFhgAEIACBYRNgADDs+qf0EIAABCAwUAIMAAZa8RQbAhCAAASGTYABwLDrn9JDAAIQgMBACTAAGGjFU2wIQAACEBg2AQYAw65/Sg8BCEAAAgMlwABgoBVPsSEAAQhAYNgEGAAMu/4pPQQgAAEIDJQAA4CBVjzFhgAEIACBYRNgADDs+qf0EIAABCAwUAIMAAZa8RQbAhCAAASGTYABwLDrn9JDAAIQgMBACTAAGGjFU2wIQAACEBg2AQYAw65/Sg8BCEAAAgMlsGig5abYEIBAPwiEvofeDwSUImMC/5Yyds4ApKRf7Nt186biTUqtPU5bbVpqSzaCAAQgAAEIQCAZgW3k+f3SDZJHh3XoFuXzH6WtJAwCXSIQbd9dKguxQGBWArT/WYn1ePs3q2y3SdFGsVB6DwTe1mN+FC0/Agu11bLL8ysxEUNgA4Gy7Xyh7TbkxFy2BJ6vyL8qLVTJdS//R/l6Xra0CLxPBKJtu08sKMvwCND+h1fnG5X4JfrvdinaEGZNb5+HbBQJ/0CgfQKzttu527cfMR4hUB+Bue151v/ri4ScWidwlDw+IM1a6XVtv16+j2691DiEwAYC0ba8ISfmIJAfAdp/fnVWS8S+O/8JKdoAoukfVwyvr6VEZAKB2QlE2+/sHkkBge4QoP13py5ai+Sl8uRf39HKryv9w4plVWulxxEENhCItuENOTEHgfwI0P7zq7NQxLspdYpr/tMamp8+4MbAUNWSuAKBae1y2voKLkkCgc4QmNa+p63vTEEIZDoBv7XsYmlapaZa76cDMAi0SSDa1tuMFV8QqJsA7b9uoh3O7x2KLVrhTac/qcP8CK1/BKLtuX9EKNGQCND+B1LbO6mcP5eiFd50+lsV49YDqROKmZ5AtD2nLwERQKA6gaTtn28BVK+4WVP+kRLsPGuiBNvvLp+nJ/CLSwhAAAIQaJEAX9JqB/YWcrNOymEAYCKOdS/pSf+DQaBBAv4FFDH2YRF6pE1NIGn75wxAO9V/otzkcvA3kT2lYz2DQQACEIBAPwkwem6nXr8rN79dk6trlM9npYuktZJtheS3Cp4qHSRhEBgKgS7sw5YJ9hGS36Wxv7RSWir5y542v2fjHmmNdL20WrpEultKbdFfoKnjT+0/2v6i/KP+U/Prvf/tVEKfSndFR/SY0vvafNFZm021/gzJ20Z8kRZ+ubQBNfUk5pt63dcul6qwelrpPBDwp7+dVyqrEjtpNtR5tN6iLKP+Sd8wgaOVf7SSfUB/zQxxHqltGQTEuUfrjfTN18EM3aKWTXdVLp+U6nyT50PK7xPSLlLbRhuNtdFofUX5R/2TvmECf6r8o5Vc5a78M2vwG42b9PG6h2Exw4a772+yX6S5D0oPSk3ViS8VfFTaXGrLmirLUPKN1lOUU9Q/6Rsm4Gv1kUq+Wul9an9WcxrfLxDxTVr4db0NzNovqmy/jxL9a4t96Ur52qtKoBXSdL1+ux5fBeQbJYmWb6PMZv2n6HryrHmx/fwEVsy/uPTSv9KWT5XeesOGTvO5Df8yBwEIVCDwZqXxAdkf8GrLDpajqySexGmL+ED9MABovuKXBF34DEJVu7BqQtJBAAKb/IEY/J3kG3nbtu3l0N/meHfbjvE3HAI8QtB8XT8hF75+WNUWK6FvOKpiTutrlhgE+kqgqX2YH6n9jNRU/mXrw6eIHcvnyyaYcTvnj1UnEG0fUf4h/5wBqF7xZVP6cZ+IRSo4kjYSM2khkDMBn/b/S6kL/ccxfFo6RsIgUCsBBgC14pw3Mz/iE7E9Aon9Rj8MAhAoT2BvbfoFqcqNt+W9zLalzyB+Wdp3tmRsDYFiAgwAivnUsfa+YCavDaSPpA24JSkEsiSwmaL+qpTimv80YL6c9yXJgwEMArUQYABQC8bCTG4sXDt9pa//Vfk14jROi0EAAuUInKXN2rzbv1xUG7Y6RLNnbviXOQjECDAAiPErk/qnZTYq2OYgrXtfwfqFVvkVowcstJLlEIDARgT8hr+PbLSkm//8icJ6fjdDI6rcCDAAaL7GLqvBxSeUx5Ez5HOUtv34DNuzKQSGTuAcARh/vKfLLHwp4OwuB0hs+RDowl2u+dCqFqk/A3yXFGX9uPLwTupcaaEXA/m0v3/5++Dv65kYBPpOINqvzMcf41kn5TAAcLx+LNg3+EbvL3Je0cfQnMeQLdr+ovxD/jkD0HzTvVsurqjBjd8P/t+lH0m+VulLA9uO5Hn/Kvix9OcSB39BwCBQksBJ2i6Xg7+L5H5/omcwCECg+wT8q9wjvZx0bPexEmEPCET7RB0IPECPxjFO7293fFA6UPKgwvK8l3ndeLvotI5LiwoHS0wg2g4Sh4/7MgR8itGn7aKV3VZ637jI2aEyNcs2UQLRNh31v0wZ+GVd0TgeUx6nS0X9xpfozpC8bdSfY14qYXkTiLaDvEs/oOh9I1+0sttK/94B1QtFTUsg2qaj0ftUejQGH9BfM0MgvqG3jkHAW2fwyabdJBBte90sFVE9i8AuWuK3AkYrvOn0tyjGrZ8VPQsg0AyBaHuORvXflEE0Bv/yn9XOVIKo30/O6pTtO0cg2gY6VyACWpiA7+KPVnjT6d+0cPisgUDtBKLtORrQN5VBJAZf1/ep/VnNaa6RIr6/MatTtu8cgUj9Oy2WEQHfnX+lFK30ptJ/JSOWhNoPAtG2HKXgN3VGYvDNfVXNT/NEfN9Q1THpOkMgUv9Oi2VGYC/Fe78Urfi609+qmPzOAgwCbRKItuNorPcqg0gMBwQCOCjo+56Ab5J2g0Ck7TktliEBP2L3hBSt/LrSe0Dyogw5EnL+BKJtOEogejPetoEAFittpPy/CvgmaTcIROrfabFMCbxLcdfx+FG0AXkHeGSmDAk7fwLR9hslEB0A+CBe1fzVwUj5GQBUJd+ddJH6d1osYwIeBKQ8E+CnEnw2AoNAKgKpd4BcAkhV8/g1gaTtv+ilFVRP8wQ+LxfHSQ807+pZHm7Tkt+Rzn/WGhZAYDgEou/Tf20AVSSt3UZjD4ROUghAoC4CL1BG35eio8Gy6S+SL3/+FINAagJl2+xC20XjT/kY4LUKfqFylVnOY4DR2k+fvkw9F22TvgREUAuBRcrFjxT5bEBRhUfW3am83yGFviCl9BgE6iIQac9OG7U6XgR0RoUgPqA00bLzIqAK4DuWJNoGOlYcwokS8LvJPybV+dZAf474P0nbSxgEukQg9Q7wBMGIxjDrjbRHyac/7x31e3yXKpJYKhGItoFKTknUfQI7KkS/YtRf/arytIBvLvy25E+d+lPCGAS6SCD1DtDvvqjSv+bG7UHAmdKmBZC9zr/86zj4P6V8lhT4YlUeBOa2o1n/D5WSU8EhfK0lXipPR0irpP0l3zPgzu9HkHwjp88W3C2tk3wvgQ/835XWSxgEukzAO7yI1bEPW60ADo0EMZHW1/U/J10orZVsK6TXSX8oRV4cpOS/se9p7pW/+Y+ZXAl0of3nyo64IQCBzAnM+otn7vZ1FP/9ymRuvl3/v64vdna9nNPii9b/tPynrc/afx2j5ygA0kMAAsMl4B1sxOrYh+2kAHz2bJtIIC2m9Rm/5VIdjwFG+bdY7HldRes/Wv6s/fv0MQYBCEBgyAR+qcJ/OiMA5yrWOg7+GRWZUJsgEB29NBETeUIAAsMhkPoX2Jj0Lpq5QYq823+cV5PTB5X5PpLv+anDovzriCGSR/QYFi1/1v45AxBpeqSFAAT6QsDvyPiTDArzEcVY18E/g+ISYpMEoqOXJmMjbwhAoP8EUv8CmyS8mf7xY7cHTy7s0PwVisV3/j9ZY0xR/jWGUimr6DEsWv6s/UeDr1RjJIIABCAwIpB6Bzy3IvbSgqukrr00y5/sfpm0RqrTovzrjKVKXtFjWLT8WfvnEkCVJkcaCECgrwRuUsFOker8lR1l5VhOluo++EfjIj0EIAABCECgMgH/AouosuMpCd+l9XW8ITBSNqd1DH8wJdbI6mh8qdNHyu600fhz9x+Nn/QQgAAEKhNIvQMuCvwdWlnHa3urltG//E8tCrCGdVVj60q6KIJoOXL3H42f9BCAAAQqE0i9A54W+DHawNffo3HOmt7P+R89Lbga1s8aV9e2jyKIlid3/9H4SQ8BCECgMoHUO+Aygb9AG/kbG9FYy6a/XL5Wlgmshm3KxtTV7aIIouXK3X80ftJDAAIQqEwg9Q64bOCLtOEHpQekaMwLpffHuz4s2VdbtlAsuSyPcoqWM3f/0fhJDwEIQKAygdQ74FkDX6YEH5P8Pv5o7OP0frvff5H8aeK2bRxDrtMor2i5c/cfjZ/0EIAABCoTSL0Drhr4jkp4uuQXB1V5WsBp/Mluf9XPeaWyKP/U6aPcovFn7T/6EoNo4UkPAQgMm4B3wBHrwj5sqQpwhLRK2l/yPQNLpMWSzWcL7pVulq6XVkuXSF6W2qL8U8cfrf9o+bP2Hw0+deXjHwIQyJtA6h1w3vSIPncCSds/bwLMvfkQPwQgAAEIQKACAQYAFaCRBAIQgAAEIJA7AQYAudcg8UMAAhCAAAQqEGAAUAEaSSAAAQhAAAK5E2AAkHsNEj8EIAABCECgAgEGABWgkQQCEIAABCCQOwEGALnXIPFDAAIQgAAEKhBgAFABGkkgAIHaCPhzuxEbv2wnkgdpIZCCwHZBp48F02/CACBKkPQQgECEgN+SF7E9IolJC4GEBPYM+o72HQYAwQogOQQgECPg795H7LWRxKSFQEIC0bYb7TsJi45rCEAAApts8k1B8OtQq+pqpd0UkBDIjIDb7LVS1XbvdN+IlplLAFGCpIcABCIEfhpJrLQHSe8L5kFyCLRN4P1yeEDQabTvBN2THAIQgECMwAlKHvkV5LS+GerIWBikhkBrBI6SJ9/8Gm33x7cWMY4gAAEINEBgZ+X5tBTdGXoQcKbE5QBBwDpJwG3zA1IdB/+nlI8/OY1BAAIQyJrAakUfHQCM01+jvM6SfGlgWwmDQEoCboNui2dL0Wv+4zbu6XelsC0K50AGEIAABGIEvqjkh8ay+E3qAzX3yd/8xwwE+knAfSZszwnnQAYQgAAEYgR2UvJ10jaxbEgNgUEQ8PP/y6XwY4A8BTCI9kIhIdBpAr9UdJ/udIQEB4HuEDhXoYQP/i4OZwC6U6lEAoEhE9hFhb9B4rr9kFsBZZ9G4EFtsI9097QNy6znjtkylNgGAhBomsB6OXhCel3TjsgfAhkT+LBiv7iu+DkDUBdJ8oEABKIENlMGl0kHRzMiPQR6SOAKlemV0pN1lY0BQF0kyQcCEKiDwF7K5Cpp+zoyIw8I9ITA/SrHy6Q1dZaHmwDrpEleEIBAlMBNyuAUqbZfOdGASA+BxATcF06Waj34u0zcA2AKGAQg0CUCvhnwdulNEmcpu1QzxNI2Ab/05w+lv2vCMQOAJqiSJwQgECXwA2XgXzzHSOynojRJnyMBv+73PdL/bCp4RtdNkSVfCECgDgIeAPy1xD0BddAkj1wI+Jq/T/tf0GTADACapEveEIBAHQReoEzOkw6pIzPygEDHCfhu/xOl2q/5zy03NwHOJcL/EIBA1wjcrIAOkz4k+UUoGAT6SOBhFeqPJT/q1/jBv48AKRMEINBvAstUvI9Jfh/6vyEY9KANeFD7XyR/GrtV4xJAq7hxBgEI1ERgR+XzNsmPDPpLguzLBAHLhoAHr37p1RclX96q5d3+ymcmo9PMhIuNIQCBDhJYqpiOkFZJ+0u+Z2CJtFjaXMIgkIrA43Lss1X3Sr6Udb20WrpE8jIMAhCAAAQgAAEIQAACEIAABCAAAQhAAAIQgAAEIAABCEAAAhCAAAQgAAEIQAACEIAABCAAAQhAAAIQgAAEIAABCEAAAhCAAAQgAAEIQAACEIAABCAAAQj8msD/D/hXkLZOvbL0AAAAAElFTkSuQmCC;" vertex="1" parent="1">
          <mxGeometry x="822" y="1194" width="42" height="42" as="geometry" />
        </mxCell>
        <mxCell id="dXWTu-7YxBk32f4qg5hx-65" value="" style="endArrow=none;html=1;rounded=0;" edge="1" parent="1">
          <mxGeometry width="50" height="50" relative="1" as="geometry">
            <mxPoint x="820" y="1168" as="sourcePoint" />
            <mxPoint x="1030" y="1168" as="targetPoint" />
          </mxGeometry>
        </mxCell>
        <mxCell id="dXWTu-7YxBk32f4qg5hx-66" value="" style="endArrow=none;html=1;rounded=0;" edge="1" parent="1">
          <mxGeometry width="50" height="50" relative="1" as="geometry">
            <mxPoint x="822" y="1256" as="sourcePoint" />
            <mxPoint x="1030.66" y="1256.5" as="targetPoint" />
          </mxGeometry>
        </mxCell>
        <mxCell id="dXWTu-7YxBk32f4qg5hx-69" value="1. Domain model can be mapping to data schema.&lt;div&gt;2.&amp;nbsp;The ORM framework can do the mapping.&lt;/div&gt;" style="text;html=1;whiteSpace=wrap;overflow=hidden;rounded=0;align=left;" vertex="1" parent="1">
          <mxGeometry x="880" y="1183" width="160" height="72" as="geometry" />
        </mxCell>
        <mxCell id="dXWTu-7YxBk32f4qg5hx-70" value="" style="shape=image;verticalLabelPosition=bottom;labelBackgroundColor=default;verticalAlign=top;aspect=fixed;imageAspect=0;image=data:image/png,iVBORw0KGgoAAAANSUhEUgAAAgAAAAIACAYAAAD0eNT6AAAAAXNSR0IArs4c6QAAAERlWElmTU0AKgAAAAgAAYdpAAQAAAABAAAAGgAAAAAAA6ABAAMAAAABAAEAAKACAAQAAAABAAACAKADAAQAAAABAAACAAAAAAAL+LWFAABAAElEQVR4Ae2dB7gsVZWFYXjknJNkBCSooJJFQASUARQJioBgeEYEnVEQRwERdQATOqiMIFlBBJEgklFEGRQkRwmSc3xkcNaCd+Gm7ttdtU91VZ1/f99673ZVnX32/k911e6K006DDSewuD4sJy0vrSAtI80nzTpVc+j/OaV/kzAIQAACEKgPgZcUymPS49KUqXpA/98iXSfdKN0g3SFhIjBtxhS8E3+jtKG0gbSe5B08BgEIQAAC7SXgAuEP0nnS+dKVkouH7Cy3AmB6jfCm0oekjaR5JQwCEIAABPIl8KBSP0c6Rvq99IKUheVSAKyk0dxR2llaUMIgAAEIQAACowk8rAknSkdLF42e2bbPbS4AnNu/S3tJa7Zt4MgHAhCAAASSEvi7vH9TckHwr6Q9Dch5GwsAn9vfTNpbesuAuNItBCAAAQi0g8BVSuMg6VjpxXak9EoWbSsAfF7/h5Kv4McgAAEIQAACUQSulaNdJV882Arzr+U22MJK4ijpbImdfxtGlBwgAAEI1IvAigrnXOlUabF6hVYsmumKNatNKxcwu0m/llavTVQEAgEIQAACbSXgZ8V8VHpKulRq7PUBTT4FML/A+1e/b+vDIAABCEAAAlUT8OkA31Z+b9UdR/TX1ALgHUr+OGmRCAj4gAAEIAABCBQkcL/a7SD5FHSjrGmnAFywfFU6XPIjeTEIQAACEIDAIAnMqs63l/wAoUY9O6BJBYBj/an0H1JbLl5UKhgEIAABCDScgPdJ75SWkk6TGvFo4aacAphRQH3IfysJgwAEIAABCNSVgO8S2E56uq4BDsXVhAJgLgVroOsOBc3/EIAABCAAgRoTuESx+YF0D9U4xtq/DXAWwTtHWqvOEIkNAhCAAAQgMIqAbxHcUHpy1PTafKzzuXS/ue8kiZ1/bVYXAoEABCAAgR4JvE3LnSL5FHYtra6nAFyY+LnLHxgQtVvU79+kG6XrJX+eIj0hPSY14gIPxYlBAAIQyIWA9xu+O2x2yVfmLy35ybDLS6tN/az/Kjdfv7ajxH6jR/Tf13J+ulJV8hOdfiHtLC0hYRCAAAQg0C4CSyqdXaTjJW/zq9q/uB+/TAjrgYB/9Vc1MH9UX14h5ughLhaBAAQgAIF2EPCRgo9Kvm+/qv3N1u1Aly6LZeXah9hTD4gHfcN0aeAZAhCAAAQaQmAdxek7zXyIPuW+53H593sEsHEIzKRpl0kpB+D/5N8XZmAQgAAEIACB4QTW1Ie/Sin3QfZf24sCh8Oo+u+DE4J/WL4/KfkiEQwCEIAABCAwHoHpNPEz0iNSqkLge+N1nPO0tyr5FxMB96/+pXKGS+4QgAAEINAXgcW09J+kFEWA93Vr9BVNixd2xeVb7qJB+3zOgZKfJ4BBAAIQgAAE+iHgfcd3peh9k/35hylHpAVh1wSA/VamyRIGAQhAAAIQKENgZzV+XoouBD5VJqg2tF1QSTwaDNYvYHhvG+CQAwQgAAEI1ILA+xSF9y2RRYCvTZu/FtkNKIjvBAN9Tv7ePaBc6BYCEIAABNpL4D1KzfuYyCLggPbi6p7ZvJrtR+tGwfQ5/50lDAIQgAAEIJCCwPZyGnnBul8UNF+KQOvucz8FGLXzt58v1T1h4oMABCAAgcYT2FMZRO679m08kT4TmEPLR95n6ac4TdtnDCwOAQhAAAIQ6JeA9zW/kaKKAF8H50cTZ2NfUKZR8G6Tr7mzIUeiEIAABCAwaALzKIDbpaj92O6DTqjK/q8IAufz/htUGTh9QQACEIAABETgnVJUAXBZLkTfHAjt6FygkScEIAABCNSOgF8jH1UErFJ1doM4b+5b/3wKoKz5rYErSPeWddRD+zdpmW2ktaSFJL+4qJv5VpH7Jb/44STJj5Sswiapk82kLaTlJT9nYaKnTU3RMv+ULpD8nuw7pCrM97/69ZibSH7s5lzSRHafFrhVOk36jeT7crH+CCyuxbeT3iH571klDAKdCPgoq79310u/lU6XfBU89gqBRfTfdZKvaytrfnJtqy9m9w7qHimiYtpHflKbd/YnSv4SlIn5XLVP/RrIDdXHtSXjfEbtXaBNVOBokcLmguTL0uNSGaYuWraVsN4IeEz9EpJnpTLcaZs3v2u0/nDaVRCGWdQdbXfJ53TD/LbuT793OWIDUsW9kyspVv8ajojXPh6W3iGlsE/IaeSjKv8sf77IJdpmlMNTpCim9vON6CBb6M9j+Rcpkju+8uXpbQ2PWn9tQ+Fn2pT9QTP0fVrjNbft++u/lNJQomX+T/30JB+evjUo1uF5ugh4vRRpm8tZ5IMphuI9W359xCbSfi5nQ/4j//9UZJAt8+UxPC8R98gxxFea70Yqrn7fip+Mh71C4CD9F8HaR0dbaxEbIh+OXyYxocPkP2Iwx/NxfmDsPn97d8JYfWQhyjaVo/F4REx7Sr4Xiwq0ZX4+k5B7xNjhI933IjVbH7L2Ngh7ZZ9U9lSxx+ustsL0OUhftFV2pfxDYkDekbi6LRtnt/ZrB+WwW+I4fQrE5+wj7CI56cak7Dyf38ZGEvDY3SmVZUt7GHZaB3Yducpl/ckXe3fi1Ov0KfLhU6WVWNTGvZdgfQW9i4CydnRZBxO0f6/mTzfBMmVnb1XWwdT2UX46hfM6zVi908w+pi+sZT3+Kc0sBnFXS8qcyvpeUw4WLeuE9hDoQiD1NqhL17WbdVRARLPIh7+3lViVBcBqARm5ivJFZClt1ZTOp/qOYGFXUX66pRzRh5/9kHpdW1x9+GIc7DUCEWP3mjf+gsBYAqxjrzEZusD5tSnF/qqMaeqN8vD0lx/+oeDfV6ud769PaQukdD7Vt28vLGuuFGcr66SH9gv2sMxEi/iiyiosItYq4qyqj6q4V5UP/dSPgO9/97YIe+WZNNcFgEh9y/irIVZZAKzwaq/F//BFhKnt8dQdyP+jAX34ego/cCi1RcRaBVNziIg1Nc8q/VfFvcqc6KteBJ5VON4WYa8QiNhHRfxY7mk8qiwAIpK6uKesyi10c7nmPbWO6MOnQ27pqbdyC/2jXPOXW0f4mCgMPxvCTyzDXiMQsZ695o2/IDCWgL/b3hZhrxDwhYBlLeLHck8xVFUAzK1oIg6tRxxemQjM6RMtEDDfj7KNsNSxurI/NyDQq+Tj1gA/3VycqZkvdFsgw3keu2cyzJuUqyMQtS2rLuK0PUXso3zRdMSjhdNm2of3FbWsq8QyelHtI+4i6CVsH2koE2u3trcF5rGUfPkQXLf+ysw7WL6j7D/lqEwsE7Xl8aTjj9QhiblPNC7MT7veD5Kvtz2pn8ky/lpd36kzKzTvq8qOS2XXAVSBco0AILdWEejUPtbS/z6/XnYQR7d/ST7fP7WPqP++nSBOx32PFHHUZihPF2/XSKOZRHz+xVAn/D+GgC84vVeK4IwPOA5fB/Yfs7YxwQRul4ZzKvL3W9uEcqMAIH6zXpX2MXUWUckNH/yvJ0jAzyzwYbjh/ZT9+wn5cxEUbcvKYfTOyOsFTyPrPlLraPaTUtn1gvYwHFoHTtX6lPp5Kd3X6vrOvSzgu9aqI5rvDQBy/gDGe0v1+VBA7N74fiJh/JPk+/tSRMFyg/y8MWGsi8v3JdLQhqTM//7lz86/t8F6kxa7MYh7mTGjbcy6PyiO3sZ8V/I2BxufwIWaXHZ8thjfdTOn7hgAxBXnIMwXMO4r+eKOfgf1NrXx63UXkaowb+SPlPotWvyl9nUPfqnO9FJq88WnH5TOkfxmsX64+ujEr6T1JKw/AjNo8U9Lf5YiisV+xo1l+1vP68brQa0z3rak/HEg962wiCOyO1RBYtoqOlEfH5cOLdnXiWq/TUkfZZvPJQd+tKrPZ3czXz9wj+QvzSDMO9gFp2qiw3Teod4pPSUNwszSBZILrYnMpw98qx9X+09EauL5fnjLYtJsEy/KEhkTcKHo75zla5iwiQn4B8rWEy/WdYnJmvu/XZcImFnVYZyIQsMV8aDND5qx6m7+oroAsepuvk3tlroH2cL4XPD5dA8GAQjEEojYV0XsMyfMqqrnAEwYCAtAAAIQgAAEIFAdAQqA6ljTEwQgAAEIQKA2BCgAajMUBAIBCEAAAhCojgAFQHWs6QkCEIAABCBQGwIUALUZCgKBAAQgAAEIVEeAAqA61vQEAQhAAAIQqA0BCoDaDAWBQAACEIAABKojQAFQHWt6ggAEIAABCNSGAAVAbYaCQCAAAQhAAALVEaAAqI41PUEAAhCAAARqQ4ACoDZDQSAQgAAEIACB6ghQAFTHmp4gAAEIQAACtSFAAVCboSAQCEAAAhCAQHUEKACqY01PEIAABCAAgdoQoACozVAQCAQgAAEIQKA6ApOq66p0T+vJw9mlveAAAhCAAAQgkI7AKulcx3puUgGwoFK3MAhAAAIQgAAEShLgFEBJgDSHAAQgAAEINJEABUATR42YIQABCEAAAiUJUACUBEhzCEAAAhCAQBMJUAA0cdSIGQIQgAAEIFCSAAVASYA0hwAEIAABCDSRAAVAE0eNmCEAAQhAAAIlCVAAlARIcwhAAAIQgEATCVAANHHUiBkCEIAABCBQkgAFQEmANIcABCAAAQg0kQAFQBNHjZghAAEIQAACJQlQAJQESHMIQAACEIBAEwlQADRx1IgZAhCAAAQgUJIABUBJgDSHAAQgAAEINJEABUATR42YIQABCEAAAiUJUACUBEhzCEAAAhCAQBMJTGpQ0H9RrN9tULyECgEIQAAC+RH4glJeswlpN6kAuENAf9UEqMQIAQhAAALZEthGmTeiAOAUQLbrKIlDAAIQgEDOBCgAch59cocABCAAgWwJUABkO/QkDgEIQAACOROgAMh59MkdAhCAAASyJUABkO3QkzgEIAABCORMgAIg59EndwhAAAIQyJYABUC2Q0/iEIAABCCQMwEKgJxHn9whAAEIQCBbAhQA2Q49iUMAAhCAQM4EKAByHn1yhwAEIACBbAlQAGQ79CQOAQhAAAI5E6AAyHn0yR0CEIAABLIlQAGQ7dCTOAQgAAEI5EyAAiDn0Sd3CEAAAhDIlgAFQLZDT+IQgAAEIJAzAQqAnEef3CEAAQhAIFsCFADZDj2JQwACEIBAzgQoAHIefXKHAAQgAIFsCVAAZDv0JA4BCEAAAjkToADIefTJHQIQgAAEsiVAAZDt0JM4BCAAAQjkTIACIOfRJ3cIQAACEMiWAAVAtkNP4hCAAAQgkDMBCoCcR5/cIQABCEAgWwIUANkOPYlDAAIQgEDOBCgAch59cocABCAAgWwJUABkO/QkDgEIQAACOROgAMh59MkdAhCAAASyJUABkO3QkzgEIAABCORMgAIg59EndwhAAAIQyJYABUC2Q0/iEIAABCCQMwEKgJxHn9whAAEIQCBbAhQA2Q49iUMAAhCAQM4EKAByHn1yhwAEIACBbAlQAGQ79CQOAQhAAAI5E6AAyHn0yR0CEIAABLIlQAGQ7dCTOAQgAAEI5EyAAiDn0Sd3CEAAAhDIlgAFQLZDT+IQgAAEIJAzAQqAnEef3CEAAQhAIFsCFADZDj2JQwACEIBAzgQoAHIefXKHAAQgAIFsCVAAZDv0JA4BCEAAAjkToADIefTJHQIQgAAEsiVAAZDt0JM4BCAAAQjkTIACIOfRJ3cIQAACEMiWAAVAtkNP4hCAAAQgkDMBCoCcR5/cIQABCEAgWwIUANkOPYlDAAIQgEDOBCblnDy5t4rATMpmOWlpaQ5p1qn/P6b/p0j+/+apek7/N9XmV+DrSq+TZkmQxL/k81HpSekR6QbpdulFqY42s4J6u7S4NG8dAywY0/Nqd5/0d+magj5oBoGuBCgAuuJhZo0JLKzYNpI2lLwDWErq5YiWd2QuBC6UzpfOkR6U6m5vVYDfkJzzdBUH+6z6u1q6QDIz6ylpkObx/5q0o+Rir812k5LbXzpaeqnNiZJbOwlMVlr+ZVFGJ7QTDVn1QcAb+p2ksyXvyMusT0Nt/UvrVGk7aUapjrangorKdyjvMv8/oXiOlFyMTCtVbW9Xh/dLZXJoYtvfK+e5q4ZNf30T8L6q7PrlfWZrjAKgNUM5kERmV6+7SfdIZb9Y3dr7kOs+kk8h1MX2ViDdYh70vKsUn4uySRUB8+kPH5EYdN6D6v+vyj3FqZ+Khi+LbigARg0zBcAoIHzsiYAPdX9O8rnoKje4LgR2kQbx61bdvmob6C8f8q0y96J9Xas4fTompc0l5zn+8h89Jj9ICRnfpQk0pgDo5ZxpaRo4gEABAqupzaWSN3be8FdpC6izw6U/Sm+osuNRfR2gz4MuQkaF1PGjOZ0rHSfN13GpcjO+pOa+CDJ3+5QALJM7BPIvT4ACoDxDPMQT8BGji6VV41335XEdLf036eN9tYpZeGW58YV/TbMPKuDLJZ+njzQXQjtGOmywr+kV+4caHD+h14QABUBNBoIwXibgi/COl34q1eWCvJkVy6HST6SqznOrq+SH091HKvMtiudJuwZ24CMM9ou9QuCdgIBAWQIUAGUJ0j6KwGxy5Kvxt41yGOznE/J3kuSCoApbvIpOEvbhYulgyadwIk5jLJYw1ia6bvr60UTmrYuZAqB1Q9rIhHzV/fnSu2oe/eaK73TJDx1Kbb7zoQ3mizhdCJQ1tlUjCfoCWQwCpQjwpSqFj8YBBGaQjxOlppzv9pX5Pk1R5ekAdddo+6yi/1rJDO4u2b5tze9sW0LkUz0BCoDqmdPjSAJH6GPdf/mPjHiaabbQhO+OnsjnrgT21dyduy7RfaafRPhg90WymntBVtmSbBICFABJsOK0RwKf1nK+aryJ5gvctm9i4AOM+cfq+00F+39R7Xx/NfbKcyF+CQgIlCVAAVCWIO2LEvCO4DtFG9ek3SGKY+maxNKEMHztxC+kohdS7q+2U5qQaOIYzfDKxH3gPgMCFAAZDHINU/R659vqqriYLmX6c8q5f9VivRPw7Xx79b74iCV9HcBOkp+Ml6vdqsR3yzV58o4lQAEQyxNvvRGYrMXW7G3R2i+1sSLcqvZR1itAP9FvhYIhnaR2u0h+H0BudoUS9kWoXAuR28gnypcCIBFY3HYkMJvm7NdxbjNnHKSwuSug97GbQYt+q/fFxyx5pKasLp05Zk47J/jti/tIa0u3SxgEQgiw0QrBiJM+CPiBOqmeFe8wvLG8XrpXekhyX4tI/sU5i5TClpJTP5rVO6Y62SUKxr8a+7EZtfBC0qKSD9enut98S/leRfLbBIuYz4G/W1pC2nTq//Pq/7K2mRw49zJ2jhrfUsaB2j4v3SddLp0rPS1hEGgkAR/y9Xm7MuIK4EYO/YigvXO5q+R6MN465I3lzyXvCNzHeDazJnqn8wvJV5SP56fMtOvkM/KImh+HXCYet91DKmPeofqc+3lS2VjGa39cmeAStT07INdtEsWG22YQ8L5qvPW9n2neZya3yA1W8mDpoPEE/l0Z+Nd4pP1GzlaSdpF8SLjTuWH/gjpF8m2Hq0n+lRZpPsKwXqTDGvjyEZSjpA0l/9q+Roq098tZxK/2yJjwBYFsCFAAZDPUtUjUvyajzL/i95TeJ93Yp1MfFt9YcvuX+mzbbfEdu81s+DwXV35a47GBecwgX9sF+sMVBCDQBwEKgD5gsWgpAnOrtX9FRph32n5p0H+XcObDcW7/8RI+RjfdWhO8U2urPaPEXOT8KDDB7QN94QoCEOiDAAVAH7BYtBSB9dV6+lIeXmvsX+6+HSzCDpeTAyIcyccc0hpBvurqxoXT7pJfihRh5mVuGAQgUDEBCoCKgWfc3QZBuf9Ofg4M8jXk5sv64y9DH0r+v2HJ9k1o7tMvPhIQcT+670RarwlJEyME2kaAAqBtI1rffNYNCM07Hj9EJtp8SiHKb0Se0fml8PeInO4f5DgXZkG4cAOBGAIUADEc8dKdgNez5bsv0tPcX2upq3tasv+F/qgm5/bfbEyLN4yZ0t4Jhyi1+wLSy4lZAC5cQCCGAAVADEe8dCewmGZHPIQn9bMgftU9jZ7m+jbH2XtasvkLPacUfhuQRkRxGBAGLiCQFwEKgLzGe1DZ+kl5Zc339/++rJMJ2ntn5ovcyti0arxkGQcNaxtRAESsHw3DRrgQGDwBCoDBj0EOEcwZkOTt8vFkgJ9uLu7RzIe7LdDjvJyuao84JeNbJ2fqkS2LQQACQQQoAIJA4qYrAb8AqKx551yF3R3QSS6nAIzKvMoeNbGfnJg5XwwCAydAATDwIcgigIjz/xG3nPUC+4FeFppgmYiCZ4IuajPb1wE8HRBNxDoSEAYuIJAPAQqAfMZ6kJn6vHhZ8616VVhEPxH5VpFrRB8udiJ23qlP70Tkig8ItIoABUCrhpNkIFA5gbKvzh0K+ImhP/gfAhCohgAFQDWc6QUCbSXwtoDEpsiHTyVgEIBAhQQoACqETVcQaCGB9wbkdHOAD1xAAAJ9EqAA6BMYi0MAAq8SmEd/bfLqp+J/3FC8KS0hAIGiBCgAipKjHQQg8BUhiLjjIeJZAowGBCDQJwEKgD6BsTgEIPAyAT++9zNBLC4M8oMbCECgDwIUAH3AYlEIQOBlAn5oz6+lGQN4PCUflwT4wQUEINAnAQqAPoGxOAQyJ+Cd/0nSSkEc/AZGv+cBgwAEKiYwqeL+6A4CEGgugaUV+inSyoEpHBPoC1cQgEAfBDgC0AcsFoVApgT8pL89pMukyJ3/4/J3qoRBAAIDIMARgAFAp0sINICA3863rrSltI20oBRtP5PDiPcIRMeFPwhkQYACIIthbkWSGymLv1aQyesr6KOqLnZVR95592O+sG9had5+GhVY9hm1OahAO5pAAAJBBCgAgkDiJjmBudXDW5L30q4O/Jz+qGf1R5Pxr/97op3iDwIQ6J0A1wD0zoolIQCBGAIPyc2+Ma7wAgEIFCVAAVCUHO0gAIGiBL6khg8WbUw7CEAghgAFQAxHvEAAAr0ROFOL/by3RVkKAhBISYACICVdfEMAAsMJ3KUPO0n/Gj6RvyEAgcEQoAAYDHd6hUBuBHzV/3bSA7klTr4QqCsBCoC6jgxxQaA9BF5UKjtIf2pPSmQCgeYToABo/hiSAQTqTMA7/8mSXx6EQQACNSLAcwBqNBiEAoGWEfBLfnzO/4SW5UU6EGgFAQqAVgwjSUCgdgTuU0Q+539h7SIjIAhA4GUCnAJgRYAABKIJeKe/msTOP5os/iAQSIACIBAmriCQOQG/3e/z0juluzNnQfoQqD0BTgHUfogIEAK1J+AL/Y6T9pTY8dd+uAgQAq8QoABgTYAABIoSeE4Nj5W+Ld1Y1AntIACBwRCgABgMd3qFQFMJ+Cl+/ycdI/1S4pn+goBBoIkEKACaOGrEDIHqCDysrm6QrpAukM6X7pcwCECg4QQoABo+gBmF/wflul8F+f63+vAV7G2wnymJ4/tM5CUt/5jkC/oekfiFLwgYBNpIgAKgjaPazpx8X/k5FaTmX7xtsZuVSBXM2sKLPCCQFQFuA8xquEkWAhCAAAQg8AoBCgDWBAhAAAIQgECGBCgAMhx0UoYABCAAAQhQALAOQAACEIAABDIkQAGQ4aCTMgQgAAEIQIACgHUAAhCAAAQgkCEBCoAMB52UIQABCEAAAhQArAMQgAAEIACBDAlQAGQ46KQMAQhAAAIQoABgHYAABCAAAQhkSIACIMNBJ2UIQAACEIAABQDrAAQgAAEIQCBDAhQAGQ46KUMAAhCAAAQoAFgHIAABCEAAAhkSoADIcNBJGQIQgAAEIEABwDoAAQhAAAIQyJAABUCGg07KEIAABCAAAQoA1gEIQAACEIBAhgQoADIcdFKGAAQgAAEIUACwDkAAAhCAAAQyJEABkOGgkzIEIAABCECAAoB1AAIQgAAEIJAhAQqADAedlCEAAQhAAAKTQAABCECgBQTmUg7zBOQxc4CPBeRj6ZJ+nlf7+6VnS/qhOQQ6EqAA6IiGGRCAQM0JbKj4JkubSnPWKNYfBcZynXydLB0s3RfoF1cQmIZTAKwEEIBA0wjMrYB/K50rbSfVaeevcELtDfK2l3Sz5GIHg0AYAY4AhKHEEQQgUAGB+dTHH6UVKuirTl3MpmB+Ki0u/VedAiOW5hLgCEBzx47IIZAbAW+vTpRy2/kPH+ev6MMHh0/gbwgUJUABUJQc7SAAgaoJbK8O31F1pzXs7/uKafYaxkVIDSNAAdCwASNcCGRMYLeMcx+euu8y2Hb4BP6GQBECFABFqNEGAhComsDC6vAtVXda4/42r3FshNYQAhQADRkowoRA5gSWU/7TZs5gePrmgUGgFAEKgFL4aNwjAT/UpKxF+Oglhhd6WWiCZSJirUscE6Ra2ew23+pXBKJvhcQgUIoABUApfDTukUDEA0zu6bGvsovdW9aB2t8d4COCWUQcAamEuHggxEt7nESsH+2hQSaFCFAAFMJGoz4JXKnl/9Vnm9GL20cVdkXJTp5T++tL+nDzsnHYR1XM3Fdqu1YdRBxZSR1nVf4j1o+qYqWfmhKgAKjpwLQsrDuVz6UlcvJO9fQS7ftpeooWfqmfBqOW9dPpHh81rcjHs9XoySINp7a5Qf97p9kWe0yJnNeWZALy8OOBMQiUIkABUAofjfsg8M0+lh296CGa8NDoiYk+3yq/vyjhe/8SbYc3fUofvjd8Qp9/79fn8k1YPIptE3LtFuNVmvnbbgswDwJ1IjBZwfgQcBmdUKeEiKUQAY9hv+vATWozd6HeijdaRE19/rzfWF2oRJof/+rD+P3GcYbatLW49+Nw++XRpuWfUf5rSFh9CRTZzo1eR73PbI1RALRmKEslMota+xD56JW90+d/atlBPfbV95z7QqtOsY2e/hstO70UbUvKoYug0f11+vxnLetX47bVZlBiPk3TKf82T/fOf9u2DmyL8qIAGDWYFACjgGT80TvJb0pPS9021idp/oLSIG0JdX6W1C1On6ffS0r5i3se+T9O8rUJnWLxdRJ+ROxMUtvNrL8imX0nHm2bfoVy5Ze/IDTAGlMA8DbABqxNLQvxeeXjHeZPpO2lTSS/4cw7Ll8seJH0S6nMRYNqHmK3y8vG0tsl//JaU1pUmiLdJp0pHSvdK6W0h+XcrA6QPiCtJ5mZWfooyTmSC4R/SDmYCyFfD3CY9CFpU2lJaV6pLeax9RGoyyVf8Odz/s4bg0DjCExWxGUrcldVGAQgAAEIQKDOBBpzBCDlYcs6DxCxQQACEIAABLImQAGQ9fCTPAQgAAEI5EqAAiDXkSdvCEAAAhDImgAFQNbDT/IQgAAEIJArAQqAXEeevCEAAQhAIGsCFABZDz/JQwACEIBArgQoAHIdefKGAAQgAIGsCVAAZD38JA8BCEAAArkSoADIdeTJGwIQgAAEsiZAAZD18JM8BCAAAQjkSoACINeRJ28IQAACEMiaAAVA1sNP8hCAAAQgkCsBCoBcR568IQABCEAgawIUAFkPP8lDAAIQgECuBCgAch158oYABCAAgawJUABkPfwkDwEIQAACuRKgAMh15MkbAhCAAASyJkABkPXwkzwEIAABCORKgAIg15EnbwhAAAIQyJoABUDWw0/yEIAABCCQKwEKgFxHnrwhAAEIQCBrAhQAWQ8/yUMAAhCAQK4EKAByHXnyhgAEIACBrAlQAGQ9/CQPAQhAAAK5EqAAyHXkyRsCEIAABLImQAGQ9fCTPAQgAAEI5EqAAiDXkSdvCEAAAhDImgAFQNbDT/IQgAAEIJArAQqAXEeevCEAAQhAIGsCFABZDz/JQwACEIBArgQoAHIdefKGAAQgAIGsCVAAZD38JA8BCEAAArkSoADIdeTJGwIQgAAEsiZAAZD18JM8BCAAAQjkSoACINeRJ28IQAACEMiaAAVA1sNP8hCAAAQgkCsBCoBcR568IQABCEAgawIUAFkPP8lDAAIQgECuBCgAch158oYABCAAgawJUABkPfwkDwEIQAACuRKgAMh15MkbAhCAAASyJkABkPXwkzwEIAABCORKgAIg15EnbwhAAAIQyJoABUDWw0/yEIAABCCQKwEKgFxHnrwhAAEIQCBrAhQAWQ8/yUMAAhCAQK4EKAByHXnyhgAEIACBrAlQAGQ9/CQPAQhAAAK5EqAAyHXkyRsCEIAABLImQAGQ9fCTPAQgAAEI5EpgUq6Jk/dACMygXteQVpFWlJaR5pRmk6aXnpAek+6Qrpeukf4kPSphEIgi4B8+b5a8Li4vLSvNJ80qzSK1yR5XMlOke6UbpOuki6TbJCxzAhQAma8AFaTvnfu20lbS+pI3sv3Yi1r4Uul06UjJxQEGgX4JuMDcVNpBepc0t5Sz3arkT5WOkv6WMwhyT09gsrr4V0mdkD5MeggksLR8/VTyL5CyYz/U3sXAGdKGEgaBXgj4CNOXJf8CHlqP+H8ki7+LzQek6SSsPAHvq8quY95ntsYoAFozlBMmsoiW8I7/Oansl6Bb+/Pk34dwMQiMR8BHNz8vPSJ1W4+Y9xofn3bbRMLKEWhMAfBv5fKkNQRGENhZn3ze3gWfD7mmtA3k/GLpe1Lbztum5JaD71WVpA9rf1eaK4eEg3L09RBnSsdL8wb5xE2NCVAA1HhwGhTaHIr1FOnnUpUbXK+/u0tXSCtLGAQ+IwR/lt4IisIEfM3OZdLahT3QsBEEKAAaMUy1DtJX8nuDu8UAo/RV3I7hfQOMga4HS8Dnr38s/UiacbChtKL3xZXF+dIHW5ENSYxLgAJgXCxM7JGAf3V7x7tij8unXMx3G5wo7ZyyE3zXkoDP9/9C+mQto2tuUDMo9GMkH1XBWkiAAqCFg1pRSsupn7Ok+Svqr5duvD4fJvlWLywPAtMqTV90uk0e6Vaepb9TP5R2qbxnOkxOgAIgOeJWdrCYsjpXWriG2XmdPkIa5CmJGmJpbUjfUGYfaW129UhsqMh6Zz3CIYooAhQAUSTz8eP7qk+TXlfjlH0++JfSOjWOkdDKE3i3XOxZ3g0eeiDgu3qOk3ybL9YSAhQALRnIitKYWf1459+EK6wdq+9MWEHC2kdgAaV0lMQ2rLqxNXPf6YO1hABfnpYMZAVpeF05Wlq3gr6iuvC9zGdLPmWBtYvAAUrHz+/HqiWwsbrzUwOxFhCgAGjBIFaUgm+ven9FfUV241MVp0pzRDrF10AJrKXedxpoBHl3/h2lz8O3WrAOUAC0YBArSOG/1MenKugnVRdvkmOfDuD+8FSEq/W7t7rzhWnYYAj4OoDJg+maXiMJUABE0mynL9/+8/UWpLa+cjhCYp0XhAbbaop9kwbH35bQ/1OJzNCWZHLNg41hriPfW97v0WKHSm35teVzl76nGWsuAX551mPsFlUYm9UjFKIoSsBP0MIgMB6B1TXxBCnVOjJFvs+Q/Fa/u6TnpQWlVaWtpFQX7n1avm+RfB4TaxYBn8LZNjjk5+TPL8Dxunib9KDUFvPtsP5OrSS9V4p+e6avwzhZwiDQlYCr9n+VlHdGWDUEXq9u7pfKjtl47Z+R329Ks0udzEcc/Gv9n9J4PspOe1F+eca5IDTMfN9/2bEf3v7X8rdUwxiUCXcDNb5aGs6gzN/+Lvt2W2wkAe+rynB121Yd6aIAGLmC1PnTQgruH1LZFXi89vfJr8/h9mq+cv9caTxfZac9K7882azXkajHcgcErgtfqUdKlUfhd2acHshxo8ozqH+HjSkAuAag/itTlRH6V7k3Dksn6PRe+Xy7dFkfvh/Xsu+RHFO0zSCHJ0lvjnaMv2QE3hHk+Qfys3+Qr6a5eVIBbyP18z3slmPUmHTrg3mJCFAAJALbQLfTK+ZfSf38Qu81zSe0oC8YurHXBsOW8y91b7AuHjYt6k8fYThLWjbKIX6SEfBpoRUDvN8qH3sE+Gmyi6cU/M6ST4WVNV9fgDWUAAVAQwcuOGxvXA+XUtxe5Yus/AChMr84nlb7LaUiBYSadbX5Nfc0ab6uSzFz0AR81bkPX5e1b8qBi8rc7SoB8BGwsrZ8WQe0HxwBCoDBsa9Tz/+tYHZIEJDP039UOjvAt6/O3lTyqYRo80bsVGmWaMf4CyOwWIAn/+L9TYCftrg4MSCRiHEJCAMXRQhQABSh1q42n1Y6X0yU0pfk95hA3z58u7H0aKDPIVdr6o8TpFS3PQ71w//FCHS7a6RXj77904Uk9gqBSwNA+KgM+5EAkINwwcANgnp9+vQ91T9MFI4vtDoogW8funTcPrUQbb5O4ZBop/gLITBrgJcUR48CwhqYi7sDevbpw4ixCQgFF/0SoADol1h7lvfVu0dJKdYB/5L+QkJUPqXwYemlBH18XD73SeAXl+UIRByZ4dz/yDGI4hExNiMj41MlBFJs/CsJnE5KEVhZrf0ErxlLeRm/8YWa7CeEpdg5D+/xl/qw5/AJgX/vLV+fDfSHKwhAAAK1I0ABULshSR6QX497hjR3gp78lLH3SVG/LCYK8UAt8L2JFio4//tqt1XBtjSDAAQgUHsCFAC1H6LQAOeVN9/3nuLK3Tvl9z3SI1KV9h/q7OgEHU4nn8dI6yTwjUsIQAACAydAATDwIagsAD+z27dAvSFBjw/Lp6/OvyOB74lc/ksLfEyKuNVwdF9mdoq0wugZfIYABCDQdAIUAE0fwd7iH/o1u25vi/e11NBDeq7rq1Xswr4jYGvp77FuX/bmoyYuLlIcNUkQLi4hAAEI9EaAAqA3Tk1fKtX5bD9YxQ8QuqgGgPzeAN/Gd3uCWIaum5grgW9cQgACEBgIAQqAgWCvtNOUV7TvrkwiHicaBcT3Nfs6BJ+SiLaUd05Ex4o/CEAAAhMSoACYEFGjF/C58X0SZfB1+f1RIt9l3F6rxi4CnirjpEPb9TX9SInvTQdATIYABJpDgA1Zc8aq30h9OPzH/TbqcfljtNw+PS47iMUuUacfkF5I0Pl28vnDBH5xCQEIQKBSAhQAleKurLO3qafjpUkJejxdPneRfPV9ne1UBfeZRAF+Wn59+yEGAQhAoLEEKAAaO3QdA19Wc06TZu24RPEZl6qpfwGn+GVdPKrOLQ/VrP07zy4150C19hMPMQhAAAKNJEAB0Mhh6xj0wprjW9YW6LhE8Rn/UNN/l6YUdzGQll9Vr4cn6Hla+fyZ5OcfYBCAAAQaR4ACoHFD1jFgvy7Vh+eX7LhE8RkPqOm7pfuLuxhYS5+qmCz5gT7RNr0cniitGu0YfxCAAARSE6AASE24Gv8pd0RPKIVNpZuqSSVJL35ewfbSnxN4d+H1e8mnXjAIQAACjSFAAdCYoeoYaMpD0c+r122kyzr23pwZvi1wC+mGBCHPL5+/k1KcekkQLi4hAAEIcD9zG9aBg5REiovRfOj845J/3bbFHlQiPpVxb4KEUl58mSBcXEIAArkT4AhAs9eAzyj8LyRK4Uvye2Qi34N0e6s698WMTyYI4m3ymer2ywTh4hICEMiZAAVAc0ffD7o5OFH4h8ivjyy01f6mxLaU/BKhaNtMDlM9gCk6VvxBAAIZE6AAaObgr6+wj5BSjJ9/we4qtd3OU4K7SCkeaPQx+d1HwiAAAQjUlkCKHUhtk21JYKsoj5OlGRPkc4F8flh6KYHvOro8TkHtlSiwveX3s4l84xYCEIBAaQIUAKURVuog5Wtpr1Ym75OerTSjwXf2bYXwg0RhpHoNc6JwcQsBCOREgAKgOaM9r0L1U/5cBETbnXLoN+g9Gu24If58IeWvEsQ6nXweI62TwDcuIQABCJQiQAFQCl9ljWdWT7+VVkjQ40Py6cfZ3pHAd1Nc+pTHDtK5CQL22PkphCnGLkG4uIQABHIhQAFQ/5H2r8hjpbUThPq0fL5Xui6B76a59B0BW0lXJAh86OjNYgl84xICEIBAIQIUAIWwVdrI56ffl6BHPx7Xv3ovSuC7qS4fV+A+FXJ7ggRSXr+RIFxcQgACbSdAAVDvEd5X4flhPylsdzk9KYXjhvu8W/G7CHg4QR4ry2eqOzgShItLCECgzQQoAOo7un4M79cShfd1+f1RIt9tcHutkvCpkWcSJLO+fPoJi3z3EsDFJQQg0DsBNkK9s6pyST+q1k/jS2GHyanvUce6E/ijZm8n+VRJtNnvD6Od4g8CEIBAPwQoAPqhVc2yq6ubX0qTEnR3unx+MoHftrr0nRepHubzafn+j7aCIy8IQKD+BCgA6jVGyyqc06RZE4R1qXz6l+cLCXy32eVPlNy3EyV4oPzulMg3biEAAQh0JUAB0BVPpTMXUW9+0I/fLR9tN8uhTytMiXaciT8/LvjnCXKdVj5/Jvk5DBgEIACBSglQAFSKu2Nnc2iOD88v2XGJ4jMeUNN3S/cXd5F9y3+JwCekMxOQmF4+T5RWTeAblxCAAAQ6EqAA6IimshkzqCfvAN6coMcn5HMTyUcAsHIEnlfz90t/Kedm3Naza+rvJZ8CwiAAAQhUQoACoBLMHTsZOgT8ro5LFJ/hHdbW0uXFXdByFIGn9Hlz6cZR0yM++tTP76QFIpzhAwIQgMBEBCgAJiKUdv535H7HBF34kPXHpLMS+M7d5YMC4FMq9yUAkfIi0ATh4hICEGgyAQqAwY3eF9X15xN1b99HJfKN22mmuUUQfFHlkwlgvE0+j5cmJfCNSwhAAAKvEqAAeBVFpX98QL2lurXMDxDykQUsLYG/yr2fFvhcgm42k88fJ/CLSwhAAAKvEqAAeBVFZX9soJ6OkFKw9y/HXSWsGgLnqpuPSD7lEm0+hbNPtFP8QQACEBgikGInNOSb/8cSWEWTUr0M5gL5/rDkd9tj1RE4Vl19NVF3e8vvZxP5xi0EIJA5AQqA6laApdSVL8qbM0GXV8unXxn8bALfuJyYwP5a5OCJFyu0xPfVaqtCLWkEAQhAoAsBCoAucAJnzSdfvsVroUCfQ67u1B9+fe2jQxP4fyAEfEHnrxP0PJ18HiOtk8A3LiEAgYwJUACkH/yZ1cUp0vIJunpIPv0Y2TsS+MZlfwR86mUHyW8RjLahdWiFaMf4gwAE8iVAAZB27P3r7Thp7QTdPC2fW0rXJfCNy2IEnlGzzaUrizXv2mpezfW7IhbruhQzIQABCPRIgAKgR1AFFvNT/g6VfKtYtL0oh/61+adox/grTeAxefApmX+W9jTWwes06QxprrGzmAIBCECgPwIUAP3x6mfp/bTwR/pp0Meyu2vZk/pYnkWrJXCXunMR8EiCbleWz1R3kiQIF5cQgEBdCVAApBmZyXL7lTSup9lXfn+UyDdu4whcI1c++uPTAtG2vhweKfH9jSaLPwhkRIANSPxg+xzw/8S7fdnjz/TvPol84zaewB/k0k999CmbaNtODn8Y7RR/EIBAPgQoAGLHei25S/Uc99Pk+1Ox4eKtAgK+A+QLifr5tPz6dBAGAQhAoG8CFAB9I+vYYEHN+ZXkW7ai7VI59C/JF6Id468SAn5I0AGJejpIfn0rKAYBCECgLwIUAH3h6rjwJM3xL/9FOy5RfMbNavrv0pTiLmhZAwJ7Kgaft48232p6tOQ7BDAIQAACPROgAOgZVdcF/Wa/d3RdotjMe9TMv+7uL9acVjUi4BcG+eJQ38sfbQvIoY8+uRDFIAABCPREgAKgJ0xdF3qT5qY4D/uE/Pq1sLd27Z2ZTSLgVwe/X7osQdBryqcLDAwCEIBATwQoAHrC1HWhAzXXh2Ej7Xk521q6PNIpvmpBwIXdptJNCaLxsyfmSeAXlxCAQAsJUACUG9Qt1Pxd5VyMae1DxR+T/OZArJ0EHlBa75buC07PO/+9gn3iDgIQaCkBCoByA/u1cs3Hbf1FTT1q3DlMbBOBfyiZLaXoizs/K5/ztgkUuUAAAmkIUAAU5/pGNX1L8ebjtjxEU78z7hwmtpHAJUpqWyny9s4Z5W+HNsIiJwhAIJYABUBxntEXXPk2wl2Lh0PLhhLwy312kXzqJ8p8CgmDAAQg0JUABUBXPB1n+lfW9h3n9j/jPDX5sOR3ymP5EThGKe8dmLZfGPS2QH+4ggAEWkiAAqDYoL5VzeYu1nRMqys0ZSvp2TFzmJATAV/B/9PAhKMvTg0MDVcQgEAdCFAAFBuFdYs1G9PqYU15n/TYmDlMyJHAZ5T0uUGJrxPkBzcQgEBLCVAAFBtYv/Qnwj4nJ7dGOMJHKwj4rYEflZ4OyMbrKN/vAJC4gEBbCbCBKDayqxdrNqLV1fp03IgpfIDANNPcLgiHBoDwKarXB/jBBQQg0FICFAD9D6yf+rdA/83GtDhcUyKv/B7TARMaS+CwoMgXDvKDGwhAoIUEKAD6H9T51MRFQFk7p6wD2reWwFXKzC+CKmvzl3VAewhAoL0EKAD6H9uIjap/+d/Qf9e0yIhAxPoRsa5mhJxUIZAXAQqA/sd7tv6bjGkxRVOeGzOVCRB4jUDEnSGzv+aOvyAAAQiMJEABMJJHL58e72WhCZaZWfNhPwGkzGfPEpB/xLoaEAYuIACBOhJgJ9T/qDzaf5MxLXwNwTJjpjIBAq8RWOG1Pwv/FbGuFu6chhCAQL0JUAD0Pz4Rh2bd6/r9d02LTAgspTwXC8g1al0NCAUXEIBA3QhQAPQ/Ij5/7yf4lbWdyjqgfWsJRL3N787WEiIxCECgNAEKgGIILy3WbEQrP054wxFT+ACBaaaZSxB2DwDhQvXaAD+4gAAEWkqAAqDYwEYUAO7ZT3zjSu1iY9DWVv+jxOYJSO4y+XghwA8uIACBlhKgACg2sP9XrNmYVr4Q8GRppjFzmJAjgX2UdNRrpqOK1BzHgZwhkAUBCoBiw3yhmj1VrOmYVu/UFPtbfMwcJuRCwLeF/lTaOzDhMwJ94QoCEGghAQqAYoPq+6v9yz3KVpcjn6/9usTz26Oo1t+Pd/wfkTz2kwPDvUO+zg/0hysIQKCFBCa1MKeqUjpKHX0osLNZ5eur0pelv0p/k+6W/IrYouZzwPdLfvPg5UWd0O5lAj5Cs6bkAq3sKZsF5MP3+a8nRTxZUm5G2DH69NKIKfX74OJnRcnv1vCbC33dQ7frYVbRfKyeBHZTWJ1eYe3Hnj8yVb57yu+4uFEqs11TcyyCAAVAcYrnqql/aS1W3MW4LT0m3tFYkXabnP23dJj0vIT1RmBjLbavFD0evfXe/1Le4Lo4rZu5aNpcctFjlm+Sppew5hPo99TVE0rZ11H9RTpL+qPk9RZrKQEf3vQAl9EJNWTzmZI5leFRtO2fFPOCNWRZt5CmU0DflopyHlS7un1PVprK8YEasDxbMWAjCQxqPR3e7z8Vkr9rS48MrbGf/B0cnl+RvyNPCQ4cZFsLAP+CuTlgsIusIGXa+JzznANfK+odwP82cFx9yucNNcG6ouI4vWYMKQDGrhxltiPRbX1awEevFhobZqOmNKYA+LdGYa1fsD6U7sPDTTPvJH7YtKArjPcj6utjFfYX1dURcnRdlLOCfnyNxM+lq6T3FPRBszwJeH+0o+RrBL4i+bQRlpAABUB5uMfJxUXl3VTu4UPqcdXKe61/h97o7Ff/MMdE+KCmfHXM1GonbKLurpB2lti2CAJWiIAvBv2G5NOVyxTyQKOeCPAl7QlT14V82OqD0kNdl6rfzKFqu36RDTaijdX9IoMNoe/efSj2o5KvsB6ETadO95HOkOaXMAhEEFhNTvxEy20inOFjLAEKgLFMiky5U40+XqThgNtsNOD+69j9hnUMaoKYDtb8306wTKrZvg7mV9LeEtuTVJTz9TuHUj9e+ny+CNJlzhc2ju3JcvWtOHeVePK97dhIAouN/Fj7T+crwj0GFOUk9etTYO8bUP90mweBaZXmd6Rd80i3uiwpAGJZ7yV33411mdQbdwKMxetfHE2xPyjQzaVnBxCwtx1HS1sPoO+iXU4p2rDF7ZrCxEXAD6RPtngsKk+NAiAe+X/KJVfYx3PF40gCvkBqM2lQG/A91fcHRoZU+08+VYeNJHDXyI+1/uQiwNvWdWsdZYOCowCIHyxfkLWb5He6PxfvHo8QmOYYMfAV908OiMXq6nefAfVdptsLyjRuadsLG5aXTzv9Qpq3YXHXMlwKgDTD4iLAh6s2kO5I0wVeMyTwjHL2xaa+V3pQv/znUt++KMsX/zXJHlawZzYp4Ipi9TUcTbPXKeBDmxZ0HeOlAEg7KhfLvW9lOUzy7YIYBIoSuEAN15B+VtRBULuvys+SQb6qdLO/OhvUEZMq8+y3rwvU4Kx+G9Vg+a0Ug0+BYSUIUACUgNdjUz+g5WPSKpJvl8Ig0A+BG7TwtpKPJl3ZT8MEyy4in59K4De1y9+rAx+Rw8YnsLMm3zn+rFpP9V1X7MNKDBHwSsDrs6kf0eoN+TqSjwg8IWEQGI+AjxadLm0jrSzVpXD0vf4zS02yUxSs71TgCFznUbtHs94l3dR5kVrO8Y8qb1OxmhOYrPh8XryM/IKFNtmsSmYn6RjpZqkMmzJt1TU2jMDZ+rsMz6Jt71e/p0q+i8S/tOtmiymg56Si+VXdztfe+MgbP3IEoUfzbcEHSE9JVY9X0f6u7TG3KhfzvqpoPkPtvM9MbpOS9/BKB06qrE1b1kHN2vsirqOmyqEtIL1VWliaZ5j057g2o6Z+eNw5TBw0gXMUwC1dgvDRH1+UZnnH70P7LgLrbDsquFQX/vk0h4+QmUUZ80WSd0u+9sbiV78g9GGPadkvSV+XNpb8C3tByY96LmrexywkvUWyr2h7gxyuJf052nEJfxH7qoh9ZokUYptuL3dDlU3R/8+IDanx3uYOYNqqlSxoRCOOAPjQfdvMO+mi393x2vmCvG9KS0pY+wl4p7iG5COeL0njrRNFp/1Y/upk3lcVzWWonfeZya2qw2MR57tnS06DDiAAgfEI+BfWcuPNKDjtArVbQdpLuk3C2k/AO7ZLpB0kXwd1uxRl28mRj4jWxWYPCOTxAB8TuqiqAHC1X9YioJaNgfYQyJHAloFJ/0K+fMHZnYE+cdUsAj5cv7p0TVDYPhr69iBfEW4iHice8aN5wlyqKgAikklx/mhCQCwAAQhM87YgBhfJz4elF4L84aa5BHy9x6bSQ0EpuKCoi0XsqyL2mRPyaFIBsLCy4eU1Ew4pC0AglIC3Eb44taw9Kwfe+T9f1hHtW0PAR4E+F5RNXQoAH42IKABadQrAt+T4wo+ytnxZB7SHAAT6IuBz9RGHNI+Qn253RvQVFAu3hsAvlUnEqYCoo1RlwUbso7yvrOQUWVVHAJ5SQhHPxF+x7OjQHgIQ6IvAkn0t3XnhwzvPYk7GBLyzOzIg/0XkY8YAP2VdROyjfIGkb2lNblUVAE7kxoBs1gvwgQsIQKB3Aj6kWdYelYNLyzqhfWsJ+LkZEVaHU8TvCEjk+gAfPbmosgCISGrDnrJiIQhAIIpAxEb1OgXj28AwCIxH4NrxJhaY5jdVDto2CAgg4sdyT2FUWQD4QSJlbQk5WLasE9pDAAI9E4goAB7ruTcWzJGALxB9LiDxiGtVyoThZ2X4kdllLWJf2VMMVRYA/9dTRBMvtM3Ei7AEBCAQRODpAD88xCsAYotd+Nz9DAH5+VqzQdq2QZ3/JcjPhG6qLAAuUzQ+F1jWdirrgPYQgEDPBB7oecnOC3LUrjMb5kwzzTJBEPzq9UGan3JY1h6WgyvKOum1fZUFgF/McWGvgXVZzrcl1eWWjy5hMgsCrSDgB7aUNb8MJuL2qLJx0L6eBCLOm/tugqiHChWhtLoaRazjF8iPc6nEqiwAnNB5QVntFuQHNxCAQHcC93Wf3fNcjtz1jCq7BSPWDf/6H+TbH3cPGrWofWRQOLFuVpY7Xw1cVn6UaO6HFX17VlmObo+NJMDbAEfy8CuAp0hl1zWf/ptvpGs+QWCazcSg7Lrl9mcMkOXr1bf3SRF5+PXGlVnVRwCuVma+Jais+f3Ue5R1QnsIQGBCAn50b8Q9/L6b4McT9sYCORGYR8n+T1DCfwryU8TNzaqo0gAAEphJREFUl9XI+6Sydo0cROwfe46j6gLAgR3dc3TdF9xZs9/UfRHmQgACAQSiNq5bK5a9AuLBRfMJ+Kr/46UlglKJWkf7DWdVNYg4heF+j+q38yYu7/skfa4m4nDJRfIzbRMhBMTMKYAAiOO44BTAWCjv1KSI76t9vCTtLGH5EvA2+xgpap3ym/NmHgBO/4D+c1Ae3icuOoAcBtLluUHQvAJ9dCAZDL5TCoA0Y0ABMJarN3S3SVEbbD/05d0SlieBA5V21LpkP4cNCOPkwDy83cnGfL9k1Arg6i/i9oumwacASDNiFADjc91Hk6O+s/bj7y238wpCZuar5SPXI/taewAMfbHek4G5bD+AHAbW5fTq+dZAeFfJ1ywDy2YwHVMApOFOATA+18U0OepK56EdgB8ylGPxPj7h9k/dTin6UPfQ+Ef874vmqj4NPJP6/HtgHv+Qr0lSVvYpZRuxAgz58MWFVa8IgxwwCoA09CkAOnP1RUpD37eo/2+WzwU6d8mclhDYQHn4FbdR682Qnx0r5uN9zLHBefhUQnY2ozK+SxoayIj/D8iIIgVAmsGmAOjMdVHNijzsOfSd/6v8zta5W+Y0nICf//KINDTeUf//TT59fUqVdpA6i4rffu6QvC/M0r6grCNh2tcXMyFJAZBmoCkAunPdR7Ojv7P29zvJpwaxdhFYQulE/9Dz+uK7SdapGNWX1F/0up/1U21964bPf0RD3bfiFWMQ3VEApKFOAdCd66yafaMU/Z21vyMlH2LF2kFgXqXhc/Qp1pUjKkTkdXK/BHncJJ++niBr20zZp1hBfiK/07WYLAVAmsGlAJiY6ypaJMWpAG8HvjVx9yzRAAL+cfcnKcW2/Ur5dSFahXkfcqiUIo9Nq0igCX2cnAjw+fK7SBMAFIiRAqAAtB6aUAD0AEmLfEBKsVG0z6wPi/aGv9ZLeaf5aynF+vG4/PqNsFWYL049S0qRx6+qSKApfSyuQFP9orhXvt/ZFBB9xEkB0AesPhalAOgd1ve0aIqNo28Ve3/vYbBkzQj8VPGkWi+2rCjXjdXPfYny8DMwXldRHo3p5rOJYHtF9AUjh0nzS20xCoA0I0kB0DtXX4F9opRiY/+0/K7XeygsWRMCX1McKdYH+/Q+IrX5V/8RkvcZqfLwLfDYKAK+0CLVYaOhgXxIfXxaasNtFxQAo1agoI8UAP2B9EVMF0pD37HI/x+W35X6C4elB0jgY+o7cvyH+0p9bYj3CbtKXueG9xv99wnyj3UgMJemp7grYPQg+rTAHlKTnx5IAdBhJSo5mQKgf4BzqEnkk9GGf1/vlO/F+w+JFhUT8MXcz0vDxy7q72PlN9XdIb6Y0Nec3JEo9uEM/NCrOSWsCwE/H/xZaTi4VH/7iMD/SGtJTTMKgDQjRgFQjKvPaf5TSvFd9aO+vb5j9SSwpsKaIqUY+zPld/rgtF1MrC39WEr9i3+IyTPqazUJ64HALlom5TmYoUEZ/r+rMxcDW0vzSXU3CoA0I0QBUJyrD9en2qD6NINPN2D1IrC8wnlAGr4tjfr7r/I7W1C688vPNtIhUhVHmYcz8L5sJ6l2luqwSkSie8pJ6vM+neL0gPnXzI3S9dItku9S8C0oj0meP2jzF+PkgCDqvA4EpNe3CxcAG/XdamSD/fTxDyMnZfPp7cr0a4my9TVC20p1+P4lSrFRbhdWtBdLSyaI2heBflzylfi9mi9K9SF2n5Ly9nEZyQXKctIS0qC2dV9S3wdKWJ8EvqPlh1dS/B3Po88haf3iEUcAWE/j19Mhpj5siw2ewOwK4TJpaFz4f3wWPxr8UDU3Ald0x7CSJf2SNXftSBM5BcD4G7I6beB9dBAbHIEZ1PU5Up3WiTrGcrQYDeqow+DWjuCep5M/V/11HOA2xBQ8XI13RwFQ/++aTwHs0vg1rZkJeId2pNSGbV/KHA4Xo0nNHOJ6Rr0HK12SL109R3twUVEANGPj/pxWkU0Ht5pk2zOnZSf+fnw727UjceJ+iM+LUsrKLTffiYesce4pAJrz/fKtZ2s2bg1rbsD/odBz2z72k+8L4vPJ5g5vMyJ/t8JMddtJP4PdlmWbMerVRUkB0KyN/L1aNXy1N5aWwAflnh9fnb8b94uP3x+AVUDADx3xbVZt2QkPMo8KhqtRXVAANO975fu6F2zUWtasYNdXuM9Ig9xO1bnvC8VmUalx5qvsm2h+POiG0r4S9wQ3cQSJGQJxBJaWq9OkqIfGxEXWfE+rKAU/b8TPysdGEnBRcrDk54bcNXIWn6oisK46ulKqc4VY59iqGqem9MMRgOZ+l87QShb92NimrLcp4lxSTu+W6rz9GlRsfveFHyeM1YCAb7fYTfJT+ga1QjS13xoMX61CoABo9nfoGK1NvlUNK0dgXjW/Tmrqdi1V3H4i7D6Sn4WA1YyAz8N4A+CrMVOtAG3zW7MhHHg4FADN/+7sP/C1qNkB+C2pF0tt29aVycf7FD//YBEJqzmBpRTfD6SnpTKDnkPbmg9l5eFRALTjO/O5ytecdnToB6+dJOWw7eslRz9v4ijJ7xTAGkZgCcXrZzH7JT69DHaOyzRsSJOHSwHQju+Kf7FtlXxtaV8HhyqlHLeDo3P2PuOH0uLtG+L8MppJKftVkKdKz0ujBzvnz8KBDSNAAdCe74ePAPrthFhvBHxXVc7bQj/n4CJpssQdJYLQRvM5nC9IZ0q+oCPnFd65YyMJUAC06zvxsIZ3pZFDzKdxCPjVuzluC70P+J30ecmvN87Kcr9a1ldyriH5mQL+peANxUJSTpb7OjB6rF0AbDR6Ip8bTeAORb+2dGejs0gX/BZy7fP+Pv/fdvOTI6+R/iCdJ10i+ahwlsbGf+ywz6lJvuDDWlby7TA+HGR53hxSHb4ojuHNUlljHRhJMKIAuEUuHxnplk89ElhKy83T47L9LHaVFl5PerSfRhksu5ZyPEfylf/RdpscPhTttIs/H8L3uXvfDu5f9k9IPgJ0k3SDdKPkeRgEGk9gbmUQcciu8SCCE3ABUJarrzfBihFYUc280S47BuO1v1B+fT0Q9goB/8C5TxqPVdlpl8ov59Ff4cy/EAgnQAEQjvRlhxQAabj249W/1FPdwnuKfNfhCF4/PFIs62uhbpXK7ujHa3+z/C6YImh8QgACrxCgAEizJlAApOHar9ct1MC38o23gyk77cf9BtOy5X0a8/JEbP1WvOVaxot0IFA7AhQAaYaEAiAN1yJeP6lGZXf2ndrvUSSgFrTxhc9nJeLq8++rtYARKUCg9gQoANIMEQVAGq5FvX5LDTvtxMtMf0l+dy4aVEPb+YJfP9WuDLdObZ+T300ayoWwIdA4AhQAaYaMAiAN16JevdM6XOq04ykzPbed1ncTccyxmCq6PtMOAiEEKABCMI5xQgEwBsnAJ/gVv37Vb5mdfae2U+R3zYFnmD6A/0zEz1y/mD58eoAABIYToAAYTiPubwqAOJaRnlK+oc4Xrr0+Mtia+fqA4vE98p2KoDLTD6lZroQDgSwIUACkGWYKgDRcI7zOJyd+oEuZHVantm29dW0D8XomEbPj5fffJAwCEKiYAAVAGuAUAGm4RnldWo78ONdOO/Iy09v28JpVxMlPpCzDpFPbC+R3RgmDAAQGQIACIA10CoA0XCO9vkXO/JjXTjunMtNPl99JkcEOyNdS6vceqQyLTm39WGVvfzAIQGBABCgA0oCnAEjDNdrrhnL4rNRpJ1Vm+tHy67sPmmrzKvDrpTIMOrW9Q34XayoY4oZAWwhQAKQZSQqANFxTeN1eTn0LWqedVZnp+6UIuAKfM6uPPyVi8qD8vqGCHOgCAhCYgAAFwASACs6mACgIbkDNvqx+y+zou7XddUA5Fe12OjU8ORGPp+R33aKB0Q4CEIglQAEQy3PIGwXAEInm/P99hdptR150nm+de39DMPiUxc8ScfA7GbZqCAfChEAWBCgA0gwzBUAarim9+la0E6SiO/pu7fxWwib88v16ovzN5rMSBgEI1IgABUCawaAASMM1tVe/5OYcqdvOvOi8R+X3jakTKOF/cqK8zWufEnHRFAIQSESAAiANWAqANFyr8OrX3P5dKrqj79buTvmt49Xvmyuu5xPl/L/yi0EAAjUkQAGQZlAoANJwrcrrIuroNqnbzrzovKvl19+7utgaCuRJqWg+3dqdJr9teB5CXcaKOCAQSoACIBTnq84oAF5F0dg/VlTkD0nddnBF510gvzNJgzbfjpcqx0vke9ZBJ0j/EIBAZwIUAJ3ZlJlDAVCGXn3a+g1/ftNf0R19t3bHy68vPByUpTzKcZOSWmBQidEvBCDQGwEKgN449bsUBUC/xOq7/BYKzbewdduZF503qLfg+TqHyxPldLf8LilhEIBAzQlQAKQZIAqANFwH5fUT6rjoTn6idl+sOCnf6XBWonwek99VK86H7iAAgYIEKAAKgpugGQXABIAaOHt/xTzRzrzIfD+G+MMV8fCDfvyOgiJxTtTmOfl9V0V50A0EIBBAgAIgAOI4LigAxoHS8EneeR4mTbQjLDLfO89NKuDzvUTxu4jZsYL46QICEAgkMKd8FdlgjW4zfWBMbXB1QQBXHptavzXB6/kZAWM7+vvjz49LKQ+f+1TDeP1GTPu8fGMQgEDDCPge3YgNwOsalnfqcG8M4Mrh1NSjVMz/LGp2ccD4jve9u19+X18srK6tPqi5fifBeH2WnXZg156ZCQEI1JqA39BVdiOwWa0zrDY4H1WJeMf8WtWGTW99EPAtbjdJZb8347W/QX7n6yOWiRZ1IRmxPo4X67Hy7VMjGAQg0FACNyvu8b7c/Uz7WUNzTxH29gE8zX6JFMHhM4zAMvJ0r9TP96TXZf8ivz7SUNZWkwOfWui1336W83UuvqMAgwAEGkwg4pymf2Es3WAGUaH7XepXSf1sSMdb1kdlBvmQmCgebffzFiWYagd7unyXeYzuUmp/jzTe+lV22pXyO5eEQQACDSdwkOIvu0Fw+99J3gHmbHsp+QiWl+UMsWG5++p9X8UfMe6jffiugyKF4IJq51MJo/1FfL5FfheSMAhAoAUEtlQOERsG+zhUKvOrpck4fRtU1IVW328yiAxj99j7Vrio79FwP8fJbz+H2pfV8hGn9YbHMPT3A/K9nIRBAAItIeBDeS9IQ1/ysv+fI18prmSuK27z8w47cgfgx89izSKwh8It+93p1P7v8r3BBDim1/zdpUekTn7KTPcbA/3mQAwCIwhwFegIHI38cK6i3jAw8ufl6yTpN9LV0n2Si4y22PxKxNc8vEfyRX/zSlHmDa0PsU6JcoifyggcrJ52TdibTw39WvI5+DslXyi4iOTv7nulhaUU5u+u/fu6BAwCEGgZgZ2VT5lfB7SN43dEy9atnNLx+foTpDZ9H3xk6yM5DSK5QiA3ArMp4VSHDtu0Mawil/VyW/lalu+MyucCqYp1pYo+/qtl40M6EIDAOAT207QqNij00ZnzxeOMC5OaR2AOhXy51PR1/SfNQ0/EEIBAEQI+j/2Y1PSNVpPj91PbsHYQWFRp3C41dX30NTy539bbjjWRLCDQIwFfRdzUDVbT4/YGF2sXgRWVzkNS09bNqCcRtms0yQYCLSfge/j/JjVtg9X0eJ8Q8yVavm7lmt66SjzifRtVrePXKF6/JhyDAAQyJOB7+DkVUG0R5AfJYO0lsLlS862xVe3Ei/Zzl2KkEG3vekhmEOiJgO9tj3ywTdENUg7t/PRErP0EPqUU67w++y6glds/DGQIAQj0QmAvLVTnDVYbYvP7E/wENywPAnX9TvmFRmvnMQRkCQEI9ErgQC3Yhh1tHXP4g9jO2utAsFxrCOytTOq0PvrJk29vDV0SgQAEQgl8Wd44HRC70fYjkmcOHSWcNYnA5xRsHa4J8Dn/1ZsEjlghAIHqCWyrLrkwsHwR4ELqWxL3V1e/Dtetx40U0IPSoI4G+Fa/ReoGhXggAIF6EvBrRr3RGNQGq+n9+tfWpvUcWqIaEAG/vOdkqcp1+xn19xWJa08EAYMABHon4JedTJYG+culyo1lRF/Pidd3pdklDALjEdhaE2+QIta3bj5OUx9+OBEGAQhAoDCBOdRyT8mv+e22wcl5nn9p+VnqS0kYBCYi4Idw+a1710qR35sX5e8Miav8BQGDAATiCPjNZ++XTpGekiI3XE305Y3tn6XPSvNJGASKEPDO+n8lnzYq8j3wtSZ/l/aWFpcwCCQjMG0yzzhuEoGZFOyakh996sOMy0kLSbNJc0ptsilKxrdP+TnvN06Vr4+4UHpYwiAQRWBlOVpPWklaQfIO3aeTfBTOdxL4Hn4/Strr4fXSldK5ko/OYRBITuD/AcZA+KABqK9VAAAAAElFTkSuQmCC;" vertex="1" parent="1">
          <mxGeometry x="822" y="1111" width="42" height="42" as="geometry" />
        </mxCell>
        <mxCell id="dXWTu-7YxBk32f4qg5hx-71" value="1. RESTful API can follow domain model.&lt;div&gt;2.&amp;nbsp;e.g. &lt;font color=&quot;#990000&quot;&gt;/orders/{id}/order-items.&lt;/font&gt;&lt;/div&gt;" style="text;html=1;whiteSpace=wrap;overflow=hidden;rounded=0;align=left;" vertex="1" parent="1">
          <mxGeometry x="880" y="1100" width="170" height="72" as="geometry" />
        </mxCell>
        <mxCell id="dXWTu-7YxBk32f4qg5hx-73" value="1.&amp;nbsp;Design the microservice architecture according to the bounded context." style="text;html=1;whiteSpace=wrap;overflow=hidden;rounded=0;align=left;" vertex="1" parent="1">
          <mxGeometry x="885" y="1272" width="160" height="72" as="geometry" />
        </mxCell>
        <mxCell id="dXWTu-7YxBk32f4qg5hx-74" value="" style="shape=image;verticalLabelPosition=bottom;labelBackgroundColor=default;verticalAlign=top;aspect=fixed;imageAspect=0;image=data:image/png,iVBORw0KGgoAAAANSUhEUgAAAgAAAAIACAYAAAD0eNT6AAAAAXNSR0IArs4c6QAAAERlWElmTU0AKgAAAAgAAYdpAAQAAAABAAAAGgAAAAAAA6ABAAMAAAABAAEAAKACAAQAAAABAAACAKADAAQAAAABAAACAAAAAAAL+LWFAABAAElEQVR4Ae29B7Qtx3WeifCIROSccw4EQGQiEcCTABIAba01kCVZAiXaAyqMBNljDzQSJV/asgf2BAley7OEsUc2n8YzI9hjySSSjQwiZxA554yHSPAhc/6feMV3cHDOPaF3dVd3f7XWf0/fPt1Ve39V3b1PVXX3aquRIACBvhBYS47+knSB9IS0YqW87HW/KHkbEgQgAAEIQAACHSCwunz4uvSU9OMJ8jbe1vuQIAABCEAAAhBoKYFDZff10qQL//D3t2mfY1rqM2ZDAAIQgAAEektgW3l+vvSRNHxxn/b/j7WvhwZ2kkgQgAAEIAABCBRMwGP4Z0tvSdNe6Cdt947yWpDWlUgQgAAEIAABCBRG4HTZ87g06YI+7/fPKO8zJeYHCAIJAhCAAAQg0DSBfWTApdK8F/ZZ97taZR0kkSAAAQhAAAIQaIDApirzPOlDadaLeNXtPbdgmbSVRIIABCAAAQhAoAYCn1MZZ0mvSFUv5FX3f102nCOtLZEgAAEIQAACEMhEYKnyvVeqeuGO3v9h2XRGJp/JFgIQgAAEINBbAnvI8+9J0Rfu6Pwuk4379baWcBwCEIAABCAQRGBj5XOu9K4UfbHOld/7stXPINhcIkEAAhCAAAQgMAOBNbStb7l7Ucp1oc6d73LZ7mcSrCmRIAABCEAAAhCYQOB4fX+nlPsCXVf+98uXkyf4zNcQgAAEIACB3hLYXp771jo/greui3Od5XgOw64SCQIQgAAEIAABEVhPWpB+JNV5QW6irPfko59dsIFEggAEIAABCPSSgB+p61vnnpSauBg3WeZz8tnPMvBcBxIEIAABCECgNwQOkafXSU1ehEso+1Yx+FJvah1HIQABCECgtwS2kedVX9NbwoU70gbPefBrh3fsbavAcQhAAAIQ6CyB9JreN+Vh5MWzS3ml1w6v09lWgGMQgAAEINArAn5N72NSly7WOX15Wqz8DAQSBCAAAQhAoJUEDpDVV0g5L5ZV8v6BbLOq5JFzX7MzQxIEIAABCECgFQTSa3o/kLU5L5Dz5r1cdvkJfUskz8L3r+2XpHnzy7lfeu3wlrKPBAEIQAACECiSgC+opbymd9RF2QHJuGf0p3cO+D79Ufs2vS69dthzKUgQgAAEIACBYgicJEvukZq+UI4r/3LZtv8UtPbUNhcW7MdDsu3UKfxgEwhAAAIQgEBWAn5Nr29hG3fhbXr9I7LNDxuaNS3VDvdKTds/rnxeOzxrjbI9BCAAAQiEEPi8clmQSn1N7w9X2re2PudNn9OOnivwhjTuQtzker922I8V3kgiQQACEIAABLISSJPmSn1Nb5o0t1Ughc2Uly+0H0pNXvDHlf2q7HKgwmuHBYEEAQhAAALxBA5XljdK4y5ETa+/WbYdGe/2T3M8WEvXSE37Oa78O2TbcT+1lgUIQAACEIBARQLbaf9l0sfSuItPk+uflV2+lc8vF6oj+cFGj0tN+rxY2X7t8C51gKAMCEAAAhDoJgG/pvcc6W1psQtOU9/50bnnSutLdad1VaDZvCU15f9i5frVymazgUSCAAQgAAEITE3Av3KfkBa7yDT5nX/l7iw1negdaboGKB8CEIAABEIIfFG5XCs1eXFfrOzbZduxIZ7GZnKYsrtBWsz2Jr+7RbYdFesyuUEAAhCAQBcIbC4nmOlerSY9B8FzEV6QmrzYjyvbczg8l2NriQQBCEAAAj0nkO51f1Mcxl04mlzfxnvd0zMSVhTKND0jgdcO9/zgx30IQKC/BPy0u/ulJi/wi5Xtp93t0+Lq2V22d/EpiS2uEkyHAAQg0G8Ce8n9i6TFLr5NfvegbPtqh6roRPlyd8G8/drhL3SIN65AAAIQgMAQgU30v28NK/WNd6/JNt9a18U33i2RX2dJL0tNBlfjyv5Adp0vbSGRIAABCECgIwRKv/ikx/f24eJDENaRgwo3IAABCJROgO7nMmuIYZgy6wWrIAABCLSeQOkT0B4V4TNaT7m6A0uVBRMxq3MkBwhAAAK9J8AtaO1rAm25FXPD9qHFYghAAALdJ8BDaNpfx6U/jOkVIea1w+1vZ3gAAQh0iMBh8oXH0HanQnkcc3fqEk8gAAEIZCHAi2iyYC0mU17IVExVYAgEIACBMgjwKtoy6qEOK9ZTIbySuQ7SlAEBCECgcAL+Vfi4NO6BLk2v92t6dymcYRvN215G+0U+fqFP03U8qvxnZZdfhOS5KCQIQAACEAgkcLDyukYadfItYd0dsu24QH/JajSBw7X6RqmEOh9lw82y7cjRprMWAhCAAARmIbCZNj5P+lAadcJtet2rsouZ4YJQY1pDZfnX9otS0/U/qvz0ZMetamRCURCAAAQ6QyDdG/6GPBp1km16XRtf09uZxrHSkfTMh3cLbSPptcNrdw08/kAAAhDIRcBPh7tPavoiP658v6Z3v1zOk+/MBPbQHrx2eGZs7AABCECgHAJ7ypQLpXEX3qbXPyTbTi0HF5YMEThJ/98jNd1OxpV/uWzbf8hm/oUABCDQawIby/uSX9P7uuzr6mt6u9bwlsghv3bYT+0bdyFucn167bCfekiCAAQg0FsCaTLXSyLQ5El5XNlpMteWva2h9jq+qUz35FFfcMfVb5Prl8suTx51wEKCAAQg0CsCJ8jbu6QmT8KLlX2VbDuwVzXSTWf3lluXSIvVdZPfPSDbTukmeryCAAQg8GkCO+hfP9ClyZPuYmU/Ldt8ixmpWwT8AKnHpMXqvsnv/ACpXbuFHG8gAAEIfELAj3RdkFZITZ5ox5X9zkr71tEnqZsE1pJb7nZ/UxrXDppc/57s8rAFrx0WBBIEINB+An406hnSU1KTJ9dxZX8su3wL2Y4SqR8EtpGb50ue4zGuXTS5/nnZ5YmMniNDggAEINBKAofK6uulJk+mi5V9q2w7upVkMTqCwCHK5DppsTbS5He3yTbaZ0RNkwcEIFAbAT++9zuSf103eQIdV/ZzsutXJPdOkPpNwG3AbeFZaVx7aXK9jyEfSz6mSBCAAASKJuBf/e7CbPKkOa5szz/4p9L6EgkCgwQ+r3/+WCp1joqPKfdYkCAAAQgUSeALsqrUCVb/UbbtUiQ1jCqJgNuI28q4ILLJ9T62DigJFrZAAAIQMAHP8n9EavIEOars+2XTyRIJArMQOF4bl/icisdlFz1Ys9Qk20IAAtkJ/JFKGHUBbmqdHwX769Ka2T2ngK4ScNv5pvSy1FQ7HlWujzUSBCAAgSIIrCUr/GjTUSerutf5Nb1/Ivn9AiQIRBBwW3Kbctuquz2PKu9V2fE5iQQBCECgcQLuYh91oqp73SWyw49+JUEgBwG3rYulutv1qPJ+NoeD5AkBCEBgVgJNd//zmt5Za4ztqxD4qnZ+UBp1Ya5r3R9WcYB9IQABCEQR8FPV6jrxDZbztspdkNaWSBCok4C74P1Y4delwTZZ1/Kf1eksZXWTAI+a7Ga91u3VunUXuLK8J/R5hfReQ+VTbH8J+DXDd0jPNITAd92QIFCJAAFAJXzs3DAB3xN9rfQ9iXv8G66MHhW/nXxdJl0jcV9+jyq+a64SAHStRvvpz2ly+z7pXGmDfiLA6xoI+Ff3OZLH/3mUdA3AKQICECifgH8N1TX2OakcP9P9TGn18rFhYYsInC5bPeQ0qf3V9b2PORIEKhGgB6ASPnYukIC7Z78j3SwdVaB9mNQuAl+UuddK35V2lkgQ6AwBAoDOVCWODBE4TP9fL/mX0tZD3/EvBCYR2FwbnCfdIh07aWO+h0AbCRAAtLHWsHlaAh4G8Fjto9KCtI5EgsBiBNLtfY9po9+ReJT0YrT4DgIQ6D0B/8qua+yzSjkOBM7ofW0BYByBpfrCL4+q0sbq2tfHHAkClQjQA1AJHzu3jMBusvcC6UrJry4mQcAE9pIuki6T9pFIEOgFAQKAXlQzTg4ROEH/3yn5V9QWQ9/xb38IbCJXfevoD6Sv9sdtPIXAJwQIAGgJfSXgtu/5AX6PgO/t9hsNSf0gsERuniVR9/2ob7wcQ4AAYAwYVveGAL8Ce1PVP3H0RP29XTpfovfnJ0j401cCBAB9rXn8HiYwOA687/CX/N96ArvLA8//uEJi/kfrqxMHIggQAERQJI8uEfBM8Lsk3wO+UZcc66kvn5ffC9I9EneACAIJAokAAUAiwScEVhHwveC+B9z3gvuVr9wLLggtS34GhB8J7Vs//5HEMyAEgQSBQQIEAIM0WIbApwlspn//VLpFOvbTX/FfwQQOk21+CuR3JJ4CWXBFYVqzBAgAmuVP6e0gkJ4H79cO79wOk3tpZXpNL++B6GX14/SsBAgAZiXG9nUQuEaFrKijoBnLSK8d/iPtt+6M+7J5PgKuC9fJw5Jv7XT3f0nJbdltmgQBCECgcwSWyaPIR6D6JJ5+zX0cnHeUnc/KLo8xl3axkUm9Sn5N7+NSVL1G5+Neo12kXw620cccCQKVCNADUAkfO2ck8Jzy9gX2SOmmjOXMm3V67bBts42kegkcrOL8q9qv6fUFtrTkJ00eLzlAeaI047AHAiZAAEA7KJ2AJ+AdLX1derFAYw+XTTdI/kXGhLP8FeSJmb5F81bpuPzFzVzCcu3xu5InIl47897sAAEIQKBlBHzxi+w69RDAqJTu6X5XX0aWF5XXD2XXgrS2RIolkF7T+4ayjaqvyHzel12LPTuCIYDY9kBuEIBAIQTqCgCSu7trwU91izyBR+b1iGzjoTOptqp/LlUW90mRdRSZ12Wybb8JbhIATADE1/UTWKP+IikRApUJ+OEuPy/5wnBP5dziM0gByuXK+oD47HuT457y9ELJF9h9C/Tadx34zpCfkRygkCDQKgIEAK2qLowdInCF/vc9+t+UXhn6roR/T5IRd0i8eGa22thYm58rObg7dbZda9nawxC/Jzm4u6iWEikEAhCAQKEE6h4CGIVhU630GOwHUmT3blRenhzmxwovkUijCfgHie/8eEmK4h6Zz0eyy219S2nWxBDArMTYHgIQaAWBEgKABGpvLVwiRZ74I/N6QLadkozl86cETtDS3VIk68i8rpRtB/7U2tkXCABmZ8YemQk44iZBoEsEHpQzX5G+Jj1WoGMpQPEDYnYr0L66TdpBBTqA9AW2xNf0PiO7vi6dKDlAIUGgMwQIADpTlTgyRMAX2H0k35P91tB3JfzryWPuDfCwxYYlGFSzDemWzvT43pqLn1jcj7TFtyVPRHSAQoIABCAAgREEfIKM7G79lRFlVFm1jXb2RDyP4UbaGZXX87LrLKkPAfnq8tO3SD4lRfGLzOdj2eVbTHeUIhNDAJE0yQsCECiGQOkBQAJ1iBaukyIvGJF53SbbjknGdvDzUPnk1/RGMovM61bZ9qVM3AkAMoEl2/kJ9OEXx/x02LNrBG6XQ8dKfoaAf4GWlhygXCv5F+hOpRlXwZ5tta97YG6Wcl1gK5i3mntgfCvpEdINVTJiXwhAAAJ9I9CWHoDBellP/yxIHuuN/BUZldc7K+1bV59tTWvJcN/66DkYUVwi83lPdnkOxgZS7kQPQG7C5A8BCDRCoI0BQAK1vRZsv8d+Iy8uUXl5FvqZksfO25ROl7GPS1EcovPxJNFdawRKAFAjbIqajsAa023GVhDoLIFn5ZkvsCdIdxXopQOU70hXSQcVaN+wSb7z4lLpu9Iuw18W8H96DkMKUAowCRMg0AwBAoBmuFNqeQSukUkeg/+69FJ55v3k3fKew+Deiq0KtC89ifEe2XZygfa9Jpt8S+gB0n8p0D5MggAEINBKAr4oRXbRRt8GOCvUjbWDn0Vf6muHX5dt50glvHbYr+n1LYx+F0NkG4jK633Z5QmIm0tNJoYAmqRP2RCAQDYCXQsAEqg9tOAZ+VEXo+h8HpZtvqe+qbRUBd8rRfsVld80r+mtix0BQF2kKWdqAgwBTI2KDXtI4BH57FsGS33dawpQ6r7QuVxPoqu7XBU5VSq93qZygo0gkJsAAUBuwuTfBQKXy4mDJd8r/mqBDvmX+J1S7q7uNDTicX4/yri09IYMSq/p/Q+lGYc9EIAABLpIoKtDAKPqKk12+1BfRnVVR+azXHb53vs1Rxk/5zr/UPCdEi9KkbZG5eVHPLsNljg5Umb9JDEEkEjwCQEIdIpAnwKAVHHpdreoi1h0PvfL0IjZ+McrH/cuRNsXld/Vsu0gqfREAFB6DfXQPkf2JAhAYHYC6X5yv3bYD7wpLaUAxWP1u85h3Pbax4HdVVKJF1g/v+HrUqnPb5BpJAiUTYAAoOz6wbryCfgC64vt70pvF2ju4GuHN5jCvvSIZN9h4NsxV59inzo38aObvy3tKTlAcU8CCQIQgAAEGiKQTsRR3bpNPwdgXozbakdPxPOYdBSLyHyek12+Z39U4O8LvW8pfFKKLDMqr49lV5tfksQQgCqQBAEIdI8AAcCn67Rtr709ROZfJ0VdrKPz6cJrkgkAPn2M8F8BBEb9EijALEyAQKsJpAvWr8qLFwr0xAGKL/j/bqVu1efRUmnJ7H5VOkyyvSQIQCCQAAFAIEyygsAAAf8K/o60u+Qxaz9WuKTkLv+vr5SXS0p+fO+/lPaWzNAsSRCAQDABAoBgoGQHgSECnrS2IHnS2l9IpMUJXKivPanSzzJ4a/FN+RYCEKhCgACgCj32hcD0BJ7Rpn6YzonS3dPv1pstH5SnX5FOl0q8rbI3FYGj/SFAANCfusbTMghcJTO+KLn7/eUyTGrUisHX9F7aqCUUDoGeESAA6FmF424RBHxL2zJpL+mfSx7z7lv6UA7/H5IZnCf5fxIEIFAjAQKAGmFTFASGCAy+vOaioe+6/O8Vcs69IN+UXu2yo/gGgZIJEACUXDvY1hcCD8tRP7HvZ6T7Ouz0o/LNr1deKt3TYT9xDQKtIEAA0IpqwsieELhcfvq1w36s8Jsd8vkd+eJbIfeXeE1vhyoWV9pNgACg3fWH9d0j8IFc8pj4bpLvhfdjhduaPNfBtz7alwXpPYkEAQgUQoAAoJCKwAwIDBFYrv99L7yfgnft0Hdt+PcWGemnC/rWx5faYDA2QqBvBAgA+lbj+Ns2AnfK4OMlv3b4iRYY7xcO+RbHI6WbWmAvJkKgtwQIAHpb9TjeMgJ+7fB+0u9JJb522E889C2NfnzvMunHEgkCECiYAAFAwZWDaRAYIrBC//siu4/ksfVSLrJ+fG8KTn6oZRIEINACAgQALagkTITAEAF3s3ts/QjpxqHv6vz3DhV2nOTH9z4pkSAAgRYRIABoUWVhKgSGCKTX+HrM/cWh73L+64f3+FbFw6Xv5yyIvCEAgXwECADysSVnCNRBwMMAy6Q6XjvsWxR9a6Jv6/Otim2+RVHmkyDQbwIEAP2uf7zvDgE/bGdBOkDK8bAdP6ToQInX9AoCCQJdILCkC07gAwQg8FMC6XG70RME/ZhiEgQg0CEC9AB0qDJxBQIQgAAEIDAtAQKAaUmxHQQgAAEIQKBDBAgAOlSZuAIBCEAAAhCYlgABwLSk2A4CEIAABCDQIQIEAB2qTFyBAAQgAAEITEuAAGBaUmwHAQhAAAIQ6BABAoAOVWaDrrwfXDbvjQ8GSnYQgAAEhgkQAAwT4f95CEQ/hvb5eYxgHwhAAAIQmJ4AAcD0rNhyPIFHxn818zd+gI0fZkOCAAQgAIGMBAgAMsLtUdZ+HWzUc+H9gpvoHoUeVQWuQgACEJiOAAHAdJzYanECy/X19xbfZOpv/3zqLdkQAhCAAATmJkAAMDc6dhwi8Pv6/8OhdbP++5B2+D9n3YntIQABCEBgdgIEALMzY4/RBB7Q6n8w+qup1q7QVr8sVQ0ipiqMjSAAAQj0nQABQN9bQKz/fkf8v5gjS7/K9m9Jt82xL7tAAAIQgMAcBAgA5oDGLosSOEfffl16bdGtVn15nxaPkaLmEKzKmSUIQAACEBhLgABgLBq+qEBgmfbdXfrH0oMj8vEdA9dK35AOlO6SSBCAAAQgUCOBJTWWRVH9IvC63P1HK7W9PneUNpRelp6Q/D0JAhCAAAQaIkAA0BD4nhX7rPy1SBCAAAQgUAiBNQqxAzMgAAEIQAACEKiRAAFAjbApCgIQgAAEIFAKAQKAUmoCOyAAAQhAAAI1EiAAqBE2RUEAAhCAAARKIUAAUEpNYAcEIAABCECgRgIEADXCpigIQAACEIBAKQQIAEqpCeyAAAQgAAEI1EiAAKBG2BQFAQhAAAIQKIUAAUApNYEdEIAABCAAgRoJEADUCJuiIAABCEAAAqUQIAAopSawAwIQgAAEIFAjAQKAGmFTFAQgAAEIQKAUAgQApdQEdkAAAhCAAARqJEAAUCNsioIABCAAAQiUQoAAoJSawA4IQAACEIBAjQQIAGqETVEQgAAEIACBUggQAJRSE9gBAQhAAAIQqJEAAUCNsCkKAhCAAAQgUAoBAoBSagI7IAABCEAAAjUSIACoETZFQQACEIAABEohQABQSk1gBwQgAAEIQKBGAgQANcKmKAhAAAIQgEApBAgASqkJ7IAABCAAAQjUSGBJjWVRVP8IOMA8UjpJ2kHaSHpJely6UHpUIkEAAhCAAAQg0BECa8qPX5Oekn68iK7Td0dLpHgCi3Gf57t4C/uV4y/L3Xm4j9tnWb/w4S0EINAGApvKyMulcSeuUevP0/YMR8XW7ijOVdbFWte/3AgA+lfnxXvMEEDxVdQqA33xv17ae0arf0fbe98zJV+kSBCAAAQgkJkAv7oyA+5R9m5LfynNevFPiPwL6R+mf/iEQIcI+Ng4oEP+4AoEIACBTxH42/qvShez910h7fipXPlnXgJV62J4/3nt6Pt+hwnADdIwz6r/L+s7WPyHAATKIfCwTKl6UvP+/6ocl1ptSURdDObRahgNGL+dyvRF+mNpkGPUMgFAA5VKkRCAwGcJHKxVUSe2F5WXu0xJ1QhE1UfKp5o1/dl7Xbl6jvSWlNjl+CQA6E+byuYpJ9psaHuV8ZcDvd1Kee0bmB9ZQaAuAqeroPukc6UN6iqUciAwLwECgHnJsd8gAT/kJzJF5xdpG3lBYJiAe8Cukb4r7TL8Jf9DoFQCBACl1ky77Pp8sLnR+QWbR3YQ+AmBLfX3X0u3Scf9ZE19fz6sryhK6ioBngPQ1Zqt169ngovzEwRJECiVwFoy7LelP5T8eOsm0vImCqXMbhEgAOhWfTblzSOBBXvC1GOB+ZEVBCIJnKbM/ldpz8hM58jr3jn2YRcIQAAC4QQ2Vo7vSRGznb8fbl0/M4yoi8E8+klxlde+4PsFVoNMmlr+SHZsu8o0liAAAQg0S8AToCJOiL/VrBudKT2iLgbz6AyYGR3ZRNv/qfS+NMijyeW/ntEHNocABCCQlcB+yv0DqcqJ8VHtv3ZWK/uTeZV6GLVvf8h94qnfaPkb0ivSKB5NrXMg8gWJBAEIQKAoAt+WNfOeGD2E8OWivGm3MfPWw7j92k1jNutP1OZ3S+NYNLme92XMVpdsDQEI1ERgdZVzvjTrCdK/an6hJhv7UsysdTBp+z5w21VO/n/SJBZNff+/9KES8BECEGg3gf9W5r8tTXOifFjbHdFud4u0fhr2s2xTpJNBRq2vfP6Z5JdRzcKkrm3flF2/JpEgAAEItILAprLS90nfJQ2/EMUn2iukX5E+J5HiCURfnOItbD5H91idIT0lRfOKyM/HzQXSjhIJAhCAQCsJ+DZBTxI8UtpLYqKfIGROERegwTwym1t79oeqxOulQR9LWr5Vtn2pdioUCAEIQAACrScQfTFrPZCVDmyrT89T8b300Ywi8ntOdp0l8Zh2QSBBAAIQyEnAJ9qdJE8A88WhKyniYjSYR9u5rCMH/kD6oTToVynLHhb7Y+nzEgkCEIAABDIR8Dvbf1W6UvqRNHgReF7//3vpKKnNadCniOU2s/hvZPwTUgSHHHn8B9m2s0SCAAQgAIGMBE5W3o9J05zIHSAcmNGWnFlP498s2+S0NVferrurpFn8rHNbT5A9Ppfz5AsBCEAAAqsI/JYWZx379fbLpK1WZdOKpegLWSucXmmk70A5T/Irc6M5ROTnN/mdLflpgyQIQAACEMhM4FeVf5WT9+va/+9JbbltsYqvo/aV68Un143ryHU1yoem170vu/43yXfFkCAAAQhAoAYCu6mMaR9MNOki8YDy+koNNlctYpIfs35f1Z7c+7tOXDez+lXX9hfLNt8CS4IABCAAgRoJfEdlRZ/oL1Oe+9Xow6xFRfs7a/l1bb+HCvLDcqL9jcrvYdl2Wl0wKAcCEIAABFYR2FqLftFQ1Al9MJ+Su3QH7YxYXkW0jCV3o7s73XUQ4V90Hm0bMiqjVrECAhCAQCCBX1Je0Sf34fxKnNQ1bGPV/wOrpFJWfm7DmdKLUlWfcuzf1kmjlSqFnSEAAQiUSMC/EnOc6EfleafKOr4QCKPsq7KuBLfM1oyr+JFz36tl20ESCQIQgAAECiDw57Ih50l/VN7fU5l+smCTaZRdVdY16cv2Kty3Yn4sVfEh177PyC73SvjlQiQIQAACECiEQBMBgC80fsLgP5GaerRr9MWuieo0OzMcflpjtG/z5ufHCn9L8pMlSRCAAAQgUBiB35c9857gI/Z7TuU38XKXCNsH86izWv1L2q/pfVIatKGUZfdE+M6DnSQSBCAAAQgUSmCp7CrhwnGj7Di8RkbRPtdluhndIEXbH5XfzbLNr7UmQQACEIBA4QQ8a9xjtFEXgCr5pF+OO9bArIqdo/bNbfI2KqDk1/T6JVFN9OTk5k7+EIAABDpN4H+Qd6Muak2t81MJ/0dp7YzUo33LZaoZ/J4U9aTGaL/9mt5/Jq0vkSAAAQhAoGUE/Iz4e6Toi0PV/PxWwp/LxLKqbcP75zDTvpvBcFml/P+fZFvTd3Pk4E6eEIAABHpFwCdyd+OWcnEZtONK2XVgcG0M5h+xHGne3srsEinCrhx5+J0Cp0Q6TF4QgAAEINAsgX1U/H1SjotG1Tz96tr/XdpMikhV7RneP8Im+2YfS31N76uy7TekNSUSBCAAAQh0jIDv2f4T6QNp+CJXwv+vya7fkTxsUSVF+1LFFvtin+xbtF0R+fl9AudJm0gkCEAAAhDoOIE95d+FUsQFJEceD8m2UyvUQbRN85pyknYscf5F4nO57Nt/XufYDwIQgAAE2kvAzwkodVjAFym/dnjfOfCmC1zU56wm7K4dSn5N7yOyzw8bIkEAAhCAQI8JuIv6bOkNKeqCGZlP6qLeaIY6iizfeU2b/PjeBeldKdqGiPz8+F7bl/MWTGVPggAEIACBNhHwJDWPBZc8Sc2ByjST1CIuloN5TKpHP3DpTInX9E4ixfcQgAAEIFAsgYNl2TXS4AWwpOU7ZNtxE+hF27tYcX58rx91HF1mVH48vnex2uM7CEAAAhD4DIHTteZxKepCFJ3P92TbLp+x+pMV0WWNKmY7rVwmfSxFlxeR37Oyy70SvKZXEEgQgAAEIDAbAd82eI70lhRxUYrO40ey61xpA2kwRZczmPd6+sdM3paiy4nI7x3ZZSY8vlcQSBCAAAQgUI1A237tRlxIB/NI9Nwr8oQ0+F1Jy+4V2VkiQQACEIAABEIJHKbcbpBKuugN2nKLbDsqg31fVJ7XZsh30PYqy7fLtmMlEgQgAAEIQCAbAc94/4b0glTlopVr348y2JUjzwj/XQeuC9cJCQIQgAAEIFALgXTP+wqVFnExI4/pOaZnI2xYS01TCAQgAAEIQGAEgdKfete1wMJPR9xnRD2wCgIQgAAEINAIgRNV6t1S1y64pfjzoNh+tZGapVAIQAACEIDABAJL9P1Z0stSKRfOttvhtwj6tsO1JBIEIAABCECgaAJ+tawfK/yB1PYLcFP2m9350hYSCQIQgAAEINAqAnvJ2oukpi6ibS33CjH7QqtqGmMhAAEIQAACIwgs1br7pbZekOuy+xExOmMEP1ZBAAIQgAAEWksgvXb4TXlQ1wW1LeWk1/Su09raxXAIQAACEIDABAKb63vPDyj1tcN1Bg1+kdAyaWuJBAEIQAACEOgFgdIfr5s7EEiPLe5FZeMkBCAAAQhAYJhA6S/YiQ4EeE3vcAvgfwhAAAIQ6C2B9eR5ya/YjQgCxr26uLeVjuMQgAAEIACBRGA7LXhM3GPjERfdUvLwa3p3kUgQgAAEIAABCCxC4HB9d6NUygV8XjvukA/HLeInX0EAAhCAAAQgMETAr7g9U3pRmvcC3NR+r8rms6U1JRIEIAABCEAAAnMQSK8dflf7NnVBn7bc9Jrejebwk10gAAEIQAACEBhBYA+tu0Ca9mJc93aXybb9RtjNKghAAAIQgAAEAgicpDzukeq+wI8r7yHZcmqAX2QBAQhAAAIQgMAEAum1w69ou3EX5tzrX1fZvKZ3QkXxNQQgAAEIQCAHgU2Vad2vHf5IZfpWxS1zOESeEIAABCAAAQhMT2BvbXqJlPtX/1Uq48DpzWJLCEAAAhCAAATqIODHCj8mRQcCTytP35JIggAEOkJg9Y74gRsQgMAqAn6l7opV/4YsratcfBsiCQIQ6AgBAoCOVCRuQGCIgHsAIhPnikia5AWBAgj4SWMkCEAAAhCAAAR6RoAAoGcVjrsQgAAEIAABEyAAoB1AAAIQgAAEekiAAKCHlY7LEIAABCAAAQIA2gAEIAABCECghwQIAHpY6bgMAQhAAAIQIACgDUAAAhCAAAR6SIAAoIeVjssQgAAEIAABAgDaAAQgAAEIQKCHBAgAeljpuAwBCEAAAhAgAKANQAACEIAABHpIgACgh5WOyxCAAAQgAAECANoABCAAAQhAoIcECAB6WOm4DAEIQAACECAAoA1AAAIQgAAEekhgSQ99xmUIlEJgRxlyqLSL9KH0inSN9JzUxbSdnDpe2lz6nPS4dKv0rESCAAQgAAEIdJ7AafLw+9LH0o9H6Bat+5q0ujRvGpVvlXXz2mEf7It9GlW+GTjo+YpEggAEIAABCHSSwMby6rvSqAvhqHWXaNvN5iQxKr8q6+Yxw7ZfKk1b7l9p243mKYh9IAABCEAAAqUS2EaG3S9NezFM2z2pffaVZk1p/6jPWcu3zU9Ks5Z/n/bZWiJBAAIQgAAEWk9gPXngse5ZL4Zp+xe176xBQNo36nOWSrCttnnesm/WvuvOUiDbQgACEIAABEok8M9l1LwXw7TfS8pj/xmcS/tFfU5b9N7a8Hmparl/PG2BbAcBCEAAAhAokYBn+r8rVb0gev9ZegIiyhvMYxq2VX/5D5a3QgX6rgESBCAAAQhAoJUEviWrBy9sVZen7QmoWs7w/pPgR/3yHyz3nEmF8j0EIAABCECgVAI3y7DBi1rE8jQ9ARHlDOaxGN/IX/6DZV6/WKF8BwEIQAACECiVgO+Bf1MavKhFLU/qCYgqJ+UzjnGOX/6pzNfHFcp6CEAAAhCAQMkE/LS7dDHL8blYT0B0eaM45/rlP2j7mqMKZh0EIAABCECgdALvy8DBC1r08rggILqcYc51XPx/NFwo/0MAAhCAAATaQuBuGRp9MR7Ob9RwwPA2Vf8f5J2z23/QztsHC2UZAhCIJcDbAGN5khsEhglcMbwiw/9bKs/LJf8qz51cxtWSn2yYO12ZuwDyhwAEIAABCOQisI8y/kga/GWba3mwJyC6DPOp65e/bffbEfdyoSQIQAACEIBAWwn8exkefUEel1+aEzDu+3nX1zHmP2jbsrZWNnZDAAIQgAAEEgG/Fe9JafACl3PZQUB0/jnyHGfjE7J/U4kEAQhAAAIQaD2BQ+XBD6VxFz3Wf8LGjMyKBAEIQAACEOgMgWPkydsSF/vRDN4RmxM7U9s4AgEIQAACEBggQBDAxX+gObAIAQhAAAJ9IkAQ8OkggF/+fWr9+AoBCECg5wQIAj4JArj49/xAwH0IQAACfSTQ9yCAi38fWz0+QwACEIDATwj0NQjg4s8BAAEIQAACvSfQtyCAi3/vmzwAIAABCEAgEehLEMDFP9U4nxCAAAQgAIGVBLoeBHDxp6lDAAIQgAAExhDoahDAxX9MhbMaAhCAAAQgkAh0LQjg4p9qlk8IQAACEIDABAJdCQK4+E+oaL6GAAQgAAEIDBNoexDAxX+4RvkfAhCAAAQgMCWBtgYBXPynrGA2gwAEIAABCIwj0LYggIv/uJpkPQQgAAEIQGBGAm0JArj4z1ixbA4BCEAAAhCYRKD0IICL/6Qa5HsIQAACEIDAnARKDQK4+M9ZoewGAQhAAAIQmJZAaUEAF/9pa47tIAABCEAAAhUJlBIEcPGvWJHsDgEIQAACEJiVQNNBABf/WWuM7SEAAQhAAAJBBJoKArj4B1Ug2UAAAhCAAATmJVB3EMDFf96aYj8IQAACEIBAMIG6ggAu/sEVR3YQgAAEIACBqgRyBwFc/KvWEPtDAAIQgAAEMhHIFQRw8c9UYWQLAQhAAAIQiCIQHQRw8Y+qGfKBAAQgAAEIZCYQFQRw8c9cUWQPAQhAAAIQiCZQNQjg4h9dI+QHAQhAAAIQqInA8SrnTenHM+oNbe99SRCAAAQgAAEItJTAPrL7IWnaIOBBbbt3S33FbAhAAAIQgAAEBgiso+W/Lz0vjQsEntN3vyutLZEgAIGOE1i94/7hHgQg8GkCa+jfQ6QjpK0kBwMvSTdLt6/8Xx8kCEAAAhCAAAQgAAEIQAACEIAABCAAAQhAAAIQgAAEIAABCEAAAhCAAAQgAAEIQAACEIAABCAAAQhAAAIQgAAEIAABCEAAAhCAAAQgAAEIQAACEIAABCAAAQhAAAIQgAAEIAABCEAAAhCAAAQgAAEIQAACEIAABCAAAQhAAAIQgAAEIAABCEAAAhCAAAQgAAEIQAACEIAABCAAAQhAAAIQgAAEIAABCEAAAhCAAAQgAAEIQAACEIAABCAAAQhAAAIQgAAEIAABCEAAAhCAAAQgAAEIQAACEIAABCAAAQhAAAIQgAAEIAABCLSEwOotsRMzZyOwjjb/Oek06UBpC+l96WnpJukvpVskUr8IrCF3T5b+pnSYtLXk9KJ0q/RX0n+VPpZI/SJwhNz9eekoaQdpLekV6W7pQslt412JBAEIFEpgTdn169Lz0o8n6Cp9f6hE6geBr8nN+6RJ7eJebeNtSf0g4HOAzwWT2sVz2sbnFp9jSBCAQGEETpA9d0mTDuTB7/1L7wLJET+pmwT2klsXSYP1Ps3yFdrngG4iwSsR2EY6X/pQmqY9pG0e0PanSCQIQKAAAr54L5PSATrP5w+1/4K0jkTqBoFN5Ma50nvSPG3C+3wg+SLhISRSNwh8Tm6cLb0pzdsuvN/3pF0lEgQg0ACB9VTmgrRCqnIgD+7rOQJnSqT2EvA4v+vwZWmwbqssv6a8fNFYIpHaS+B0mf6oVKUtDO7r4PI8aUOJBAEI1EDAEzfPkJ6SBg/GyOUrlfcXJFK7CHgYyJO2ItvCYF7u/v1Ku5BgrQjsLV0sDdZl5LLnHJ0lOfgkQQACmQh4ws71UuTBOy6vj1TOMonuX0EoPEUMA41rB6PWu/t3t8KZYN5qq3kYyL/QPZQzqh6j192mco6WSBCAQCCBbZWXx2J9UY4+aCfl5+7fcyTfFkQqi8DnZc6CFDkMNKk9pO99Wyndv4JQYPJQjX+RRw4DpXqf9JkmFu9UIBdMgkCrCPii67HXt6RJB17u7x+UDV+VSM0TSMNAnrORu94n5f+8bPDFhtvDmm8XtuBE6QfSpHrL/f07smFBWlciQQACMxLwhJ3HpNwH6qz5Xyab9p3RFzaPI3CYsrpBmrXecm9/u2w6Js5NcpqRwO7a/gIpdz3Pmv8zssmTUh20kiAAgQkE9tH3l0qzHmh1bp+6fzea4AtfxxHwMJDnZLiLtc66nrUszw/YSSLVQ6DJYaBZ2sbVwnFQPUgoBQLtI7CpTPaY6qwP5pjlIIze9lXZ6yEKun8FIVNyF6rnYJQwDDRt+3H3r59BsL5EykPAv6j9y/oFadp6aXq7NLF4qzxIyBUC7SPgB3N4DNXP3W76AJ23fHf/HiuRYgl4GOhxad56aXo/un9j20PKrdRhoGnb2+tyxEHt2skhPiHQRwJL5bSfvT7tgVP6du7+3VkiVSNwsHa/Riq9vqe17yb5ckQ1JOwtAttJbRgGmrZdPCx//MIyEgR6RWAPeVvihJ1pD9zFtvuRfKP7d77mvJl2a9sw0GJtYfA7un/naxPeKw0Dva3lQaZdWfbE4v3sKAkCXSbgMdEFya/V7MrBO86PZ+Ujs38FYYqUns/+hrYdx7Mr630RW5Do/hWEKZKHgZ6QulL/4/xIE4s3noIJm0CgVQTWkLW+GL4ojTsAurr+Zvl8pEQaTaBrw0DTtmN3/54xGglrRaBrw0DTtovl8p2JxRwCnSFwvDy5U5r2AOjidh/Lf49dbi2RPiGwpz48Z6KL9T2LT5eLwf6fIOGvCHR5GGiWdnG/WJxMi4BAWwlsL8O7NGFnloN33LbptcN97v51F6fnSFR5Te84vm1d/4F4+FHXm0t9TX0aBpqlnTpI3qWvjQK/20dgPZm8IHky3CwNvU/bPiI2fev+TcNAL9Euxh4Xfe3+9TDQfbSLse0ivXZ4AzEiQaBIAn4why9qT0p9uphX8fUKsTpA6nr6shy8S6rCqk/7uvv3FKnrycNAF0p9qtsqvj4nVn5mioNpEgSKIXCYLLlBqtK4c+57h2zzW/1yljFv3u7+9a1vm0hdS+66/I/SvGxy7+eHDFm5y5k3f7PrYvev27rbvGe+z8sm534+V5Q8b8nnWp9zSRBolMA2Kt1jl77HOecBOW/ez8uuFDGnRw37gjtvfjn380nHs3+XSG1PaRhohRzJyWzevN+RXQvSOtJakrm/Kc2bX879UvfvhrKv7an0YaD0rIYtBTr1aD6t5Zz1O2/enljsZ6nsKJEgUCuBNGGn1JNmuqd21Elzb5G6WJr3wMu93wOy7Su11mZcYemk+VShfBc7aZYezLa9+/cEtYm7C20XPqavlA6UhlPpLxtKE4sdzJIgkJ3A6SrhUSn3hXDe/D1rdrcpKHTFjylcrWWTQ1XKddK89ZZ7v1tl29FTkOiKH1O4WssmO6iUZVLu+p03f//CP3MKEl3xYwpX2QQCnyXQhl/Op3zW7EXXtLknY1HHavxyW5VV8jDQPL+c29yTUWPVL1pU6b+cB4eBFnVk6Ms29GR8Ychm/oXA3ARKHztfLs+qjp2X3v2b5jKU9NrhPoydt2kuw9wHePCOfQie2jSXIbh6ya4vBDwZzRPoXpbm7V7LuZ8n8/mX5xZSVDpEGZXcjX2b7DsmytkK+Xj45DEpZ/1WydvDQLtW8G9419T96zkEVezKte+03djDfkX/7+GT6wtlZPYeBvqSFJU2UUbnSu9Jueq2Sr6eWOzXDjtYJ0FgagInacsfSFUaX859/fjUA6b2ZrYN0y+YJ7VbTh/mzTtNZNtpNrdCtt5HuVxaKBfzzH3//JdVRsnPM7hK9o2ayKbVWVMXh4FmAbaXNr5ImveYzr3fg7Lt1FkcYtt+EthdbvvWktwNct78H5FtZ9RUNan790eF8vAYpn99rF8DjzQM9GGhLNIwUB1DJHT/rmpwaRjorULbhX+ZnydtsMrkrEtLlft90rznt9z7XSbb9s1KgMxbSSBN2HlX1uduhPPkn251aeIZ+tuLyTKp1O7fZ2SbZzG75yI6pWGgV5TxPPWWe580DLR5tONT5JfeaVDqMfO6fMjZ/du3YaApmsRPNkkTi9/Qf7nb/zz5p1ukN5rWIbbrLgFfNHzxeEGapzHl3scXXV98t5aaTsfLgDul3D7Pm/9Nsu2IQEgeBrqnYH89DLR/oL/zZrWndvScg3nrLfd+D8m20+Z1bsR+bRgGOnmE3XWv2kwFuveh1F6zV2Xb2VIdvWYqhlQagcNl0I1S7hPQvPnfLNuOLAxa6v59sVBuH8kuB0xbVeC2h/YteRjoYdlX1zDQLBjd/XuvNG97z72fu3/3m8WhoW0ZBhoCMuW/X9R210q563fe/O+QbcdO6QubdYDAdvLBF4lSu7SflW25urSjqq/07t+35eiCNMuQiecSeJ9Su7Tn8Unu1Jq62P1rn3w3UKnDQO7S9t1ATQwDqdipk4dMnpDmvVDn3s+9WDtLpI4SWFd+eUzQJ9LcjWme/D3Zrq5JbSoqJHXh13IfejVCKnuGTDbTtl3o/u16r8YMVRqyKefgEIxkMisBos9Zic22feknynHj5Z4z4LkD8wRsdewTPa9htlqtvvXByuKagvm6+/e4EW52IbAd4VYxq+iFLaYqum1I6eNPtwt/V8afSu8qHZwx3+c7G5o44h2APy7VETTNU4a7f3eRSh8GSnc2zDK0JbeKTW2Yh3VUsfQwbCwBTwL7N5Inhc1zQsi9jyfRfUNy93PX0hZyyGOSJc/+LfnZBn8kdu4q7VqyT38o+ZbW3MfXPPm7TZQ6zu9jyceUj62uJZ8D/47kc+I89ZZ7H19DfC2pMrFYu5PqIOBfob61g3tQ66C9eBn76OtLpdwHaFfy96/QnRZH2olv/dS8ZdLHUlfqLqcfV4vTQVLX0+fl4IJU6iRcB662bx2JVCABj0PzFKryKsbdv49JOU+Sbc7bw0DHlFdt2S06TCXcILW57nLanvMBV9krt0IBu2vfkm/DfUT2nVHBP3YNJuBfFBdKOQ/GKnk7KPmZYJ/blp27f78lldr9W6V+5933BfH4NamLw0Bya6pk383geWlejl3bz8eIj5UuDgPJranTz2rLkn/Q+Zrjaw+pQQJ+7/NzUokngeWy67elJRLpEwKe/fsXUp+7f93Fea60gUT6hIBZmEmp3b91nF98TPxfko8R0icEfO70OXS5VEcdzFqGrz2+BpEaILCjyvSvqFkrLff2nm3+ryTfC00aTcAza2+WctdFafn/tXzebTQS1q5k81f6LK3ecttzi3xmtvn4Q8DnUp9TfW7NXRez5u/eqx0kUs0ELlN5s1ZW7u0vl03718yhrcW5+/frUh+6f++Vn0vbWlEN2G1W90i5j9em83fb9zHQ52EguT918rnV59im6224fF+LSDUS+IrKGq6EJv9/VPb8zRr971JRvvf6f5K62P3rrsv/TnJXJmk2Amb2W9KrUpPHdo6y3dbd5j30QZqdgM+1PufmqJt58zxldjfYY14CvmVq3oqK3M8TdhYkbg0RhIrJ3WjLpMj6aSovd1V29b7titU88+6baA/PD3hPaqo+I8v1uYthIEGomNIt328qn8j6mTev/1zRH3afksBa2m6FNG9FReznh0P8W2kbiRRL4CRl9wMpop6ayMPdgfvFIiG3lUz/qz6bqNOIMt2m3bZJsQR8Dv63ks/JEfU0bx6+JjkoIWUmcIDyn7eSIva7QeUfltnHvmfv7t/flNrU/fuI7P0bfa+4Gvz/msow64hjuY483IbdlhkGEoSMyedkn5vrqNNxZfjaRMpM4ATlP64Ccq53d//fllbP7B/ZryLg7t8/l3LWa9W8ffvWH0hrS6R6CLgX8Pcls69afzn3d9t1GybVQ8DnZp+jfa7OWa/j8j6xHjfjSmnj7FMf/E0kP6ry70rc91kPfR/Mp0ue8Flysp1nSktLNrJjth0rf35BKj0Yd2+F28aaEik/gb1VxK9IPlc3kZq6NjXha2NlnqySx0Vgdaz3WJMnq23ZGIHuF1xCd948bekyVc2+3a+exjzcXSVfIM1TN03uc7tsdtBCykNgU2V7nvSh1GQ9cydAnvr9VK5NBwCpgXXt1ZyfgtzQP9upXAdXpXftpjYw6vN92e+T0UYSKYaAf9EtSG2/VdR3AOwskWIILFE2Z0mvSKOOxbrXEQDE1OuiuZQSAKTG9ZCsPW1Ri/lyEgE/9/wc6W0pcW37pyd/nS3R/SsIc6Y0vPKC9m97e0j2+7XDvq1x/TmZsNsnBHxHxT1S4lrCJwFADa2ztAAgNTx3/+5Xg/9dK8Lj/E9IiWPXPu+Qb8d1rdJq8OdwlXGj1LX2kPx5Vr55fkDp8xhkYlFpD1lT6jAQAUANTaXUAMAHNt2/0zeAg7XptVI6IXb9092/u0yPp7dbdmEYaJa27HdiHNnb2p7ecfeYLEglDwMRAExfn3NvWXIAkA58un/HV+9m+qqECTuprur8TN2/G4zH09tv1pPnXRsGmrZtec6L575s3dvaH+/4GvrKPSUvStPybGo7AoDx9Rj2TRsCgNQA75TXdP9+UvXp0Z1v6N/Ep6+fdP9++nTQ9WGgadt5erT42p/G09v/jpDnN0nT8mt6OwKAGppqmwKA1CD73v27VO3ivhYdyKnecn/eIiZH1XDMlFrEF2VYn4aBpm1Pj4jLGaVWWg12ba8y3CPinpFpmZWwHQFADY2jjQGAG2cfu3/3kt8XtuwgrvtE0sfu3z4PA83Svi7XsXOA1JfU9mEgAoAaWmpbA4B04D8nRr531WNbXU2byLFzpfek5Defi7NI3b/rdLVRyC+GgRZvA6OOkQ/E7Xxpiw63C98J4R6PJ6VRDNqyjgBAFZg7tT0ASI3Z3b9fyg2r5vzThJ2XVG7yk8/ZWHS1+5dhoNnawfBxs1zHlJ8rsaTmYzp3cYeogO9Lw/628X8CgNytRfl3JQBwA3f37wXSDlLb0wly4G6pjQduiTZfIZZdeO/EXvLjItpF2HHxgFiW/n4MmTgxbaMt3LPR9ON7I499AoCJ1V59gy4FAKnxtbn718GLJ+wkX/iMY9Hm7l+GgeLawahjyhOLd6t+Oq09hzQM9GYHzxkEADU0py4GAOkAf1r8zqyBYUQR6fnsK5RZsp/PPCxeE2PfI9+Gt42lYaCXaRfZj4v04LENxboNybd7Pip19TxBAFBDK+xyAJAOjCvFsdTu3zRh56kOH8ipHkr7fFDMv1rDMTZvESdqR4aB6r/APS/uJU8s3lv2XSyVdjxF20MAoErOnfoQALhhfiS5a33L3EBnyP9QbXu9FH3gkN9sTC9THewzQ73l3tRd0Z7LQj02y+A21cExuSt7hvw9DHSe5KGsPrQNAoAZGse8m0YHADfKkH8pldpIPfv3t6UmZ/9up/L/QvKkxRIP5Gdl198Lts2vGHW3+1vB+Ubx8zPRz5U2kJpKLts2lPp8dted6zD6dbFua25zUXUZmY+PUR+rPmabSj5X+Zy1XIr0LSovn+t9zve5PypP50MAIAi5U3QAcOlKg/fSZ8mzlZvo/vWYs289KvUi6OcM+BeGL0RbS5EH8wvKz2lzyWWUOlvZF7e6XzvsYSDPVTGjSOZRefki6N4ztwmnF6WovJ2P811PWpD8gK/IvKPyemelfevqs87kYaAfSFF+ROfju2sOWAnk0mA7CQBWgs35kSsASDYv1cJ9UnTDi8rvMtm2bzI24+fpyvtxKcru6HyGH6+cKwBIiL+ohe8XzON22XZsMjbj52HK+wYpuj6j8rtFth015H+OACAVsb0WHGw46IjyITKfZ2SXgzUHbTnT7sq85GGgR2TfGUMACACGgLTh39wBgBmkW1VKfXFNmv27UYYK89hy9IEReUK7X/a5DQyn3AFAKs+B0ZNSpE+ReTkw2lmKTu5SLvlC96zsG3ehyxkAJM7Ha+FOKbIuI/O6WrYdJEWndDfQu8o40t6ovNIt1muPcDz6PEcPwAjI0avqCACSzZtpoeTu38jXDm9auK/LZd9iXd11BQBuG+7+9djy21LUiSoyH3f/niv5HepVk7uQS54L4S54+7rBIo7WEQC4+DUkByHR5UW1jTSxeCsbWzG1bRholLsEAKOoFL6uzgAgoXD377VS1IEYnU+V7t/U2/F6of6l3o6NU2WM+awzAEgmdL37170dj0vR7TUqv+FhoFQvw5/RF2S3tcWSA68F6V0pytfIfBy42r5Rv4q1emI6XFvcKEXaFJnXzbLtyIlexPd0s8KF/AAAF59JREFUnjJFmWxSkUATAUAy2SfEJ6TIxhqZl0+IO0vTpqXa8F4p0obIvDzfYb8pnWkiAEimHaGFLpwQkz8Ha+EaKbIuI/O6Q7Ydl4yd4rPuACCZtIcWSh4Xf1j2DY+LJ9tHfbZ5GGiUP5dqZWS7JAAYRTl4XZMBgF1JXaKldv+mLtHFun/3lB8OFiIbf2ReD8m206RZUpMBgO3sQvfvZvKji0NeTQUAqf060L5HijxGIvNyoL1/MnbEZxfOeSPcCp/rRAAwinLwuqYDgOROG6Nhd6OfK70rRZ5AovLyMITHm9eWZk1NBwDJ3tK7f0dNikrDQF2d9Np0AOC2YcZ+Wl/0Mwmijj0PtfnlPL7tdTB1rddz0Dd6AAZptGS5lAAg4fKTtzwGH3UgRufjW9d869Y3pZcLtdP32P+ZtIU0byolAEj2u5flQim6PqPyS70s7mnxclS+0fm4p8osq6QSAoBkv9u427rbfDSriPx8jvC5wueM0m979bm3SiIAqEKvoX1LCwCMofQZsREnhlx5XC1+BxpixVRaAJDcOUkLJXf/5qrXqvk6KDk1Qaz4WVIAkFzZRwvRF6CqzNuw/6vittjdQInvNJ/R/E+ZplC2qUagxAAgeVT6PbElHeDRDygpNQBw21gildz9W1K7SMNAa6WDKuCzxAAgueUu9sekkuqgRFvS3UAbJXABnwQAARDrzqLkACCx2F0LJc/+bfIAf0dsFiRPLIpMJQcAyc/0rIUPtKLJOiix7HSP+pYJVuBnyQGA3XSw41+1b0kl1k3TNnmS4r5SdCIAiCZaQ35tCAAShhO18AOp6QOohPI/FgcHRTtJOVIbAoDk995auEQqoV5KsOEqsTgwwcnwWXoAkFzeVgueiOdgqIR6adqGB8Xhq1KuRACQi2zGfNsUABhD6v59WctNH1BNlX+bfD/aMDKmNgUACUPfu3+fFgg/OS93aksAkDgcqoXrpaaO16bLfU2++26gyGEgZfeZRADwGSTlr2hbAJCIbqIF32Pdp+7f5+XvWZLvkc+d2hgAmEnq/n1Ty02feOsqPw0DrZO7UazMv20BgM32xOIzpKekuuql6XJyDgMJ42cSAcBnkJS/oq0BQCK7txYulpo+2HKW/578c7CzoVRXamsAkPhso4Wud/+mYaAdk9M1fbYxAEho1tPCgrRCynnMNp33lfLvC1KdiQCgTtpBZbU9AEgY3P37qNT0gRddvu/b3jU5WeNn2wOAhOoQLVwnRddL0/ndKp++lJys+bPNAUBCtYMWlklN12N0+XUNAyWOg58EAIM0WrLclQDAuNMT2LrQ/fuA/DmlwTbUlQDACFP375Najj7h1p3fc/KhrmEgFTUydSEASI59WQt3SXXXY3R56YmU6yTHGvgkAGgAetUiuxQAJBap+7fUp4MtdvAvlxO+hcmTHZtMXQoAEsc2d/+mYaANkjMNfnYpADBGz6nx5MmXpMWOzRK/S8NA7tFoOhEANF0Dc5TfxQAgYXD3b8mP3xw8oXgyo8esh58dnnyp+7OLAUBiuL0W3P3rk+dgHZS63NQwUOI1/Nm1ACD5l97t4WCr1LYwaNctsrOpYaDEbPCTAGCQRkuWuxwAuAra0P17uezcv7D20uUAIKE+Xgsld//eL/t8fJaWuhoAJM57aqHk906UMAyUWA1+EgAM0mjJctcDgFQN7v71vbBvS4NRdJPLD8sW35pUYupDAGDuqfs3+qJWpV2lYaA1S2wYsimaldtaiWmpjLpXqlKXkfumV5OXMAw0qr4IAEZRKXxdXwKAVA0ldP+mCTtrJ6MK/OxLAJDQp+7fd7Ui8qQ9S17vq+yShoESm+HPvgQA9jtNLH5Dy7PUZfS2HgbaxQYVnAgACq6ccab1LQBIHI7Qwk1S9IG6WH7pwRxbJSMK/uxbAJCqwt2/PtkuVo85vvPz2UsbBkpMhj/7FAAk3zfTgp/FUffE4jtU5nHJiMI/CQAKr6BR5vU1ADCLOrt/b1Z5R46qgELX9TUASNVRV/dvycNAicXwZx8DgMTgYC1cI+UIAgfzjHxNb7I99ycBQG7CGfLvcwCQcK6vhQXpXWnwIIxYflZ5+hYjT0ZsU+p7AOC6St2/r2s5oi0M5uG5KAtSycNAMm9k6nMAkICcroXHpcE6jVj2MJB7GjaS2pYIANpWY7KXAGBVpflXX8RBnPJ4VPlFv6Z3lbV5lwgAVvH1K3VTnUZ9Os+2JgKAT2rOx7aP8ag24Xx8Dmpr6n0A4C5lUnsJvBJsuif7rQjOk+zqJ/ByhiJz5JnBTLJchICPbR/jkSn6HBRpG3lNIEAAMAEQX0MAAhCAAAS6SIAAoIu1ik8QgAAEIACBCQQIACYA4msIQAACEIBAFwkQAHSxVvEJAhCAAAQgMIEAAcAEQHwNAQhAAAIQ6CIBAoAu1io+QQACEIAABCYQIACYAIivIQABCEAAAl0kQADQxVrFJwhAAAIQgMAEAgQAEwDxNQQgAAEIQKCLBAgAulir+AQBCEAAAhCYQIAAYAIgvoYABCAAAQh0kQABQBdrFZ8gAAEIQAACEwgQAEwAxNcQgAAEIACBLhIgAOhireITBCAAAQhAYAIBAoAJgPgaAhCAAAQg0EUCBABdrFV8ggAEIAABCEwgQAAwARBfQwACEIAABLpIgACgi7WKTxCAAAQgAIEJBAgAJgDiawhAAAIQgEAXCRAAdLFW8QkCEIAABCAwgQABwARAfA0BCEAAAhDoIgECgC7WKj5BAAIQgAAEJhAgAJgAiK8hAAEIQAACXSRAANDFWsUnCEAAAhCAwAQCBAATAPE1BCAAAQhAoIsECABWW21HVey2Xazcnvl0eLC/n1d++wfnSXb1E9hPRbouI9MRkZmRVyMEtlGpOzRSckGFEgCstto+qo9HpAVpHYnULgI+iJdJ/znY7A2U390r894iOG+yy09gExVxnnSXtH5wcX+t/C6TfO4gtYvA52Tu2dKD0r7tMh1rTeBk6ceZ9LTyPVNqSzpQhkay8MmyLcm/6hakFVIkg1F5vaYyzpHWktqSRvlRZV1b/F4iQ8+SXpaq+DvNvu+rDAcZG0ptST7Gp/Ft2m18DmpLOl2GPipN69us253SFhBttjNnAJAq/CoBakPD7mMAsLrq5gzJwVqqr7o+/avhq1IbUjSTNvh8ooz8gRTt+6T8XlGZZ0trSqWnPgYAe6tSLpYm1WPV7wkAamj9dQQAbggfSe5a3rIGn+Ytom8BwGECdb1U9UCtur+7f0vvPqzq4/D+87bROvbbXYVcIA3bXPf/t8uGY+pwuEIZfQoANhUn99B8INXRFggAKjTMaXetKwBIDeZ1GVZq929fAgBP0jxfclCW6qXpz9T9u5FsKjFF8ynRxzqHgWbh+T3B2rlEYLKpDwFAncNAg+2CAKCGRu9uvkHodS3fr3IdfJSUuh4ArCvY35J+KNVVz7OW84Js+4a0hlRSmtWPSduX5JtZm7nZT7K7qe/dZv9QchsuKXU9APhZwb5PaqLeTyqportqy0ENVW5qUI7u9ygEbpcDAI/zPykl7qV/3iZbj5ZKSdG8SvHLjG+Vov3Lld+TsvXnpVJSVwMAn5O/K+Wqx2ny9bWJlJnAOsr/PWmaCsm1jcv/n6Wmu3+7GAD4ILpaylV3OfP9WHb/P5JvTWw6RfvZtD9m+n9LZhztWx35XSO7D5aaTl0LAHwHxr+QSrgm+NpEqoHApSqjjoN2Uhmvyo6zpaZm/3YpANhMHD1h50NpEvfSv/+RfDhXir7/XFlOnaIZTV1w8IbuQvccnLekaJ/qzs9zWJZJW0lNpa4EAL4byLdslzIMdHFTFdrHcn9OTtd98C5Wnmf/HttARXQhAPCDOf6+9Lq0GOM2fveUfPpbkk9WdadoXnXbb2ZmZ4bRvjSd3xvy6b+X1pLqTl0IAHynhc+5TdfjYPm+JpFqIuCTQwm3gw02AHdN/r/SjjUxcDFtDwB8T73vrR/k2MXl78vHL0p1pmiOddpuVtdK0T6Ult9D8vHUOsGqrDYHAB4G8hBbacNAN8imJoJ8Fdvf5Ekfy6XSDmp3/35bWk/KndoaAOwtMO4yK63uctrj7t9/I9XV/Rvti0zPnszmX0tmFW1/yfldIn/reqxwGwMAn0sXpHek0urR1yBfi0gNEDhKZZYYBLiRPi39opQzMmxbALCxePyJ5HvoSzuQ67LnTfn+D6Xc3b/R/sjkbMks/oH0hhRtd1vy8zHxp9ImUs7UpgDA585fkHwuLbEefe35kkRqkICfAlbacMBgY71O9h2aiU9bAgBPkvym9LI0yKbPyw+LxelSrhTNNpedpyljs4i2t635vSIWvy7lmljclgDgEDHw0Fmp9ehuf375C0IJyZFiSTNChxutx6w8+3frYFhtCAC+LJ+jTzrDfNv8/xXic0Bwu3B20UyiTdxTGV6Ywc5ov5vK7wGxOSUauvKLPhZ9DopMpd8N1PSdX5GsO5fX5+XRgrRCaurAXaxcPx3M9q0jRaSSA4Dt5aCDntIm7CxWP01952eVny9tIUWlaF+i7NpYGZ0rvSdF29jF/L4nTrtKUanUAOBzcvBs6Q2pxHr0EM150kYSqXACHhb4a6nEhmSbHpH+hlQ1lRgAOAj7Y6nUIMwTiUp91oB/XfymtESqmqLbflV73KX9G5K7uKNti8jPbaLESWb2zcfSP5UinitRYgDwNfnmc2JEPebI47uyje5+QWhbOlEG3y3laBQRebr79wsVoJYUAHgY5gzpKSmCTXQe7om4QNpJ2lu6RIouIyq/B2TbV6QqKcqWlE8VW07QziUfh1fJPh9L20ruiSn1LoTnZdtZ0hrSvKmkAGAvOXGRlNpYaZ++Rfmr84JmvzII+NeUD5pSJ6D5ZOOu8i2kWVMpAYAnOV4nlXYAJ3tuk21Hj4DrSXiPFmy3u393G2H3NKuS71Gf05Q5vM0OWuG2HWVDdD5PyzbPHRpObW3Pw36M+r+EAMB3OpQ8DPSa7DtHWmsUQNa1k0AXG13TAcA2agpt/8WUxh7flC/RF5iI/NLYo595PkuKKHswj1nKLn0ujrv6F6TF5uK0qUdrlrppMgBwz4UDrtJ/jG05C1C2bReBLnU7NRUAODI+Wyr1oukJZudJs1w02xLMTHt72ODFO2JZOCemtlw0d5zoyaoN1tPiguRx+AiO0XlME8zI9J+mpgKA0oeBrhShKsOxPwXMQjsILJWZ90vRB2RUfpfJtklPB2siAHC3+WMFc6s6a/oQ+Vb6cMYxsnFSimqHKZ9J5bnb/HopbV/a562y7UuTnFjk+9KHM56R7f517SBssVR3AOBgq43DQIsx5LuOEGhL9+9GY3jXGQC0YeLcKWM4zbo6/ZJ9UjuWdiGzPR9LF0g7SeNStN3jyil94txzMrzqxLlB37+sf6IvopF1dbXs83lhXIq2fVxZpQ8DRd+SPY4361tAYHPZ6C7jkm8PO1v2DXf/1hEAbLqSzQf6jDxRReW1XHaZzRIpOqXuX7/fIcreyHzc/evJVKNuD4ssx3kNpzQM9Ja+iC4rIr80DLTBsOEB/6ex7JcK9T1NLB41lp07AHDw7J6IFwplk4Jn9+iQIPApAqW/hex2WXvsgMU5AwBfUP3LqdT7th2QeAKig7fcaXsV4G5MnzwiLk7ReYzq/o0uY5Cxh4EeL5SF/a46DDTo62LLG+tLB2AONqJ5R+T3uuzybPa1pZRyBgCHqZAbpAjbc+Rxi2yrMgyUGPLZcQI+wT0h5WiEEXn6BLezlCsAOEl53yNF2Jojj8tl2/5S3el4FXinlMOniDxvkm1HrIQSkd9gHs7Wc1IulQbXl7TsOT0nS3WnPVWgj8mSWAza8pBsO20llBwBgIeBSg6Qo4eBVqLko8sE3P37bank7t/vyL7BA73q8lPKry0nMpnaSPIwzDell6WqvHPs72Es94xE5/1nyrPUITLXhetkeIhMq2pNp6o0X2yj2Ufld6Fs8zEelZ/z+XeSx9Mj84zKy+fufyJ5PgIJAnMR2E57lRzdRh0sJefztupgQRrsytS/jabU/fuurCiZXZdte1/sHezUMQw0bWNLE4vfoF00elz4h8wu01Ya20FgEoHDtcGNUpdPqKX5liYzbTWpchr8fg+VfQHtovbjwrfJ7tdgvU8qejNtUPLE4tKO9Sh77hD34yZVDt9DYB4Cafbvi9o5qsGSz2iWHs8+cp5KamifpSr3Xon6zMvgYTE+o6E6nqfYg7XTNRLtIi+DV8X4bKnpYSCZQOo6AY8pLUh0/8Yf1M+I65nS6lLbkrt/S75zos0XoVEz2tvUPkq/c6KtbcPDQO5p2ahNjQFbu0GA7t+4AGCxe9rb1lrSsxNKnTTXppN9G4aBpm2f62pD35ZX6rMT2tQubGvpw0DTtgu2azmBk2T/PVLbDqBS7PWEnZ2lrqXSb5srpf7H2XG1GsRBXWsU8qf02+bG1Ucp6wdva+xg88ClNhIo/cE5pRy8g3b4wUbHtLGyZ7TZ3b+PSYO+szyeR5uHgWZpGqU/OKe0Ntr2YaBZ2gbbtpRA6v71k+pKO4BKsecVsenbhJ21VvpM9+/448LDQAuSu8r7kjzXxZMan5ZKOT5LsyMNA23Zl0aBn+0nsLdcuEQq7WBq0p40YWeW1/S2vyV82gN3//redZ/UmqyLksr2I5Z9K+VOUl9Tmli8QgBKqpumbblKPA7sa6PA7/YToPv3kxOaJ+x4TJz0CYFD9XG91PQJtunybxODPgwDfVLrk//uoE384LGm66Xp8t0j4ruBSBBoPYHU/fumPGn6wKq7/Afl81daX4N5HEjdv0/1sF08L599y6SfrUH6LIETtOpuqe7jteny0jDQOp9FwhoItJvANjK/L92/r8lXj/N7ciRpcQJ96v5lGGjxtjD4rYMj/wou9b0TkcFCGgbacRAAyxDoIoFD5NR1UuQBVEpenvzoIGcLiTQbga53//p2z91mQ8LWIrCJdK70nlTKcR5px63y62iJBIHeEEjdv0/K48iDqcm8rpAvB/SmBvM56u7f6Ne2NtkuHpA/p+TD1Zuc95KnF0lN1mVk2c/JF4aBetN8cXQUgfW0ckEq9bXD0xzwj8h+38pEiiOQun9fUpbT1EGJ2yyX7QwDxbWJlNNSLdwnlVjn09jkngw/vrfPdwPJfRIEVhHYXovLJI+FTXMQlbCN3wO+IDFhRxAypfTa4TZ1/6ZhoJJe05upehrL1u+dcHDVttcOexho18aoUTAECidwvOy7UyrhAj/OBgcpDla2lkj1ENhTxVwojauTUtZfLhsZBqqnTbiUzST/mv5QKqUNjLLjftl3skSCAAQmEEjdvy9qu1EHU5PrbpFNR02wn6/zESi1+5dhoHx1Pk3OX9RG10pNnhtGlZ2Ggdacxgm2gQAEVhFI3b8lvHb4WZl1puTJi6RmCZTU/ZuGgdZuFgmlryRwuj6fkEZdjOtcxzAQTRICQQT2UD4eO6vzAE5leXKib0HaQCKVRaDJ7l8/yphhoLLaQ7LG71Lwa4ffltJxXOfnZSp3f4kEAQgEEnD3771SXQezg46dJVLZBA6WeddIdbWLm1XWkWUjwToR2E5ykFbXxOKHVRZ3AwkCCQK5CLj71/fO+o16uU74dyjv4yRSuwi4+/dxKVe7YBioXe0hWXu4Fm7M2C7c07AgMQwkCCQI1EEgvXY4cvbvqzLctxYxYaeOGsxTRur+jXzt8Dsy1cNA6+cxmVxrIOC5O57D84IUFSCmYaCtarCfIiAAgREE9tG6S6UqB3V6PvtGI/JnVTsJRHX/MgzUzvofZ3V670TVicU3qYAjxhXCeghAoF4C83b/esLOvvWaSmk1EjhMZd0gzRog3q59jq3RToqql8DuKu4CadZ28Yz2cU8CdwMJAgkCJRFw9+8fSNM8HewubXdyScZjSzYCfq7EN6SnpUknfG/jbdeQSN0n8LNy0eeCSe3C55RvST7HkCAAgYIJbCzbflO6WHpOche/J+r4aVx/Lp0iEcELQs+SJ2n9kuRffp4s6Fs8LS//pfSL0loSqV8EfC7wOcHnBp8jfK7wOcPnjoskn0t8TiF1jMD/D9th4J5asEkLAAAAAElFTkSuQmCC;" vertex="1" parent="1">
          <mxGeometry x="827" y="1277" width="42" height="42" as="geometry" />
        </mxCell>
        <mxCell id="dXWTu-7YxBk32f4qg5hx-75" value="" style="triangle;whiteSpace=wrap;html=1;fillColor=#E6E6E6;strokeColor=none;gradientColor=#D4E1F5;gradientDirection=east;" vertex="1" parent="1">
          <mxGeometry x="780.67" y="1168" width="30" height="80" as="geometry" />
        </mxCell>
      </root>
    </mxGraphModel>
  </diagram>
</mxfile>
